<?xml version="1.0" encoding="UTF-8" standalone="no"?>
<!-- Created with Inkscape (http://www.inkscape.org/) -->
<svg
   xmlns:dc="http://purl.org/dc/elements/1.1/"
   xmlns:cc="http://web.resource.org/cc/"
   xmlns:rdf="http://www.w3.org/1999/02/22-rdf-syntax-ns#"
   xmlns:svg="http://www.w3.org/2000/svg"
   xmlns="http://www.w3.org/2000/svg"
   xmlns:xlink="http://www.w3.org/1999/xlink"
   xmlns:sodipodi="http://inkscape.sourceforge.net/DTD/sodipodi-0.dtd"
   xmlns:inkscape="http://www.inkscape.org/namespaces/inkscape"
   width="841.88975pt"
   height="595.27559pt"
   id="svg2"
   sodipodi:version="0.32"
   inkscape:version="0.40+cvs"
   sodipodi:docbase="C:\Documents and Settings\michalus"
   sodipodi:docname="bulb.svg">
  <defs
     id="defs3">
    <linearGradient
       inkscape:collect="always"
       id="linearGradient25679">
      <stop
         style="stop-color:#4e574f;stop-opacity:1;"
         offset="0"
         id="stop25681" />
      <stop
         style="stop-color:#4e574f;stop-opacity:0;"
         offset="1"
         id="stop25683" />
    </linearGradient>
    <linearGradient
       inkscape:collect="always"
       id="linearGradient20170">
      <stop
         style="stop-color:#d6d06d;stop-opacity:1;"
         offset="0"
         id="stop20172" />
      <stop
         style="stop-color:#d6d06d;stop-opacity:0;"
         offset="1"
         id="stop20174" />
    </linearGradient>
    <linearGradient
       inkscape:collect="always"
       id="linearGradient13199">
      <stop
         style="stop-color:#80af8d;stop-opacity:1;"
         offset="0"
         id="stop13201" />
      <stop
         style="stop-color:#80af8d;stop-opacity:0;"
         offset="1"
         id="stop13203" />
    </linearGradient>
    <linearGradient
       inkscape:collect="always"
       xlink:href="#linearGradient20170"
       id="linearGradient22473"
       gradientUnits="userSpaceOnUse"
       gradientTransform="matrix(0.832680,0.000000,0.000000,1.200941,-6.000000,-4.000000)"
       x1="160.94882"
       y1="387.10750"
       x2="637.48867"
       y2="387.10750" />
    <linearGradient
       inkscape:collect="always"
       xlink:href="#linearGradient13199"
       id="linearGradient22475"
       gradientUnits="userSpaceOnUse"
       gradientTransform="scale(1.826530,0.547486)"
       x1="134.58826"
       y1="1367.4659"
       x2="228.98618"
       y2="1367.4659" />
    <linearGradient
       inkscape:collect="always"
       xlink:href="#linearGradient13199"
       id="linearGradient22477"
       gradientUnits="userSpaceOnUse"
       gradientTransform="scale(1.752574,0.570589)"
       x1="139.27370"
       y1="1346.4529"
       x2="240.55525"
       y2="1346.4529" />
    <linearGradient
       inkscape:collect="always"
       xlink:href="#linearGradient13199"
       id="linearGradient22479"
       gradientUnits="userSpaceOnUse"
       gradientTransform="scale(1.794419,0.557284)"
       x1="136.01141"
       y1="1416.8594"
       x2="234.61472"
       y2="1416.8594" />
    <linearGradient
       inkscape:collect="always"
       xlink:href="#linearGradient13199"
       id="linearGradient22481"
       gradientUnits="userSpaceOnUse"
       gradientTransform="scale(1.739127,0.575001)"
       x1="140.33545"
       y1="1409.3368"
       x2="242.25096"
       y2="1409.3368" />
    <linearGradient
       inkscape:collect="always"
       xlink:href="#linearGradient13199"
       id="linearGradient22483"
       gradientUnits="userSpaceOnUse"
       gradientTransform="scale(1.880319,0.531825)"
       x1="130.56680"
       y1="1571.0201"
       x2="223.04349"
       y2="1571.0201" />
    <linearGradient
       inkscape:collect="always"
       xlink:href="#linearGradient13199"
       id="linearGradient22485"
       gradientUnits="userSpaceOnUse"
       gradientTransform="scale(1.937248,0.516196)"
       x1="127.03160"
       y1="1655.0208"
       x2="216.27760"
       y2="1655.0208" />
    <linearGradient
       inkscape:collect="always"
       xlink:href="#linearGradient13199"
       id="linearGradient22487"
       gradientUnits="userSpaceOnUse"
       gradientTransform="scale(2.000520,0.499870)"
       x1="145.64961"
       y1="1777.5841"
       x2="179.65211"
       y2="1777.5841" />
    <linearGradient
       inkscape:collect="always"
       xlink:href="#linearGradient25679"
       id="linearGradient25685"
       gradientTransform="matrix(0.885338,0.000000,0.000000,1.129513,714.7513,-200.0128)"
       x1="-863.56097"
       y1="642.92682"
       x2="89.383856"
       y2="642.92682"
       gradientUnits="userSpaceOnUse" />
  </defs>
  <sodipodi:namedview
     id="base"
     pagecolor="#ffffff"
     bordercolor="#666666"
     borderopacity="1.0"
     inkscape:pageopacity="0.0"
     inkscape:pageshadow="2"
     inkscape:zoom="0.71630688"
     inkscape:cx="526.18109"
     inkscape:cy="372.74527"
     inkscape:document-units="px"
     inkscape:current-layer="layer1"
     showgrid="false"
     gridspacingx="5.0000000px"
     gridspacingy="5.0000000px"
     gridtolerance="2.5000000px"
     inkscape:grid-points="true"
     inkscape:window-width="1024"
     inkscape:window-height="712"
     inkscape:window-x="-4"
     inkscape:window-y="-4"
     showguides="true"
     inkscape:guide-bbox="true" />
  <metadata
     id="metadata4">
    <rdf:RDF
       id="RDF5">
      <cc:Work
         rdf:about=""
         id="Work6">
        <dc:format
           id="format7">image/svg+xml</dc:format>
        <dc:type
           id="type9"
           rdf:resource="http://purl.org/dc/dcmitype/StillImage" />
        <dc:title
           id="title1367">Bulb</dc:title>
        <dc:date
           id="date1369">02-08-2005</dc:date>
        <dc:creator
           id="creator1371">
          <cc:Agent
             id="Agent1373">
            <dc:title
               id="title1375">JID michalus@jabber.autocom.pl</dc:title>
          </cc:Agent>
        </dc:creator>
        <dc:publisher
           id="publisher1377">
          <cc:Agent
             id="Agent1379">
            <dc:title
               id="title1381">www.tvknet.pl/michalus/jabber</dc:title>
          </cc:Agent>
        </dc:publisher>
      </cc:Work>
    </rdf:RDF>
  </metadata>
  <g
     sodipodi:insensitive="true"
     inkscape:label="bulb"
     inkscape:groupmode="layer"
     id="layer1">
    <path
       style="fill:#000000;fill-opacity:1.0000000;fill-rule:nonzero;stroke:none;stroke-width:1.0000000px;stroke-linecap:butt;stroke-linejoin:miter;stroke-opacity:1.0000000"
       id="path3333"
       d="M 254.55587,390.05730 C 253.34135,390.05730 252.12683,390.05730 250.91231,390.05730 L 252.75142,390.05730 C 253.97879,390.05730 255.20617,390.05730 256.43354,390.05730 L 254.55587,390.05730 z " />
    <rect
       style="fill:#a05b00;fill-opacity:1.0000000;stroke:#000000;stroke-opacity:1.0000000"
       id="rect10159"
       width="30.000000"
       height="0.00000000"
       x="-75.000000"
       y="312.36218" />
    <g
       id="g22452"
       transform="matrix(0.882827,0.000000,0.000000,0.837658,232.6467,-74.02053)">
      <path
         style="fill:#52705a;fill-opacity:0.93808949;fill-rule:evenodd;stroke:#000000;stroke-width:1.0000000px;stroke-linecap:butt;stroke-linejoin:miter;stroke-opacity:1.0000000"
         d="M 419.56250,777.12500 C 402.95670,805.49474 364.38659,817.96294 327.43750,817.68750 C 308.96296,817.54978 290.90298,814.23549 276.25000,808.15625 C 261.59702,802.07701 250.39445,793.23907 245.46875,782.15625 L 244.53125,782.56250 C 244.60299,782.72392 244.70696,782.87082 244.78125,783.03125 C 242.23888,790.13503 242.10164,795.01470 242.68750,798.12500 C 242.98682,799.71407 243.46534,800.85215 243.87500,801.59375 C 244.22495,802.22726 244.44477,802.46748 244.53125,802.56250 C 249.60416,813.97654 261.07624,823.23301 275.87500,829.84375 C 290.67376,836.45449 308.81659,840.42198 327.40625,841.18750 C 364.58558,842.71854 403.55286,831.47111 420.43750,802.62500 L 419.87500,802.31250 L 420.46875,802.56250 C 420.46875,802.56250 425.16916,791.51224 420.46875,777.21875 L 420.00000,777.37500 L 419.56250,777.12500 z "
         id="path2363"
         sodipodi:nodetypes="ccccccccccccccccc" />
      <path
         style="fill:#52705a;fill-opacity:0.93808949;fill-rule:evenodd;stroke:#000000;stroke-width:1.0000000px;stroke-linecap:butt;stroke-linejoin:miter;stroke-opacity:1.0000000"
         d="M 420.46875,757.21875 L 419.53125,757.53125 C 419.54256,757.56564 419.55130,757.59071 419.56250,757.62500 C 402.95702,785.99419 364.38655,798.33755 327.43750,797.93750 C 308.96298,797.73747 290.90332,794.34477 276.25000,788.21875 C 261.59668,782.09273 250.39459,773.23938 245.46875,762.15625 L 244.53125,762.56250 C 244.60299,762.72392 244.70696,762.87080 244.78125,763.03125 C 242.23888,770.13503 242.10164,775.01470 242.68750,778.12500 C 242.98682,779.71407 243.46534,780.85215 243.87500,781.59375 C 244.22495,782.22726 244.44477,782.46748 244.53125,782.56250 C 249.60555,793.97968 261.07286,802.92137 275.87500,809.06250 C 290.67714,815.20363 308.84795,818.54892 327.43750,818.68750 C 364.61660,818.96465 403.55606,806.46563 420.43750,777.62500 C 420.46553,777.58411 420.73171,777.20688 421.09375,776.43750 C 421.47442,775.62853 421.92047,774.41117 422.21875,772.75000 C 422.81531,769.42767 422.81349,764.34886 420.46875,757.21875 z "
         id="path2365"
         sodipodi:nodetypes="ccccccccccccccccc" />
      <path
         style="fill:url(#linearGradient22473);fill-opacity:1.0000000;fill-rule:evenodd;stroke:none;stroke-width:1.0000000px;stroke-linecap:butt;stroke-linejoin:miter;stroke-opacity:1.0000000"
         d="M 306.56250,175.09375 C 242.23719,178.74090 178.98747,216.23119 150.46955,274.91504 C 132.84867,311.53664 124.47993,352.95123 129.42243,393.48403 C 132.91024,434.65331 148.79970,473.88014 170.73731,508.58267 C 195.32388,549.77826 219.34822,593.36795 224.53548,641.85331 C 227.88798,664.99589 227.30069,688.66278 230.68750,711.71875 C 241.90561,732.01563 265.87180,738.93227 287.13415,742.98018 C 326.12720,750.52830 369.12548,748.69270 403.83844,727.71295 C 417.39118,718.08349 420.69788,700.35121 419.90683,684.75590 C 421.86566,630.69639 440.38223,578.60717 466.28174,531.57421 C 489.74657,485.89444 517.17271,440.15714 523.05934,388.14451 C 526.97123,352.70694 525.28657,314.88767 508.66881,282.63576 C 487.26418,241.48839 448.38592,212.26027 406.80584,193.49243 C 375.49054,179.43483 340.83474,173.13746 306.56250,175.09375 z "
         id="path18630" />
      <path
         style="fill:#52705a;fill-opacity:0.93808949;fill-rule:evenodd;stroke:#000000;stroke-width:1.0000000px;stroke-linecap:butt;stroke-linejoin:miter;stroke-opacity:1.0000000"
         d="M 419.56250,737.12500 C 402.95670,765.49474 364.38659,777.96294 327.43750,777.68750 C 308.96296,777.54978 290.90298,774.23549 276.25000,768.15625 C 261.59702,762.07701 250.39445,753.23907 245.46875,742.15625 L 244.53125,742.56250 C 244.60299,742.72392 244.70696,742.87082 244.78125,743.03125 C 242.23888,750.13503 242.10164,755.01470 242.68750,758.12500 C 242.98682,759.71407 243.46534,760.85215 243.87500,761.59375 C 244.22495,762.22726 244.44477,762.46748 244.53125,762.56250 C 249.60541,773.97937 261.07320,782.96815 275.87500,789.15625 C 290.67680,795.34435 308.84793,798.73623 327.43750,798.93750 C 364.61664,799.34004 403.11824,786.20336 420.00000,757.36218 C 420.00000,757.36218 420.00000,757.36218 420.00000,757.36218 L 420.00000,757.36218 C 420.00000,757.36218 425.56964,747.39608 420.81250,737.15625 L 420.15625,737.46875 L 419.56250,737.12500 z "
         id="path2367"
         sodipodi:nodetypes="ccccccccccccccccc" />
      <path
         style="fill:#52705a;fill-opacity:0.93808949;fill-rule:evenodd;stroke:#000000;stroke-width:1.0000000px;stroke-linecap:butt;stroke-linejoin:miter;stroke-opacity:1.0000000"
         d="M 419.56250,842.09375 C 404.72013,866.83104 366.14467,879.37676 328.75000,880.00000 C 310.05266,880.31162 291.67369,877.64366 276.75000,872.12500 C 261.82631,866.60634 250.39024,858.22961 245.46875,847.15625 L 244.53125,847.56250 C 249.60976,858.98914 261.29869,867.48741 276.37500,873.06250 C 280.81272,874.70353 285.61158,876.01991 290.56250,877.15625 L 290.00000,877.37500 C 295.10672,890.14180 309.86111,896.62500 325.00000,896.62500 C 340.13889,896.62500 355.36203,890.32930 360.46875,877.56250 L 360.31250,877.50000 C 386.39401,872.19062 409.56144,860.75176 420.43750,842.62500 L 419.56250,842.09375 z "
         id="path2357"
         sodipodi:nodetypes="ccccccccccccc" />
      <path
         style="fill:#52705a;fill-opacity:0.93808949;fill-rule:evenodd;stroke:#000000;stroke-width:1.0000000px;stroke-linecap:butt;stroke-linejoin:miter;stroke-opacity:1.0000000"
         d="M 330.62500,718.75000 C 304.66544,718.43723 278.87202,719.81200 261.68750,723.50000 C 253.09524,725.34400 246.64607,727.72662 243.34375,730.90625 C 241.69259,732.49607 240.84372,734.36541 241.03125,736.37500 C 241.21427,738.33624 242.39771,740.38683 244.53125,742.56250 C 249.60555,753.97968 261.07286,762.92137 275.87500,769.06250 C 290.67714,775.20363 308.84795,778.54892 327.43750,778.68750 C 364.60047,778.96453 403.51301,766.47020 420.40625,737.65625 C 420.41358,737.64375 420.43018,737.63751 420.43750,737.62500 C 422.23985,736.37238 423.21329,735.06002 423.09375,733.68750 C 422.96959,732.26189 421.77900,731.06413 419.90625,729.96875 C 416.16074,727.77798 409.35996,725.88715 400.46875,724.28125 C 382.68634,721.06945 356.58456,719.06277 330.62500,718.75000 z "
         id="path2400"
         sodipodi:nodetypes="ccccccccccccc" />
      <path
         style="fill:#e0cd34;fill-opacity:0.69339621;fill-rule:evenodd;stroke:#000000;stroke-width:1.0000000px;stroke-linecap:butt;stroke-linejoin:miter;stroke-opacity:1.0000000"
         d="M 318.15625,168.56250 C 284.73499,169.85322 247.61695,179.25863 214.71875,199.93750 C 170.85448,227.50933 134.51727,275.15175 124.50000,350.28125 L 125.15625,350.37500 L 124.50000,350.34375 C 119.49388,437.95077 145.38134,480.67014 172.03125,524.43750 C 198.67806,568.19977 226.08980,613.00378 224.50000,705.31250 C 224.49981,705.32324 224.50019,705.33300 224.50000,705.34375 C 223.87509,714.21118 226.82141,722.15380 232.40625,729.03125 C 237.99784,735.91701 246.21837,741.78218 256.18750,746.53125 C 276.12576,756.02940 303.06493,761.18680 330.00000,761.50000 C 356.93507,761.81320 383.86170,757.25665 403.81250,747.28125 C 423.75329,737.31085 436.74765,721.82225 435.50000,700.37500 C 435.49937,700.36423 435.50063,700.35452 435.50000,700.34375 C 435.50787,622.98489 464.19072,570.58783 491.68750,519.96875 C 519.17975,469.35801 545.48961,420.48149 540.50000,350.37500 C 540.49849,350.35382 540.50151,350.33368 540.50000,350.31250 C 540.47553,287.65279 504.21037,242.70258 462.31250,213.37500 C 420.43407,184.06103 372.96722,170.28868 350.06250,169.87500 C 350.04246,169.87249 350.02005,169.87750 350.00000,169.87500 C 339.98890,168.62701 329.27441,168.13312 318.15625,168.56250 z M 225.50000,705.40625 L 225.00000,705.37500 C 225.00000,705.37500 224.88431,714.02587 225.50000,705.40625 z "
         id="path2327"
         sodipodi:nodetypes="cccccccccccccccccccccccc" />
      <path
         style="fill:#52705a;fill-opacity:0.93808949;fill-rule:evenodd;stroke:#000000;stroke-width:1.0000000px;stroke-linecap:butt;stroke-linejoin:miter;stroke-opacity:1.0000000"
         d="M 419.56250,802.12500 C 402.95990,830.48925 364.41761,841.70905 327.46875,840.18750 C 308.99432,839.42672 290.93761,835.48463 276.28125,828.93750 C 261.62489,822.39037 250.39584,813.24221 245.46875,802.15625 L 245.00000,802.37500 L 244.53125,802.18750 C 239.12595,816.87798 244.47786,827.45788 244.53125,827.56250 C 249.60555,838.97968 261.07286,847.92137 275.87500,854.06250 C 290.67714,860.20363 308.84795,863.54892 327.43750,863.68750 C 364.61660,863.96465 403.55606,851.46563 420.43750,822.62500 C 420.47672,822.57671 420.76500,822.19925 421.15625,821.43750 C 421.57178,820.62848 422.06213,819.41284 422.40625,817.75000 C 423.09449,814.42433 423.18966,809.35245 420.84375,802.21875 L 420.12500,802.43750 L 419.56250,802.12500 z "
         id="path2361"
         sodipodi:nodetypes="ccccccccccccccc" />
      <path
         style="fill:#52705a;fill-opacity:0.93808949;fill-rule:evenodd;stroke:#000000;stroke-width:1.0000000px;stroke-linecap:butt;stroke-linejoin:miter;stroke-opacity:1.0000000"
         d="M 419.56250,822.12500 C 402.95670,850.49474 364.38659,862.96294 327.43750,862.68750 C 308.96296,862.54978 290.90298,859.23549 276.25000,853.15625 C 261.59702,847.07701 250.39445,838.23907 245.46875,827.15625 L 244.53125,827.56250 C 244.60299,827.72392 244.70696,827.87082 244.78125,828.03125 C 242.23888,835.13503 242.10164,840.01470 242.68750,843.12500 C 242.98682,844.71407 243.46534,845.85215 243.87500,846.59375 C 244.22495,847.22726 244.44477,847.46748 244.53125,847.56250 C 249.60976,858.98914 261.29869,867.48741 276.37500,873.06250 C 291.45131,878.63759 309.94734,881.31338 328.75000,881.00000 C 366.35533,880.37324 405.27987,867.88771 420.43750,842.62500 L 420.00000,842.37500 L 420.43750,842.59375 C 420.43750,842.59375 425.55676,832.36351 420.43750,822.12500 L 420.00000,822.37500 L 419.56250,822.12500 z "
         id="path2359"
         sodipodi:nodetypes="ccccccccccccccccc" />
      <path
         style="fill:url(#linearGradient22475);fill-opacity:1.0000000;fill-rule:evenodd;stroke:none;stroke-width:1.0000000px;stroke-linecap:butt;stroke-linejoin:miter;stroke-opacity:1.0000000"
         d="M 295.34375,723.62500 C 278.65830,724.89577 260.83306,725.47657 246.00000,733.87500 C 244.71181,739.56651 251.06800,743.85184 253.36907,748.63800 C 268.68022,766.19412 293.09388,771.56524 315.26959,773.86773 C 346.11641,776.60752 379.56467,770.88351 403.98171,750.77116 C 409.57998,745.96191 414.34968,740.17379 418.25000,733.93750 C 407.20340,728.21280 394.04665,727.75936 381.86213,725.86696 C 353.17270,722.74457 324.15660,722.08687 295.34375,723.62500 z "
         id="path12435" />
      <path
         style="fill:#ac6f4c;fill-opacity:1.0000000;fill-rule:nonzero;stroke:none;stroke-width:1.0000000px;stroke-linecap:butt;stroke-linejoin:miter;stroke-opacity:1.0000000"
         id="path3335"
         d="M 245.48642,390.02950 C 244.90137,388.26528 245.64864,386.74288 246.49587,385.18910 C 248.46455,381.84870 251.65410,380.19249 255.35530,379.48050 C 260.48537,378.81648 264.47488,380.35104 268.07423,383.87569 C 271.00379,387.49375 270.61078,392.04334 268.98519,396.13798 C 266.54100,400.34828 262.19403,403.23842 257.41619,400.68422 C 253.00253,397.10829 257.48895,391.95974 260.42033,389.04687 C 267.50893,382.18826 276.83642,379.93956 286.42119,379.85657 C 292.89153,379.54456 298.59668,381.68112 301.62643,387.55009 C 303.14422,391.49213 301.41318,395.26281 298.71851,398.18135 C 295.54326,400.84457 290.58669,403.04345 287.22303,399.57603 C 284.26068,394.21937 284.59784,387.90363 286.79627,382.33583 C 290.09806,374.37643 297.56423,371.89339 305.58243,371.95354 C 314.37617,372.95487 320.20367,380.30252 323.50637,387.93634 C 325.73176,393.17881 326.59673,399.22350 324.63611,404.63403 C 321.46886,405.10439 322.03434,403.67771 322.78188,401.41615 C 324.09063,398.70311 326.26850,396.54931 328.59999,394.69489 C 331.94809,392.26828 336.21925,390.52210 339.76894,393.48689 C 343.50777,398.00875 340.51421,403.78744 336.40532,406.88325 C 328.57614,411.52663 320.93205,406.73579 318.04064,399.05914 C 315.49068,388.44850 322.43313,377.73198 331.98849,373.53029 C 343.34367,369.86948 355.85022,374.04478 363.56573,382.87464 C 369.31488,389.91175 370.04607,399.43905 361.31895,404.28823 C 352.43968,407.53811 345.43910,399.48406 345.18502,391.18439 C 346.21072,381.98529 356.41466,377.89136 364.59386,380.21759 C 370.04146,382.48929 372.26215,388.11757 370.08930,393.46516 C 365.06087,396.63869 365.92620,391.18693 368.37875,388.23130 C 373.92022,383.35705 381.18243,385.08398 381.04738,393.09950 C 380.07974,400.99114 372.29415,400.25918 375.52656,391.82399 C 377.98866,385.02713 388.51676,378.51668 393.34057,386.69790 C 398.56630,391.48827 389.43757,407.98627 384.42066,398.80200 C 381.76901,391.46010 384.78416,380.56595 392.94691,378.29113 C 399.05867,377.09699 400.29257,387.98700 394.20639,387.83494 C 394.97665,385.73777 396.50794,384.29706 398.49921,383.42508 C 404.55997,382.59078 407.75854,387.48424 407.48729,393.22417 C 405.37667,402.49312 395.00566,399.36504 400.90650,390.04838 C 405.05229,385.91615 413.68461,384.39822 418.74442,387.80773 C 414.69824,388.35342 419.20442,385.36373 420.31103,384.56564 L 422.10713,384.56564 C 420.18908,385.96084 419.30905,388.07073 416.87387,387.80773 C 412.61405,384.78486 406.37043,386.26376 402.62496,390.04838 C 397.46270,398.26142 402.69329,403.77303 405.72056,393.22417 C 405.96243,388.09525 401.48030,383.04379 400.34792,383.42508 C 398.36185,384.29468 396.79263,385.71622 396.07429,387.83494 C 395.50113,387.85161 394.92646,387.92962 394.35480,387.88496 C 393.52787,387.82034 395.55994,386.68263 395.87602,385.91577 C 397.17603,382.76173 394.42491,378.99321 394.75429,378.29113 C 386.53850,380.54835 383.41128,391.40568 386.18062,398.80200 C 390.08004,405.73510 394.49222,391.77504 391.58469,386.69790 C 387.18583,379.33830 380.18148,385.50556 377.27817,391.82399 C 374.51142,399.15425 377.32932,401.42300 379.28608,393.09950 C 379.40264,385.97195 375.22949,383.40646 370.17257,388.23130 C 368.61759,390.11814 366.47222,396.96637 368.26547,393.46516 C 370.49153,388.13890 368.27433,382.49080 362.83407,380.21759 C 356.32774,378.36155 347.65269,383.34392 346.93004,391.18439 C 347.12848,397.90170 352.81293,406.73350 359.56724,404.28823 C 368.30234,399.45443 367.58257,389.92411 361.84990,382.87464 C 355.00535,375.01161 343.92880,370.09955 333.66600,373.53029 C 324.10409,377.74102 317.19777,388.44865 319.78099,399.05914 C 322.29908,405.71936 328.18120,411.07286 334.64122,406.88325 C 338.75753,403.77864 341.69454,398.00027 337.94952,393.48689 C 335.27328,391.25922 334.86105,391.93496 330.41526,394.69489 C 328.09152,396.55025 325.92218,398.70285 324.62541,401.41615 C 323.90957,403.60757 324.67430,405.04127 322.77571,404.63403 C 324.89618,399.26993 323.98548,393.17755 321.77797,387.93634 C 318.46938,380.29418 312.63326,372.95255 303.82983,371.95354 C 297.62396,372.47324 291.19740,375.76364 288.55760,382.33583 C 286.36115,387.90310 286.03274,394.24108 289.03925,399.57603 C 291.51577,402.10782 292.49926,401.35311 296.91195,398.18135 C 299.60719,395.25511 301.32197,391.49786 299.80933,387.55009 C 297.44373,382.92219 293.32375,380.37799 288.14625,379.85657 C 278.56947,379.93901 269.24125,382.16814 262.17432,389.04687 C 259.24754,391.97439 254.84401,397.11676 259.23861,400.68422 C 261.58402,401.93953 264.33508,400.67365 267.18463,396.13798 C 268.81006,392.04238 269.19335,387.49187 266.26215,383.87569 C 263.22935,380.90217 258.95828,378.99899 257.16692,379.48050 C 253.47011,380.19235 250.28279,381.84822 248.32209,385.18910 C 247.47968,386.74683 246.74580,388.27402 247.36382,390.02950 L 245.48642,390.02950 z " />
      <path
         style="fill:#000000;fill-opacity:1.0000000;fill-rule:evenodd;stroke:none;stroke-width:1.0000000px;stroke-linecap:butt;stroke-linejoin:miter;stroke-opacity:1.0000000"
         d="M 260.15625,389.87500 L 260.00000,390.37500 L 259.50000,390.46875 C 277.00164,467.97599 287.00514,504.24158 292.62500,529.21875 C 298.24486,554.19592 299.50000,567.88782 299.50000,600.37500 L 300.50000,600.37500 C 300.50000,567.86218 299.25514,554.02283 293.62500,529.00000 C 288.01552,504.06897 278.03561,467.90723 260.65625,391.00000 C 264.86607,392.22241 273.91884,393.08782 286.06250,393.68750 C 298.73080,394.31309 314.36833,394.62500 330.00000,394.62500 C 345.63167,394.62500 361.26920,394.31309 373.93750,393.68750 C 386.08116,393.08782 395.13393,392.22241 399.34375,391.00000 C 374.49554,500.23053 364.50000,525.53430 364.50000,600.37500 L 365.50000,600.37500 C 365.50000,525.41944 375.49724,500.48088 400.50000,390.46875 L 400.00000,390.37500 L 399.84375,389.87500 C 396.26768,391.06702 386.51920,392.06309 373.87500,392.68750 C 361.23080,393.31191 345.61833,393.62500 330.00000,393.62500 C 314.38167,393.62500 298.76920,393.31190 286.12500,392.68750 C 273.48080,392.06310 263.73232,391.06702 260.15625,389.87500 z "
         id="path2347" />
      <path
         style="fill:url(#linearGradient22477);fill-opacity:1.0000000;fill-rule:evenodd;stroke:none;stroke-width:1.0000000px;stroke-linecap:butt;stroke-linejoin:miter;stroke-opacity:1.0000000"
         d="M 417.06250,744.25000 C 395.96035,770.11440 360.96472,779.52820 328.72197,779.42252 C 299.91166,779.31856 268.35940,772.86355 248.18750,750.68750 C 241.79495,750.29987 245.68397,758.63662 246.56250,762.31250 C 258.52969,783.32791 283.66860,791.30392 306.11391,795.14787 C 340.39599,799.65368 378.33510,794.78749 405.43750,771.68750 C 413.83561,763.85550 422.03096,753.98620 420.81596,741.69554 C 422.20390,736.50501 417.92992,744.05206 417.06250,744.25000 z "
         id="path13211" />
      <path
         style="fill:url(#linearGradient22479);fill-opacity:1.0000000;fill-rule:evenodd;stroke:none;stroke-width:1.0000000px;stroke-linecap:butt;stroke-linejoin:miter;stroke-opacity:1.0000000"
         d="M 417.84375,763.84375 C 400.37083,787.15470 370.43584,796.84129 342.44013,799.36129 C 312.58400,801.29873 280.26031,797.14164 255.87500,778.50000 C 251.90077,775.19900 248.43472,771.31818 245.68750,766.93750 C 240.71838,781.19056 253.14894,793.82661 264.31914,800.72204 C 291.25840,816.91335 324.53528,819.01934 355.03125,814.46875 C 379.91953,809.82784 406.22597,798.64753 419.25000,775.62500 C 420.78895,772.50016 421.31520,760.28532 418.39541,763.01105 L 417.84375,763.84375 z "
         id="path14000" />
      <path
         style="fill:url(#linearGradient22481);fill-opacity:1.0000000;fill-rule:evenodd;stroke:none;stroke-width:1.0000000px;stroke-linecap:butt;stroke-linejoin:miter;stroke-opacity:1.0000000"
         d="M 417.84375,783.34375 C 400.37673,806.70428 370.45515,816.44055 342.44369,819.07760 C 312.61190,821.07831 280.27726,817.10370 255.87500,798.50000 C 251.90077,795.19900 248.43472,791.31818 245.68750,786.93750 C 240.78314,800.95892 252.83996,813.48778 263.61225,820.62968 C 290.64891,838.08021 324.67033,841.70313 356.04387,837.68289 C 379.74120,833.97319 404.78914,824.11653 417.90625,802.84375 C 414.39067,800.34509 422.90113,798.67313 420.30339,791.96994 C 420.43301,789.97845 420.71070,776.88813 417.84375,783.34375 z "
         id="path14770" />
      <path
         style="fill:url(#linearGradient22483);fill-opacity:1.0000000;fill-rule:evenodd;stroke:none;stroke-width:1.0000000px;stroke-linecap:butt;stroke-linejoin:miter;stroke-opacity:1.0000000"
         d="M 412.06250,817.90625 C 387.05101,841.01277 350.78732,846.34016 317.99089,843.39626 C 292.63124,840.83190 265.98779,832.84926 248.15625,813.71875 C 244.42441,807.51450 246.51153,820.69289 247.34375,823.03125 C 253.21312,840.58206 271.85032,848.64203 288.09866,853.94662 C 317.46660,862.38607 349.90004,861.41519 378.52205,850.75360 C 394.52560,844.46229 410.53833,833.85779 417.89202,817.88048 C 420.85091,806.56599 416.75320,812.44026 412.06250,817.90625 z "
         id="path15540" />
      <path
         style="fill:url(#linearGradient22485);fill-opacity:1.0000000;fill-rule:evenodd;stroke:none;stroke-width:1.0000000px;stroke-linecap:butt;stroke-linejoin:miter;stroke-opacity:1.0000000"
         d="M 412.25000,837.78125 C 386.22648,862.29198 348.17742,868.82950 313.61539,865.80335 C 290.15871,863.73664 265.58391,856.51572 248.71875,839.31250 C 244.33391,832.95716 247.68499,847.62905 250.23727,849.70787 C 261.30830,865.42212 281.32907,871.21187 299.29344,874.78868 C 331.27317,879.55448 365.56973,876.47207 394.43883,861.15286 C 403.40951,855.76841 412.57301,848.98519 416.66014,839.27712 C 419.84201,834.63234 418.70771,827.41228 414.43395,835.27417 C 413.70596,836.10986 412.97798,836.94556 412.25000,837.78125 z "
         id="path16314" />
      <path
         style="fill:url(#linearGradient22487);fill-opacity:1.0000000;fill-rule:evenodd;stroke:none;stroke-width:1.0000000px;stroke-linecap:butt;stroke-linejoin:miter;stroke-opacity:1.0000000"
         d="M 295.90625,884.75000 C 311.50348,901.28851 340.47389,899.90953 356.12160,884.02857 C 364.97980,878.44173 350.16048,882.72286 346.13968,882.51933 C 328.07347,885.00514 309.78378,883.56478 291.87500,880.56250 C 293.21875,881.95833 294.56250,883.35417 295.90625,884.75000 z "
         id="path17852" />
      <path
         style="fill:#dab952;fill-opacity:0.99528301;fill-rule:evenodd;stroke:#6f6c38;stroke-width:1.0000000px;stroke-linecap:butt;stroke-linejoin:miter;stroke-opacity:0.69411767"
         d="M 304.50000,465.43750 C 309.50407,495.46194 315.75445,519.23198 317.00000,540.40625 C 318.24555,561.58052 314.52775,580.15050 299.59375,600.06250 L 300.06250,600.40625 L 299.53125,600.18750 C 290.93105,621.60453 292.88835,637.76839 300.21875,648.56250 C 307.54915,659.35661 320.18680,664.73449 332.78125,664.71875 C 345.37570,664.70301 357.98469,659.30354 365.21875,648.50000 C 372.45281,637.69646 374.26163,621.51038 365.46875,600.15625 L 365.00000,600.34375 L 365.25000,599.93750 C 354.09484,593.74019 349.63626,583.41511 346.15625,573.59375 C 342.67624,563.77239 342.19031,554.43226 343.12500,542.28125 C 344.99439,517.97924 350.50000,490.47500 350.50000,465.37500 L 325.00000,467.36218 L 304.50000,465.43750 z "
         id="path2404"
         sodipodi:nodetypes="cccccccccccccccc" />
    </g>
  </g>
</svg>
