<?xml version="1.0" encoding="UTF-8" standalone="no"?>
<!-- Created with Inkscape (http://www.inkscape.org/) -->
<svg
   xmlns:dc="http://purl.org/dc/elements/1.1/"
   xmlns:cc="http://web.resource.org/cc/"
   xmlns:rdf="http://www.w3.org/1999/02/22-rdf-syntax-ns#"
   xmlns:svg="http://www.w3.org/2000/svg"
   xmlns="http://www.w3.org/2000/svg"
   xmlns:xlink="http://www.w3.org/1999/xlink"
   xmlns:sodipodi="http://inkscape.sourceforge.net/DTD/sodipodi-0.dtd"
   xmlns:inkscape="http://www.inkscape.org/namespaces/inkscape"
   inkscape:export-ydpi="90.000000"
   inkscape:export-xdpi="90.000000"
   inkscape:export-filename="C:\Documents and Settings\test\Desktop\bulbman.png"
   sodipodi:docname="bulbman.svg"
   sodipodi:docbase="C:\Documents and Settings\test\Desktop"
   inkscape:version="0.40+cvs"
   sodipodi:version="0.32"
   id="svg2"
   height="841.88975pt"
   width="595.27559pt">
  <defs
     id="defs3">
    <linearGradient
       id="linearGradient9894">
      <stop
         id="stop9896"
         offset="0.00000000"
         style="stop-color:#eadf57;stop-opacity:1.0000000;" />
      <stop
         id="stop9898"
         offset="1.0000000"
         style="stop-color:#f8f2b5;stop-opacity:1.0000000;" />
    </linearGradient>
    <linearGradient
       id="linearGradient7610">
      <stop
         id="stop7612"
         offset="0.00000000"
         style="stop-color:#d1be39;stop-opacity:1.0000000;" />
      <stop
         id="stop7614"
         offset="1.0000000"
         style="stop-color:#cdcdcd;stop-opacity:1.0000000;" />
    </linearGradient>
    <linearGradient
       id="linearGradient6086">
      <stop
         id="stop6088"
         offset="0.00000000"
         style="stop-color:#cdaa92;stop-opacity:1.0000000;" />
      <stop
         id="stop6090"
         offset="1.0000000"
         style="stop-color:#8b8b8b;stop-opacity:1.0000000;" />
    </linearGradient>
    <linearGradient
       gradientUnits="userSpaceOnUse"
       y2="921.20056"
       x2="507.05368"
       y1="632.05096"
       x1="224.19350"
       gradientTransform="scale(0.989089,1.011032)"
       id="linearGradient6092"
       xlink:href="#linearGradient6086"
       inkscape:collect="always" />
    <radialGradient
       r="233.16490"
       fy="253.42249"
       fx="287.50479"
       cy="257.06558"
       cx="295.02609"
       gradientTransform="scale(0.977459,1.023060)"
       gradientUnits="userSpaceOnUse"
       id="radialGradient15973"
       xlink:href="#linearGradient9894"
       inkscape:collect="always" />
  </defs>
  <sodipodi:namedview
     inkscape:window-y="-4"
     inkscape:window-x="-4"
     inkscape:window-height="808"
     inkscape:window-width="1152"
     inkscape:current-layer="layer1"
     inkscape:document-units="px"
     inkscape:cy="526.18109"
     inkscape:cx="372.04726"
     inkscape:zoom="0.59770297"
     inkscape:pageshadow="2"
     inkscape:pageopacity="0.0"
     borderopacity="1.0"
     bordercolor="#666666"
     pagecolor="#ffffff"
     id="base" />
  <metadata
     id="metadata4">
    <rdf:RDF
       id="RDF5">
      <cc:Work
         id="Work6"
         rdf:about="">
        <dc:format
           id="format7">image/svg+xml</dc:format>
        <dc:type
           rdf:resource="http://purl.org/dc/dcmitype/StillImage"
           id="type9" />
        <dc:title
           id="title19109">Bulbman</dc:title>
        <dc:date
           id="date19111">30-06-2005</dc:date>
        <dc:creator
           id="creator19113">
          <cc:Agent
             id="Agent19115">
            <dc:title
               id="title19117">JID michalus@jabber.autocom.pl</dc:title>
          </cc:Agent>
        </dc:creator>
        <dc:publisher
           id="publisher19119">
          <cc:Agent
             id="Agent19121">
            <dc:title
               id="title19123">www.tvknet.pl/michalus/jabber</dc:title>
          </cc:Agent>
        </dc:publisher>
      </cc:Work>
    </rdf:RDF>
  </metadata>
  <g
     sodipodi:insensitive="true"
     style="display:inline"
     inkscape:label="slad"
     id="layer4"
     inkscape:groupmode="layer">
    <g
       style="fill:#c38d80;fill-opacity:1.0000000"
       transform="matrix(0.973691,-0.227872,0.227872,0.973691,259.5463,2.040359)"
       id="g2266">
      <path
         d="M -299.45035,929.57287 C -303.39109,931.10533 -272.73395,916.14906 -265.56370,912.40102 C -242.83203,900.40359 -220.55479,887.57677 -198.32305,874.68477 C -180.68198,864.01175 -162.61974,854.06680 -144.56648,844.11586 C -139.67142,841.48036 -134.80615,838.78993 -129.93208,836.11590 L -123.29348,848.74116 C -128.20360,851.24293 -133.12095,853.73078 -137.98612,856.31978 C -156.01734,866.09196 -173.70780,876.47460 -191.66232,886.38672 C -214.20519,898.84483 -237.01510,910.81729 -259.49040,923.39870 C -272.89778,931.21153 -285.97261,940.74434 -299.45035,947.61372 L -299.45035,929.57287 z "
         id="path2262"
         style="fill-rule:nonzero;stroke:none;stroke-width:1.0000000px;stroke-linecap:butt;stroke-linejoin:miter;stroke-opacity:1.0000000" />
      <path
         d="M -306.14264,805.76556 C -293.00704,812.70863 -281.43384,824.61064 -269.65533,834.26733 C -247.44701,852.55003 -224.37583,869.77668 -200.55176,885.89602 C -178.66459,900.13804 -156.58627,914.14717 -134.02935,927.31317 C -120.45605,935.34488 -106.26216,942.21408 -92.206740,949.33785 L -98.860766,962.12992 C -113.01485,954.59771 -127.19801,947.11594 -140.78510,938.57502 C -163.24361,924.73910 -185.75008,910.93678 -207.28068,895.67518 C -231.07199,879.03096 -254.70765,862.15315 -277.85055,844.61462 C -284.22864,839.73795 -310.81394,822.07111 -306.14264,823.80641 L -306.14264,805.76556 z "
         id="path2264"
         style="fill-rule:nonzero;stroke:none;stroke-width:1.0000000px;stroke-linecap:butt;stroke-linejoin:miter;stroke-opacity:1.0000000" />
    </g>
    <path
       id="path1470"
       d="M 302.82599,951.97786 C 360.61302,1000.4491 437.31294,1025.5328 512.46614,1022.7842 C 546.06141,1019.8881 583.43282,1002.1942 594.37552,968.08196 C 598.32479,941.42678 569.50540,927.77418 550.17795,917.01636 C 515.75187,897.53688 475.63915,884.92488 449.39538,853.71639 C 435.44846,826.05732 464.40912,792.17791 493.21027,793.52622 C 530.88915,789.37914 570.10758,781.61867 602.11905,760.24563 C 620.77518,749.05110 631.82481,722.97647 614.08938,705.38151 C 598.24161,686.42820 569.26466,672.86119 570.91459,644.27128 C 569.88169,617.68185 595.03213,604.40429 616.94163,598.43184 C 651.14949,585.85658 691.84045,581.62611 717.15733,552.74958 C 722.17698,546.35461 725.76913,538.58208 726.11316,530.36378"
       style="fill:none;fill-opacity:0.75000000;fill-rule:evenodd;stroke:#c3c3c3;stroke-width:20.000000;stroke-linecap:round;stroke-linejoin:miter;stroke-miterlimit:4.0000000;stroke-dasharray:20.000000 60.000000 ;stroke-dashoffset:0.00000000;stroke-opacity:1.0000000" />
    <text
       transform="translate(-53.53830,3.346144)"
       sodipodi:linespacing="100%"
       id="text16752"
       style="font-size:120.34258;font-style:normal;font-variant:normal;font-weight:normal;font-stretch:normal;fill:#000000;fill-opacity:1.0000000;stroke:none;stroke-width:1.0000000px;stroke-linecap:butt;stroke-linejoin:miter;stroke-opacity:1.0000000;font-family:Bitstream Vera Sans;text-anchor:start;writing-mode:lr-tb"
       xml:space="preserve"><textPath
         id="textPath16758"
         xlink:href="#path1470"><tspan
   id="tspan16756">J a b b e r</tspan></textPath></text>
  </g>
  <g
     sodipodi:insensitive="true"
     style="display:inline"
     inkscape:label="reka tylnia"
     id="layer3"
     inkscape:groupmode="layer">
    <path
       sodipodi:nodetypes="cccccscssscccccc"
       id="path1462"
       d="M 373.70465,463.15220 C 410.64360,468.59120 388.17824,512.05982 384.84965,536.09270 C 379.08133,563.69622 371.64473,616.55953 333.44881,602.59781 C 305.64455,595.28100 279.38519,576.32160 250.78427,573.84099 C 237.38001,573.35436 212.08425,625.35143 216.86763,591.47771 C 221.42276,579.06611 238.64227,568.18844 235.43692,569.52969 C 232.23159,570.87093 212.29922,587.99911 203.24465,589.63087 C 199.32407,578.26644 223.99046,565.39885 224.82030,560.05015 C 225.65013,554.70145 199.51192,578.76580 196.92411,575.07386 C 192.11147,568.20785 222.53027,548.73649 220.29477,547.63288 C 218.05927,546.52928 184.72236,566.34687 181.37623,561.57729 C 179.43283,545.35883 236.51205,536.78074 225.17378,535.26801 C 201.27100,537.27754 165.24298,488.15347 189.03520,499.98407 C 208.71113,518.15832 236.71283,520.73830 259.10562,535.21125 C 279.42031,547.41130 322.13907,560.37172 326.57812,523.13412 C 327.22953,521.41774 342.91625,461.54047 373.70465,463.15220 z "
       style="fill:#dcb479;fill-opacity:1.0000000;fill-rule:evenodd;stroke:#cf7e46;stroke-width:0.75086355px;stroke-linecap:butt;stroke-linejoin:miter;stroke-opacity:1.0000000" />
    <path
       d="M 250.16780,529.95118 C 250.08755,529.99678 249.27328,530.70694 248.97117,530.99379 C 247.83282,532.12324 247.00035,533.50143 246.17051,534.86124 C 244.92624,536.90350 243.76034,538.99356 242.69374,541.13386 C 241.59283,543.43292 240.91073,545.88729 240.56223,548.40515 C 240.32293,550.83723 240.32292,553.28484 240.30467,555.72638 C 240.23259,557.99517 240.47324,560.24672 240.98214,562.45481 C 241.53362,564.56531 242.31237,566.60750 243.20100,568.59692 C 243.83530,570.10208 244.78518,571.41182 245.82997,572.65159 C 246.58071,573.56541 247.47801,574.30274 248.45455,574.95664 L 248.10144,575.50166 C 247.08227,574.80715 246.14141,574.02857 245.35242,573.07122 C 244.27447,571.77819 243.29219,570.41336 242.64924,568.84348 C 241.75931,566.81569 240.98782,564.73364 240.41951,562.59147 C 239.90419,560.33645 239.64593,558.03737 239.71708,555.72075 C 239.74941,553.25821 239.77072,550.78994 240.00639,548.33692 C 240.36546,545.75684 241.05828,543.24194 242.18314,540.88374 C 243.25985,538.73040 244.42536,536.61999 245.66602,534.55672 C 246.51227,533.14935 247.34107,531.70773 248.49778,530.52649 C 249.00224,530.03404 249.50084,529.46476 250.16780,529.21823 L 250.16780,529.95118 z "
       id="path18339"
       style="fill:#cf7e46;fill-opacity:1.0000000;fill-rule:nonzero;stroke:none;stroke-width:1.0000000px;stroke-linecap:butt;stroke-linejoin:miter;stroke-opacity:1.0000000" />
    <path
       d="M 266.03014,538.56217 C 265.78749,538.65876 264.78280,539.62179 264.36664,540.07217 C 262.80233,542.02895 261.88253,544.39234 261.01324,546.71624 C 259.98105,549.53475 259.29818,552.45530 258.72107,555.39501 C 258.24301,557.94305 257.86805,560.51027 257.65235,563.09389 C 257.48590,565.31532 257.42889,567.54195 257.45106,569.76887 C 257.40738,571.43085 257.75672,573.00234 258.36244,574.53488 C 258.40222,574.62297 258.44199,574.71106 258.48176,574.79915 L 257.89597,575.05989 C 257.85493,574.96641 257.81388,574.87294 257.77284,574.77946 C 257.15422,573.16937 256.78826,571.51508 256.84591,569.77586 C 256.84381,567.53143 256.90997,565.28804 257.09155,563.05017 C 257.30803,560.44502 257.68332,557.85573 258.18614,555.29022 C 258.78627,552.32747 259.47236,549.38030 260.51737,546.53721 C 261.39522,544.14292 262.33015,541.71026 263.89045,539.66654 C 264.50524,538.95480 265.14437,538.18441 266.03014,537.82921 L 266.03014,538.56217 z "
       id="path18341"
       style="fill:#cf7e46;fill-opacity:1.0000000;fill-rule:nonzero;stroke:none;stroke-width:1.0000000px;stroke-linecap:butt;stroke-linejoin:miter;stroke-opacity:1.0000000" />
    <path
       d="M 279.99691,543.63821 C 279.01990,545.16273 277.95043,546.67470 277.06491,548.28041 C 275.50608,551.14668 274.37715,554.21645 273.30960,557.29153 C 272.43697,559.88274 271.74473,562.53049 271.19816,565.20840 C 270.74293,567.44109 270.51807,569.70818 270.34930,571.97752 C 270.21097,573.81757 270.12703,575.66055 270.21860,577.50444 C 270.23230,577.82154 270.26698,578.13713 270.29116,578.45339 L 269.65611,578.50807 C 269.63453,578.18431 269.60317,577.86109 269.59136,577.53665 C 269.51800,575.66637 269.60533,573.79839 269.76209,571.93372 C 269.94476,569.64198 270.15955,567.34834 270.64037,565.09629 C 271.20546,562.39721 271.91250,559.72854 272.81549,557.12143 C 273.89102,554.01842 275.05114,550.92915 276.61165,548.03264 C 277.32722,546.71211 278.60859,544.49057 279.26396,543.63821 L 279.99691,543.63821 z "
       id="path18343"
       style="fill:#cf7e46;fill-opacity:1.0000000;fill-rule:nonzero;stroke:none;stroke-width:1.0000000px;stroke-linecap:butt;stroke-linejoin:miter;stroke-opacity:1.0000000" />
    <path
       d="M 292.91276,546.36146 C 292.61799,547.11062 292.38523,547.88382 292.18573,548.66796 C 291.76518,550.63837 291.45926,552.63177 291.14419,554.62128 C 290.76693,557.14285 290.26808,559.64331 289.79901,562.14872 C 289.35560,564.34919 288.97628,566.55957 288.71138,568.78861 C 288.48165,570.82483 288.37252,572.87179 288.28762,574.91836 C 288.21700,576.68182 288.18570,578.44640 288.16118,580.21100 C 288.14178,581.69338 288.09749,583.17462 288.20964,584.65347 C 288.25104,585.08908 288.31323,585.52206 288.36984,585.95578 L 287.72051,586.04130 C 287.66557,585.59915 287.60569,585.15755 287.56425,584.71382 C 287.46449,583.21124 287.51484,581.70679 287.53622,580.20149 C 287.56765,578.43160 287.60599,576.66155 287.68237,574.89297 C 287.77592,572.83237 287.89324,570.77132 288.12582,568.72105 C 288.39571,566.47764 288.77514,564.25172 289.24182,562.04060 C 289.72938,559.54531 290.21524,557.04922 290.56804,554.53038 C 290.87431,552.52581 291.19288,550.52150 291.56572,548.52852 C 291.70972,547.89452 291.98167,546.75290 292.18106,546.36146 L 292.91276,546.36146 z "
       id="path18345"
       style="fill:#cf7e46;fill-opacity:1.0000000;fill-rule:nonzero;stroke:none;stroke-width:1.0000000px;stroke-linecap:butt;stroke-linejoin:miter;stroke-opacity:1.0000000" />
    <path
       id="path18347"
       d="M 307.41611,546.35748 C 304.66952,553.98155 303.19778,562.09880 303.54355,570.21372 C 303.77722,577.02500 305.04265,583.75719 305.20600,590.57290 C 305.81402,591.15447 305.25016,593.98075 304.76340,592.05847 C 304.29210,586.86538 304.17944,581.64135 303.45448,576.47161 C 302.56141,567.73002 303.04303,558.76774 305.58532,550.32376 C 306.47566,549.23952 305.60909,546.50586 307.41611,546.35748 z "
       style="fill:#cf7e46;fill-opacity:1.0000000;fill-rule:nonzero;stroke:none;stroke-width:1.0000000px;stroke-linecap:butt;stroke-linejoin:miter;stroke-opacity:1.0000000" />
  </g>
  <g
     style="display:inline"
     id="layer1"
     inkscape:groupmode="layer"
     inkscape:label="tlow">
    <path
       id="path5326"
       d="M 478.84375,538.21875 C 478.24637,538.80276 477.69899,539.42256 477.09375,540.00000 C 471.36681,543.40557 465.54147,546.56063 459.65625,549.46875 C 453.77103,552.37687 447.83879,555.06438 441.81250,557.50000 C 435.78621,559.93562 429.68140,562.13694 423.53125,564.12500 C 417.38110,566.11306 411.16306,567.87205 404.90625,569.43750 C 398.64944,571.00295 392.34626,572.36347 386.00000,573.53125 C 379.65374,574.69903 373.26225,575.67369 366.84375,576.46875 C 360.42525,577.26381 353.97353,577.89646 347.50000,578.34375 C 341.57705,578.75300 335.64273,578.98689 329.68750,579.12500 C 331.15543,581.07435 353.10552,603.41768 344.15625,615.78125 C 342.78778,617.67182 340.75016,619.34170 337.75000,620.65625 C 310.94697,623.51796 284.02487,627.77832 257.03125,629.68750 C 230.19362,626.01042 201.50866,640.98048 191.03125,666.34375 C 180.26593,706.39266 195.67006,748.04291 212.68750,784.15625 C 224.46713,808.49699 241.90492,830.81647 244.56250,858.71875 C 237.41284,884.86620 285.82628,859.86445 266.25000,844.00000 C 252.26257,832.66473 258.72020,801.09902 256.65625,785.75000 C 255.79600,769.04965 248.52781,750.53813 251.62500,735.25000 C 269.48212,723.90837 291.77124,731.51518 311.53125,729.71875 C 338.03484,732.14841 369.50770,725.83960 390.40625,746.56250 C 404.72174,775.45471 419.54623,804.09209 433.12500,833.34375 C 448.05525,871.04696 464.67713,908.12952 484.21875,943.71875 C 480.44504,968.64962 523.56719,963.96043 510.62500,941.31250 C 509.95089,893.77355 504.12274,846.50051 502.03125,799.03125 C 495.51762,758.40978 525.91647,651.94945 525.03125,637.31250 C 524.73937,630.25318 523.19543,622.77815 520.81250,615.34375 C 515.29659,598.13485 504.77295,581.13445 491.12500,569.90625 C 473.39749,556.81234 479.73930,553.51023 478.84375,538.21875 z "
       style="fill:url(#linearGradient6092);fill-opacity:1.0000000;fill-rule:evenodd;stroke:#949494;stroke-width:2.0599999;stroke-linecap:butt;stroke-linejoin:miter;stroke-miterlimit:4.0000000;stroke-opacity:1.0000000" />
    <path
       id="path1291"
       d="M 329.68750,579.12500 C 381.50973,577.80507 435.03167,566.80426 478.84375,538.21875 C 472.95984,516.50905 460.11638,494.95704 459.67065,471.48419 C 468.89677,410.84434 490.36681,347.82735 470.66640,286.95546 C 452.03927,218.78190 407.07391,156.79846 343.41622,124.40901 C 305.95192,100.14949 259.95417,89.790935 215.82362,97.470566 C 176.17010,100.83882 135.35829,106.86468 101.41161,129.28028 C 53.573985,158.05700 16.859973,213.10547 25.435985,270.61112 C 31.582487,338.26988 68.454465,400.48827 120.06068,443.69837 C 166.16863,486.82971 227.02473,508.13444 285.35793,528.96807 C 306.55525,538.89781 316.37972,561.37716 329.68750,579.12500 z "
       style="fill:url(#radialGradient15973);fill-opacity:1.0000000;fill-rule:evenodd;stroke:#af9515;stroke-width:1.3640620px;stroke-linecap:butt;stroke-linejoin:miter;stroke-opacity:1.0000000" />
    <g
       style="fill:#c9ba8d;fill-opacity:0.52390850"
       transform="translate(6.692285,-11.71150)"
       id="g15985">
      <path
         d="M 359.68093,571.17256 C 348.37705,568.24011 345.80358,556.06064 341.29401,546.36330 C 328.80028,518.23314 314.27620,491.09919 297.72472,465.15142 C 275.77248,429.55228 248.65138,397.89174 218.60119,368.95040 C 203.49253,354.64835 187.52691,341.29309 171.41292,328.14791 L 177.98589,320.36602 C 193.78453,334.17666 209.47028,348.12082 224.78105,362.47278 C 255.61211,391.61359 283.44512,423.74962 306.08499,459.72640 C 323.22019,485.69491 339.02636,512.49829 353.94402,539.79708 C 355.89681,543.16262 368.56369,559.19881 359.68093,553.13171 L 359.68093,571.17256 z "
         id="path15975"
         style="fill-rule:nonzero;stroke:none;stroke-width:1.0000000px;stroke-linecap:butt;stroke-linejoin:miter;stroke-opacity:1.0000000" />
      <path
         d="M 374.11303,553.75727 C 375.88652,561.90777 367.77691,537.17286 366.73202,533.99058 C 357.50721,501.79059 348.96464,469.39016 339.86641,437.14573 C 328.89949,396.43979 316.95904,356.05329 302.24940,316.53247 C 288.97538,281.77956 274.20499,247.59898 258.46990,213.89189 L 268.68027,209.19862 C 284.13557,243.34684 298.16451,278.09836 310.62512,313.45839 C 325.04351,353.29975 338.73815,393.43098 349.44243,434.45309 C 358.38383,466.36317 367.31649,498.41323 380.05933,529.05800 C 383.78881,537.51519 389.00514,545.30374 392.15387,553.75727 L 374.11303,553.75727 z "
         id="path15977"
         style="fill-rule:nonzero;stroke:none;stroke-width:1.0000000px;stroke-linecap:butt;stroke-linejoin:miter;stroke-opacity:1.0000000" />
      <path
         d="M 137.16238,371.55296 C 130.86819,366.46888 131.91966,359.55307 136.08757,352.96383 C 146.84795,343.55769 161.85492,343.45486 173.25277,351.59146 C 181.20774,360.37057 175.63420,368.40020 165.13123,363.76261 C 156.03609,355.56488 153.28218,344.88971 155.16048,333.19906 C 159.38202,323.11954 166.93027,322.84817 176.01772,326.13103 C 182.01313,335.51326 171.53371,331.72203 166.84387,326.78246 C 158.28651,314.81902 163.53481,306.00333 175.80850,300.41838 C 189.63390,295.73976 202.55957,300.16291 213.98122,308.13585 C 223.12553,317.23714 215.74817,321.42044 205.70714,319.19558 C 193.25334,313.50630 185.60519,302.12337 183.82033,288.71297 C 184.25178,276.11848 190.77910,270.34006 202.93765,273.09206 C 214.56860,281.96645 201.17725,281.97970 193.68956,275.48252 C 184.06121,264.30587 181.85031,250.09637 197.66030,244.80581 C 213.19170,243.64869 226.44167,251.72774 237.87179,261.39045 C 240.01460,271.99858 234.03705,258.51085 233.68824,251.65110 C 234.79441,242.56145 244.67998,237.36001 243.43263,248.64426 C 230.94373,252.68322 218.81194,243.43100 222.61318,230.26688 C 232.35558,217.96094 247.27345,219.41573 259.67197,226.26758 C 263.29153,241.82601 250.66149,227.18183 248.02917,218.78227 C 244.63257,203.67533 251.02503,193.69031 266.39377,194.41910 C 275.99521,196.96369 275.13551,211.66187 270.72381,201.42293 C 278.32616,189.04127 303.44948,202.76629 315.50699,205.57543 C 318.33209,206.23801 321.20936,206.61356 324.06055,207.13263 L 323.58548,209.88042 C 322.73028,209.71938 315.67564,208.52603 314.91914,208.24850 C 302.48306,205.31669 284.60504,196.29767 274.11744,201.56618 C 271.21942,200.34616 266.94506,200.36995 265.59035,197.53239 C 252.62907,196.59828 248.22439,205.70205 250.98168,217.97525 C 251.67163,220.13377 258.90240,235.23122 257.72918,228.83114 C 246.85017,222.43018 234.60939,221.60911 225.49667,231.57799 C 223.41371,241.69774 230.84630,247.79593 241.07028,246.18509 C 239.44542,247.87255 237.28281,249.54021 236.91661,251.85400 C 237.20269,258.66401 242.51629,265.82238 235.63837,263.78003 C 225.23514,254.47765 212.88547,246.70219 198.38397,247.76124 C 184.87807,252.22850 188.25467,263.89149 195.87385,273.22758 C 198.69493,275.36990 210.25291,281.78886 201.80581,276.16650 C 191.97705,274.40972 187.52263,277.93874 186.96445,288.51489 C 189.10527,300.58833 194.93686,311.02105 206.67693,316.13428 C 213.49542,317.62352 217.97224,317.42422 211.93956,310.60905 C 201.58268,303.08606 189.64722,298.99020 176.95391,303.26912 C 166.69421,307.95571 162.08079,314.62884 169.37209,324.74947 C 170.32565,325.66398 177.22850,331.53814 174.42150,329.10637 C 167.16231,326.30700 161.99824,326.39439 158.25991,334.10588 C 156.45999,344.36229 158.97340,353.86722 166.96478,361.04768 C 173.77803,363.17343 176.13274,360.66395 171.20942,354.01909 C 160.66291,347.22446 148.76211,346.69756 138.59127,354.90592 C 136.11317,359.55840 136.16444,366.28922 137.16238,367.94479 L 137.16238,371.55296 z "
         id="path15983"
         style="fill-rule:nonzero;stroke:none;stroke-width:1.0000000px;stroke-linecap:butt;stroke-linejoin:miter;stroke-opacity:1.0000000" />
    </g>
    <path
       d="M 256.07962,785.80597 C 257.95187,786.87976 257.92689,788.94829 258.29034,791.25029 C 258.89452,794.70440 258.62531,798.09328 257.86671,801.46119 C 256.78740,805.30781 254.48747,807.34636 251.45052,808.96913 C 247.16026,810.97255 242.63642,810.51995 238.20957,809.47276 C 232.88628,807.94759 228.05718,804.98973 223.49997,801.53082 C 219.35239,798.18656 215.76868,794.04786 212.70529,789.40598 C 210.90940,786.58868 209.53424,783.46634 208.41793,780.22202 L 210.43997,779.33509 C 211.51816,782.35057 212.71397,785.31435 214.41552,787.94096 C 217.30056,792.39589 220.67821,796.38442 224.63614,799.57012 C 228.96920,802.88209 233.57635,805.70809 238.65635,807.12918 C 242.67036,808.04422 246.74075,808.46368 250.61354,806.59506 C 253.03345,805.27009 254.81598,803.69464 255.71375,800.63555 C 256.33562,797.66887 256.64181,794.73865 256.03633,791.70312 C 255.86458,790.76513 254.60941,787.25456 256.07962,788.71512 L 256.07962,785.80597 z "
       id="path16769"
       style="fill:#000000;fill-opacity:1.0000000;fill-rule:nonzero;stroke:none;stroke-width:1.0000000px;stroke-linecap:butt;stroke-linejoin:miter;stroke-opacity:1.0000000" />
    <path
       d="M 253.07265,743.42612 C 253.16479,743.96273 253.25866,746.38161 253.30486,747.51696 C 253.48756,750.86884 252.04839,752.93391 249.74268,755.03044 C 246.75454,756.98909 243.25460,757.31600 239.80799,757.60438 C 234.99183,757.97504 230.24837,757.12726 225.62892,755.79200 C 220.74750,754.30163 216.36617,751.65317 212.24807,748.62772 C 207.69040,745.08812 203.91238,740.63697 200.28708,736.12909 C 196.66933,731.63187 193.62363,726.69899 190.62908,721.75171 C 189.49174,719.89013 188.51473,717.93384 187.53925,715.97963 L 189.69809,714.86890 C 190.62457,716.76845 191.55557,718.66809 192.63932,720.47960 C 195.54376,725.35866 198.54038,730.19782 202.06666,734.63202 C 205.57498,738.97272 209.22229,743.26150 213.65159,746.63774 C 217.54974,749.49982 221.68416,752.01587 226.30723,753.42265 C 230.66018,754.67550 235.11798,755.47641 239.65465,755.08299 C 242.61728,754.78609 245.63459,754.48421 248.22279,752.83925 C 249.85924,751.28949 250.84892,750.04909 250.68984,747.58670 C 250.59620,746.19369 250.54772,744.79282 250.25034,743.42612 L 253.07265,743.42612 z "
       id="path16771"
       style="fill:#000000;fill-opacity:1.0000000;fill-rule:nonzero;stroke:none;stroke-width:1.0000000px;stroke-linecap:butt;stroke-linejoin:miter;stroke-opacity:1.0000000" />
    <path
       d="M 277.58505,729.58174 C 275.28353,731.12544 272.87359,731.45141 270.16790,731.17772 C 262.37110,729.22529 256.15300,723.46675 250.63655,717.79123 C 243.67688,710.20583 237.70087,701.73656 232.30679,692.94142 C 227.25128,684.92685 223.21913,676.36874 220.09928,667.40272 C 217.65158,660.01681 216.07784,652.38922 215.36986,644.63510 C 215.16568,641.92155 215.14677,639.20130 215.17608,636.48197 L 217.67003,636.54325 C 217.61738,639.18244 217.56565,641.82253 217.74030,644.45956 C 218.29191,652.03629 219.76308,659.48690 222.11890,666.70379 C 225.14197,675.53129 229.11963,683.93658 234.02851,691.84779 C 239.31424,700.52219 245.16644,708.91006 252.10561,716.29889 C 257.36282,721.49597 263.08395,727.04118 270.47873,728.63269 C 272.16292,728.67500 274.65760,728.31072 275.52943,727.48639 L 277.58505,729.58174 z "
       id="path16773"
       style="fill:#000000;fill-opacity:1.0000000;fill-rule:nonzero;stroke:none;stroke-width:1.0000000px;stroke-linecap:butt;stroke-linejoin:miter;stroke-opacity:1.0000000" />
    <path
       d="M 321.87004,730.43389 C 321.23906,733.49063 319.11743,733.99115 316.42162,734.55572 C 309.73916,734.33010 304.59739,729.39040 300.15114,724.61868 C 293.96123,717.18463 288.95037,708.69809 284.53844,700.00793 C 279.90108,690.90037 276.98338,681.03796 274.68450,671.05122 C 272.96121,663.04524 271.74406,654.90448 271.42951,646.70051 C 271.20676,640.91416 271.67601,635.16977 273.07799,629.57010 C 273.60739,627.62097 274.14463,625.67415 274.67441,623.72511 L 277.10120,624.42581 C 276.56629,626.37088 276.02771,628.31474 275.48687,630.25807 C 274.14707,635.61945 273.58369,641.08664 273.77412,646.63890 C 273.99824,654.69235 275.05425,662.69794 276.71962,670.56364 C 278.89674,680.39188 281.78345,690.06826 286.34852,699.00535 C 290.67361,707.52452 295.56920,715.83999 301.75032,723.03546 C 305.69818,727.14488 310.28244,731.65895 316.13441,731.88590 C 317.20364,731.59638 318.64781,731.58809 318.96089,730.43389 L 321.87004,730.43389 z "
       id="path16775"
       style="fill:#000000;fill-opacity:1.0000000;fill-rule:nonzero;stroke:none;stroke-width:1.0000000px;stroke-linecap:butt;stroke-linejoin:miter;stroke-opacity:1.0000000" />
    <path
       d="M 368.97180,737.44789 C 364.82505,737.60439 361.02549,736.59705 357.22097,735.09643 C 348.44354,730.86507 342.22720,723.51349 336.98731,715.70992 C 330.79509,706.70138 326.79980,696.59657 323.96710,686.19159 C 321.52506,677.18255 320.25985,667.93958 319.27343,658.69270 C 318.38365,650.43776 318.15469,642.12751 318.37345,633.83455 C 318.34809,629.58277 319.18554,625.42510 320.05378,621.27962 L 322.51774,621.78058 C 321.65194,625.78709 320.85024,629.80771 320.81977,633.91966 C 320.52735,642.11352 320.80325,650.31099 321.64591,658.47167 C 322.56287,667.60916 323.77737,676.73916 326.11807,685.65296 C 328.81821,695.85699 332.75397,705.74585 338.81266,714.56104 C 343.82279,721.94909 349.82536,728.95032 358.22941,732.83523 C 361.71901,734.12994 365.21181,735.06122 368.97180,734.39434 L 368.97180,737.44789 z "
       id="path16777"
       style="fill:#000000;fill-opacity:1.0000000;fill-rule:nonzero;stroke:none;stroke-width:1.0000000px;stroke-linecap:butt;stroke-linejoin:miter;stroke-opacity:1.0000000" />
    <path
       d="M 510.65296,909.25025 C 513.59629,911.47529 511.27112,914.30411 509.40618,916.92530 C 505.42309,921.47990 500.05719,922.75102 494.24569,922.93805 C 487.12611,923.00226 480.48471,920.77261 474.29915,917.41258 C 469.45682,914.67721 465.97199,910.55872 463.08685,905.91102 C 461.82118,903.56647 460.71506,901.13990 459.57278,898.73378 L 461.88978,897.63547 C 462.99648,899.98868 464.07014,902.35974 465.27552,904.66455 C 467.87989,908.97385 471.04949,912.79916 475.48027,915.36279 C 481.27100,918.58648 487.50105,920.73241 494.21099,920.62482 C 499.29325,920.40008 503.89988,919.28503 507.40147,915.34057 C 509.15967,912.77871 508.36449,911.05427 510.65296,912.15939 L 510.65296,909.25025 z "
       id="path16779"
       style="fill:#000000;fill-opacity:1.0000000;fill-rule:nonzero;stroke:none;stroke-width:1.0000000px;stroke-linecap:butt;stroke-linejoin:miter;stroke-opacity:1.0000000" />
    <path
       d="M 508.78487,870.24319 C 509.25054,871.91725 509.52338,876.21043 509.45547,878.78565 C 508.00654,884.97258 503.17574,887.51260 497.81266,888.44822 C 490.96409,889.19506 484.40673,886.86470 478.15721,884.07213 C 470.95626,880.65033 464.22496,876.20547 457.74790,871.38734 C 452.17146,867.40794 447.23797,862.55914 442.86335,857.09794 C 439.75523,853.21742 437.32880,848.85619 435.41708,844.16477 L 437.46111,843.21453 C 439.25546,847.69562 441.58135,851.84829 444.49356,855.58336 C 448.71664,860.93226 453.51250,865.64886 458.89217,869.59535 C 465.22610,874.37247 471.83417,878.75450 478.93973,882.04020 C 484.86306,884.63357 491.05067,886.86084 497.52491,886.09862 C 501.88493,885.31262 505.74415,883.45112 507.13314,878.52500 C 507.20659,875.69769 506.93439,872.94545 506.11862,870.24319 L 508.78487,870.24319 z "
       id="path16781"
       style="fill:#000000;fill-opacity:1.0000000;fill-rule:nonzero;stroke:none;stroke-width:1.0000000px;stroke-linecap:butt;stroke-linejoin:miter;stroke-opacity:1.0000000" />
    <path
       d="M 503.36491,821.55759 C 505.76652,822.73696 506.03174,825.57218 506.52019,828.16171 C 506.74926,833.79499 502.11664,834.53523 497.68038,834.57467 C 491.92834,834.14149 486.50298,831.86449 481.12504,829.85119 C 473.90056,827.08061 466.73337,824.14159 459.65136,820.99679 C 453.73214,818.45747 448.15953,815.18355 442.67494,811.77018 C 437.84596,808.66716 432.85693,805.85121 427.94344,802.89979 C 423.37898,800.27698 419.04899,797.26850 414.79408,794.14083 C 412.94633,792.80931 411.26660,791.26005 409.59795,789.70036 L 411.19182,787.90013 C 412.78255,789.40100 414.38489,790.89098 416.15334,792.16697 C 420.34499,795.26114 424.64670,798.17859 429.11742,800.82059 C 434.01929,803.80135 439.00945,806.62476 443.84209,809.72943 C 449.24795,813.09151 454.70087,816.39017 460.49864,818.97945 C 467.51748,822.15167 474.65179,825.03700 481.86134,827.70561 C 487.02566,829.55875 492.22008,831.67648 497.71655,832.06771 C 500.66800,831.94781 503.79129,832.17707 504.04472,828.53693 C 503.83067,827.40825 501.97377,823.43631 503.36491,824.46674 L 503.36491,821.55759 z "
       id="path16783"
       style="fill:#000000;fill-opacity:1.0000000;fill-rule:nonzero;stroke:none;stroke-width:1.0000000px;stroke-linecap:butt;stroke-linejoin:miter;stroke-opacity:1.0000000" />
    <path
       d="M 506.12093,747.79478 C 508.05524,750.27303 509.35832,753.11402 510.60061,755.95915 C 512.68130,760.37171 512.68452,764.26183 510.93033,768.69911 C 508.19555,773.82668 503.07253,775.65421 497.62725,777.01238 C 490.03446,778.69452 482.25119,778.33535 474.57214,777.55474 C 464.90733,776.56380 455.54074,773.95518 446.28219,771.18433 C 436.23687,768.24685 426.36397,764.82729 416.76601,760.71257 C 410.06181,757.75064 403.61356,754.28523 397.16176,750.84331 C 393.61229,748.92537 390.06902,746.99419 386.57931,744.97492 L 387.89854,742.85255 C 391.36489,744.85146 394.87855,746.77264 398.36410,748.73997 C 404.70644,752.25668 411.06531,755.75842 417.67520,758.78402 C 427.14029,762.96454 436.90224,766.43419 446.86430,769.32799 C 456.01291,772.02359 465.29624,774.38484 474.82436,775.37416 C 482.24267,776.12733 489.73305,776.39567 497.05726,774.72674 C 501.68661,773.51265 506.18684,771.98154 508.54910,767.62238 C 510.05397,763.87817 509.93346,760.62697 508.19641,756.89172 C 507.11075,754.45389 505.85301,751.62506 504.00859,749.85040 L 506.12093,747.79478 z "
       id="path16785"
       style="fill:#000000;fill-opacity:1.0000000;fill-rule:nonzero;stroke:none;stroke-width:1.0000000px;stroke-linecap:butt;stroke-linejoin:miter;stroke-opacity:1.0000000" />
    <path
       d="M 514.11523,711.04729 C 514.22942,712.25522 514.24257,714.94246 514.22387,716.62726 C 513.86346,720.45314 511.91049,723.43675 509.24132,726.14711 C 505.97965,728.97893 501.96031,729.86875 497.73801,730.37789 C 491.67578,730.58624 485.79638,728.86484 480.09267,727.07360 C 473.91436,725.09538 468.13088,722.20510 462.45728,719.16412 C 455.53232,715.43396 448.71000,711.53449 442.05372,707.37407 C 434.94710,702.93745 427.99427,698.28413 421.16022,693.46726 C 415.29953,689.44134 409.77057,685.01492 404.51502,680.28156 C 399.40795,675.63654 394.62834,670.67229 389.93746,665.63963 C 386.08166,661.30232 382.08806,657.08648 378.06463,652.89448 C 374.06377,648.80572 370.22512,644.57488 366.36449,640.36388 C 362.49549,636.06134 358.59561,631.78430 354.54656,627.63835 C 350.66385,623.75684 346.70027,619.94666 342.92562,615.96636 C 342.63823,615.66791 342.35082,615.36946 342.06343,615.07101 L 343.87774,613.42147 C 344.17019,613.71662 344.46264,614.01176 344.75509,614.30690 C 348.63359,618.18685 352.42713,622.14549 356.34408,625.99009 C 360.40781,630.16009 364.36703,634.42121 368.22744,638.76770 C 372.07776,642.96467 375.90990,647.17710 379.91600,651.23776 C 383.93381,655.46176 387.93327,659.69950 391.76712,664.08136 C 396.36924,669.09726 401.09423,674.00943 406.14707,678.60932 C 411.33167,683.28451 416.82615,687.60364 422.54863,691.65514 C 429.29761,696.50416 436.19149,701.16813 443.26751,705.56351 C 449.91807,709.63763 456.70810,713.49199 463.62025,717.13970 C 469.18350,720.07691 474.85189,722.85933 480.87788,724.81656 C 486.26426,726.51783 491.79135,728.14300 497.52403,727.87117 C 501.13798,727.40151 504.55903,726.61893 507.38444,724.24199 C 509.54113,721.96862 511.21410,719.64729 511.47996,716.45443 C 511.47608,714.64643 511.48567,712.82944 511.09976,711.04729 L 514.11523,711.04729 z "
       id="path16787"
       style="fill:#000000;fill-opacity:1.0000000;fill-rule:nonzero;stroke:none;stroke-width:1.0000000px;stroke-linecap:butt;stroke-linejoin:miter;stroke-opacity:1.0000000" />
    <path
       d="M 525.58187,628.77491 C 524.13178,632.89047 520.76396,635.64902 517.41599,638.28008 C 509.90123,643.65232 501.04047,645.95747 491.88657,645.98716 C 476.33478,645.16105 461.08538,641.29819 446.20439,636.89524 C 431.86554,632.78848 418.15416,626.89491 404.63366,620.66625 C 393.88275,615.41915 382.99627,610.45966 372.16819,605.37591 C 368.94011,603.86413 365.72365,602.32820 362.51210,600.78172 L 363.42851,598.91748 C 366.61021,600.50132 369.79610,602.07641 373.00634,603.60198 C 383.80682,608.73740 394.61379,613.85954 405.37463,619.07775 C 418.76945,625.40370 432.35940,631.37396 446.61448,635.51980 C 461.31090,639.93517 476.44913,643.71950 491.86086,644.08913 C 500.53528,643.87863 508.93619,641.64944 515.98842,636.43789 C 518.46619,634.41840 521.99690,631.03557 522.68262,628.77491 L 525.58187,628.77491 z "
       id="path16789"
       style="fill:#000000;fill-opacity:1.0000000;fill-rule:nonzero;stroke:none;stroke-width:1.0000000px;stroke-linecap:butt;stroke-linejoin:miter;stroke-opacity:1.0000000" />
    <path
       d="M 485.67049,561.38878 C 483.17250,563.67034 472.87141,569.57807 467.78713,572.42402 C 453.64223,580.19244 438.79562,586.64599 423.61025,592.08548 C 411.16617,596.66304 398.26516,599.48003 385.05622,600.43109 C 373.96374,601.22501 362.82390,601.01183 351.75221,600.03406 C 348.16469,599.70650 344.59336,599.23253 341.02666,598.73200 L 341.32692,596.68768 C 344.85057,597.22847 348.38058,597.73534 351.92998,598.07815 C 362.89613,599.10329 373.93628,599.24813 384.93067,598.59725 C 397.98825,597.74996 410.74099,594.95041 423.08573,590.59349 C 438.24987,585.36331 453.07747,579.06297 466.94688,570.96087 C 473.41098,567.15297 479.66600,562.83972 485.67049,558.47963 L 485.67049,561.38878 z "
       id="path16791"
       style="fill:#000000;fill-opacity:1.0000000;fill-rule:nonzero;stroke:none;stroke-width:1.0000000px;stroke-linecap:butt;stroke-linejoin:miter;stroke-opacity:1.0000000" />
  </g>
  <g
     sodipodi:insensitive="true"
     style="display:inline"
     inkscape:label="reka przednia"
     id="layer2"
     inkscape:groupmode="layer">
    <path
       id="path1435"
       d="M 404.62733,585.63892 C 407.15136,560.33119 384.91298,539.26897 390.03651,513.76703 C 391.78793,494.84890 401.04788,474.42793 419.65407,466.91761 C 435.14032,466.69981 445.57696,481.18686 450.12079,494.45829 C 464.41321,524.46320 478.74815,557.28430 473.49621,591.30523 C 472.34816,608.59537 471.27361,626.24627 465.09293,642.61628 C 455.51026,653.70345 438.65123,651.32215 426.77101,645.67093 C 386.90502,634.91728 346.33422,625.70719 308.11716,609.89658 C 295.66680,606.25179 294.45334,621.43787 292.90937,629.89583 C 289.95820,638.53433 289.31765,647.91356 293.45449,656.31356 C 298.25702,661.84778 295.33979,676.77034 287.87715,667.28672 C 278.28990,657.11186 271.99600,644.31145 265.82020,631.93539 C 262.27146,614.08297 270.44078,595.35861 282.75774,582.59760 C 286.60776,571.43207 298.23290,570.08124 307.77576,574.73102 C 329.79224,580.44294 352.76591,580.95053 375.36309,582.37705 C 385.17132,582.39745 395.28939,582.16651 404.62733,585.63892 z "
       style="fill:#dcb479;fill-opacity:1.0000000;fill-rule:evenodd;stroke:#cf7e46;stroke-width:1.0000000px;stroke-linecap:butt;stroke-linejoin:miter;stroke-opacity:1.0000000" />
    <path
       d="M 314.63773,576.04700 C 313.05421,576.19202 311.33391,577.35798 309.96205,578.40399 C 307.12018,580.69216 305.61143,583.94406 304.43224,587.30615 C 303.27137,590.69189 302.83787,594.23959 302.56673,597.78926 C 302.26654,600.47546 302.67606,603.05213 303.74901,605.51489 C 304.50379,607.21378 305.75590,608.36648 307.33012,609.27742 C 307.33383,609.29605 307.93102,609.55078 307.94155,609.55557 L 307.56410,610.42016 C 307.34003,610.31719 307.10879,610.22982 306.89188,610.11125 C 305.14677,609.09028 303.73902,607.79033 302.93064,605.88470 C 301.82473,603.27801 301.38855,600.55600 301.73425,597.72538 C 302.04136,594.11261 302.48182,590.49562 303.67554,587.05078 C 304.91221,583.54667 306.48369,580.15030 309.43419,577.74880 C 311.00781,576.53118 312.64698,575.38103 314.63773,574.99564 L 314.63773,576.04700 z "
       id="path16807"
       style="fill:#cf7e46;fill-opacity:1.0000000;fill-rule:nonzero;stroke:none;stroke-width:1.0000000px;stroke-linecap:butt;stroke-linejoin:miter;stroke-opacity:1.0000000" />
    <path
       d="M 334.46547,580.27258 C 332.47276,580.79652 330.66725,582.38621 329.14763,583.87829 C 326.16465,587.12330 324.46949,591.20664 323.10864,595.33703 C 321.91312,598.80950 321.44427,602.36974 321.77136,606.01638 C 322.11971,608.99918 323.11721,611.83249 324.55030,614.45705 C 325.60869,616.31729 327.14422,617.64937 329.01348,618.62227 L 328.62379,619.45986 C 326.58291,618.39280 324.92462,616.92841 323.78680,614.88478 C 322.32811,612.14288 321.29152,609.20464 320.94907,606.10193 C 320.62748,602.34115 321.10911,598.67048 322.37289,595.09941 C 323.79603,590.87008 325.55695,586.69179 328.58020,583.33502 C 330.27805,581.61971 332.12869,579.97323 334.46547,579.22122 L 334.46547,580.27258 z "
       id="path16809"
       style="fill:#cf7e46;fill-opacity:1.0000000;fill-rule:nonzero;stroke:none;stroke-width:1.0000000px;stroke-linecap:butt;stroke-linejoin:miter;stroke-opacity:1.0000000" />
    <path
       d="M 359.20865,580.77901 C 356.55296,582.75982 355.15830,586.05285 353.82698,589.00270 C 351.64381,593.90847 350.30105,599.14854 349.94479,604.50511 C 349.73249,608.43435 350.03051,612.37329 350.82340,616.22403 C 351.38812,618.87596 352.64735,621.23954 354.14057,623.47202 C 355.12301,625.02921 356.35075,626.33027 357.83309,627.40382 L 357.30816,628.18489 C 355.73970,627.02577 354.43528,625.63787 353.40582,623.96628 C 351.86767,621.63098 350.55581,619.17564 349.99822,616.40505 C 349.22096,612.47377 348.99088,608.45687 349.23819,604.45552 C 349.63905,599.02268 350.97530,593.69882 353.19606,588.71891 C 354.56595,585.66329 356.03550,582.33689 358.46755,580.03790 L 359.20865,580.77901 z "
       id="path16811"
       style="fill:#cf7e46;fill-opacity:1.0000000;fill-rule:nonzero;stroke:none;stroke-width:1.0000000px;stroke-linecap:butt;stroke-linejoin:miter;stroke-opacity:1.0000000" />
    <path
       d="M 383.87229,582.87294 C 383.58744,584.00652 381.99007,589.57785 381.60664,592.15287 C 380.81941,598.51975 380.89439,604.96185 381.16740,611.36079 C 381.35359,615.44883 381.71464,619.52644 382.31231,623.57465 C 382.80645,626.41818 383.27247,629.30638 384.39367,631.98057 C 384.95259,633.26568 385.86292,634.25165 386.89000,635.16774 L 386.29497,635.89234 C 385.17351,634.86830 384.17263,633.76819 383.57916,632.33872 C 382.46096,629.57999 381.98339,626.62324 381.49632,623.69881 C 380.91097,619.61872 380.61488,615.50460 380.46444,611.38625 C 380.27256,604.94697 380.29691,598.47702 380.99191,592.06702 C 381.42835,588.72470 381.90823,584.47145 383.87229,581.82158 L 383.87229,582.87294 z "
       id="path16813"
       style="fill:#cf7e46;fill-opacity:1.0000000;fill-rule:nonzero;stroke:none;stroke-width:1.0000000px;stroke-linecap:butt;stroke-linejoin:miter;stroke-opacity:1.0000000" />
    <path
       d="M 403.70003,585.14825 C 404.11523,583.72945 404.41625,588.59451 404.64933,590.30814 C 405.38531,595.64956 406.74265,600.87519 408.00135,606.11007 C 409.28278,611.91644 410.87369,617.64420 412.90498,623.23319 C 414.23368,627.02313 415.91174,630.64962 418.18172,633.96344 C 419.88615,636.37996 421.83558,638.60630 423.87567,640.74182 C 426.04146,642.92545 428.25035,645.07682 430.75776,646.86653 C 431.72998,647.54391 432.78313,648.08368 433.83870,648.61496 L 433.45444,649.39534 C 432.36310,648.83975 431.27203,648.27886 430.26695,647.57343 C 427.71779,645.74749 425.48687,643.54344 423.28059,641.32314 C 421.19287,639.16558 419.18448,636.92830 417.48875,634.44256 C 415.21455,631.04808 413.54977,627.34028 412.25213,623.46660 C 410.27197,617.83525 408.68274,612.08586 407.35196,606.26730 C 406.07141,601.01456 404.75163,595.76122 403.87793,590.42203 C 403.51227,588.08476 402.89180,584.57514 403.70003,584.09690 L 403.70003,585.14825 z "
       id="path16815"
       style="fill:#cf7e46;fill-opacity:1.0000000;fill-rule:nonzero;stroke:none;stroke-width:1.0000000px;stroke-linecap:butt;stroke-linejoin:miter;stroke-opacity:1.0000000" />
    <path
       d="M 402.08627,565.24429 C 404.54679,567.65533 406.94056,570.42897 409.59858,572.76854 C 414.78514,577.39043 421.05059,580.41818 427.46623,582.92688 C 433.85180,585.38730 440.49278,587.09497 447.20054,588.40637 C 451.47936,589.26405 455.83067,589.59217 460.18241,589.77440 C 463.09028,589.94868 465.99830,589.79190 468.86104,589.26249 C 470.57905,588.86409 472.25930,588.32372 473.95279,587.83488 L 474.21522,588.74177 C 472.49172,589.22626 470.78065,589.76366 469.02855,590.13793 C 466.09475,590.64094 463.11969,590.79913 460.14707,590.59295 C 455.75785,590.37454 451.37302,589.98521 447.06975,589.05082 C 440.35011,587.63723 433.67451,585.92852 427.25367,583.46990 C 420.77928,580.93307 414.44578,577.87333 409.18861,573.23800 C 406.93173,571.28243 403.53864,568.14787 402.08627,566.29565 L 402.08627,565.24429 z "
       id="path16817"
       style="fill:#cf7e46;fill-opacity:1.0000000;fill-rule:nonzero;stroke:none;stroke-width:1.0000000px;stroke-linecap:butt;stroke-linejoin:miter;stroke-opacity:1.0000000" />
    <path
       d="M 390.11085,530.95612 C 392.82251,533.11660 396.28485,534.21837 399.55244,535.26475 C 405.69205,537.28023 412.11492,537.78337 418.53258,537.50421 C 424.34879,537.25491 430.05253,536.00047 435.58239,534.23235 C 439.47546,533.05288 443.09870,531.26300 446.40235,528.90611 C 448.62845,527.28055 450.52095,525.29081 452.10305,523.04349 C 453.27273,521.40512 454.04525,519.56505 454.65312,517.66050 C 455.12490,516.05833 455.34686,514.40346 455.49197,512.74498 C 455.58396,510.94257 455.59367,509.13840 455.48982,507.33709 C 455.47798,507.21081 455.46615,507.08453 455.45432,506.95826 L 456.38178,506.87429 C 456.39343,507.00740 456.40508,507.14051 456.41673,507.27362 C 456.51982,509.11595 456.52166,510.96142 456.42391,512.80483 C 456.27995,514.53538 456.05426,516.26067 455.54777,517.92858 C 454.89876,519.92169 454.07414,521.84381 452.83494,523.55237 C 451.18135,525.86894 449.21263,527.91354 446.89022,529.57506 C 443.49998,531.95697 439.78273,533.74803 435.79332,534.90303 C 430.19521,536.63465 424.43253,537.91226 418.55909,538.13557 C 412.06871,538.39845 405.57741,537.87506 399.35812,535.88161 C 395.92358,534.81730 392.41137,533.64627 389.36974,531.69723 L 390.11085,530.95612 z "
       id="path16819"
       style="fill:#cf7e46;fill-opacity:1.0000000;fill-rule:nonzero;stroke:none;stroke-width:1.0000000px;stroke-linecap:butt;stroke-linejoin:miter;stroke-opacity:1.0000000" />
  </g>
</svg>
