<?xml version="1.0" encoding="UTF-8" standalone="no"?>
<!-- Created with Inkscape (http://www.inkscape.org/) -->
<svg
   xmlns:dc="http://purl.org/dc/elements/1.1/"
   xmlns:cc="http://web.resource.org/cc/"
   xmlns:rdf="http://www.w3.org/1999/02/22-rdf-syntax-ns#"
   xmlns:svg="http://www.w3.org/2000/svg"
   xmlns="http://www.w3.org/2000/svg"
   xmlns:sodipodi="http://inkscape.sourceforge.net/DTD/sodipodi-0.dtd"
   xmlns:inkscape="http://www.inkscape.org/namespaces/inkscape"
   width="210mm"
   height="297mm"
   id="svg15858"
   sodipodi:version="0.32"
   inkscape:version="0.40+cvs"
   sodipodi:docbase="C:\DOCUME~1\test\Desktop"
   sodipodi:docname="bulb3.svg">
  <defs
     id="defs3" />
  <sodipodi:namedview
     inkscape:document-units="mm"
     id="base"
     pagecolor="#ffffff"
     bordercolor="#666666"
     borderopacity="1.0"
     inkscape:pageopacity="0.0"
     inkscape:pageshadow="2"
     inkscape:zoom="0.59770297"
     inkscape:cx="372.04725"
     inkscape:cy="512.67387"
     inkscape:current-layer="layer1"
     showgrid="false"
     gridspacingy="5.0000000mm"
     gridspacingx="5.0000000mm"
     gridoriginy="0.00000000mm"
     gridoriginx="0.00000000mm"
     inkscape:window-width="1152"
     inkscape:window-height="808"
     inkscape:window-x="-4"
     inkscape:window-y="-4" />
  <metadata
     id="metadata4">
    <rdf:RDF
       id="RDF5">
      <cc:Work
         rdf:about=""
         id="Work6">
        <dc:format
           id="format7">image/svg+xml</dc:format>
        <dc:type
           id="type9"
           rdf:resource="http://purl.org/dc/dcmitype/StillImage" />
        <dc:title
           id="title1304">Zarowka</dc:title>
        <dc:date
           id="date1306">23 VI 2005</dc:date>
        <dc:creator
           id="creator1308">
          <cc:Agent
             id="Agent1310">
            <dc:title
               id="title1312">JID michalus@jabber.autocom.pl</dc:title>
          </cc:Agent>
        </dc:creator>
        <dc:publisher
           id="publisher1314">
          <cc:Agent
             id="Agent1316">
            <dc:title
               id="title1318">www.tvknet.pl/michalus/jabber</dc:title>
          </cc:Agent>
        </dc:publisher>
      </cc:Work>
    </rdf:RDF>
  </metadata>
  <g
     inkscape:label="Layer 1"
     inkscape:groupmode="layer"
     id="layer1">
    <path
       style="fill:#fffeb8;fill-opacity:1.0000000;fill-rule:evenodd;stroke:none;stroke-width:5.0000000;stroke-miterlimit:4.0000000;stroke-dashoffset:0.00000000;stroke-opacity:1.0000000"
       d="M 374.37028,29.495345 C 200.91971,29.495345 60.151527,174.35590 60.151529,352.87035 C 60.151529,481.35545 133.07390,592.42954 238.62028,644.58910 C 229.46295,675.78009 224.18278,710.76091 224.18278,747.87035 C 224.18278,877.16538 286.65427,982.08905 363.62028,982.08915 C 440.58628,982.08905 503.05778,877.16536 503.05778,747.87035 C 503.05778,714.12783 498.71388,682.11256 491.05778,653.12035 C 606.75852,605.39645 688.58902,488.93546 688.58903,352.87035 C 688.58903,174.35591 547.82086,29.495346 374.37028,29.495345 z "
       id="path15868" />
    <path
       style="fill:#6d7688;fill-opacity:1.0000000;fill-rule:evenodd;stroke:none;stroke-width:5.0000000;stroke-miterlimit:4.0000000;stroke-dashoffset:0.00000000;stroke-opacity:1.0000000"
       d="M 236.08903,823.37035 C 235.81915,825.12998 235.43039,826.83908 235.21403,828.62035 C 225.13617,911.59051 277.48699,986.28145 352.05778,995.33915 C 425.88528,1004.3065 493.86603,945.55535 504.99528,863.87035 C 468.19498,875.60637 419.98515,879.20057 368.43278,871.80785 C 314.96745,864.14081 268.26095,846.12653 236.08903,823.37035 z "
       id="path16274" />
    <g
       transform="translate(-28.44222,-50.19215)"
       id="g16071">
      <path
         style="fill:#000000;fill-opacity:1.0000000;fill-rule:nonzero;stroke:none;stroke-width:1.0000000px;stroke-linecap:butt;stroke-linejoin:miter;stroke-opacity:1.0000000"
         d="M 260.58517,675.23154 C 56.843223,585.53079 27.423547,243.78519 223.78779,127.59815 C 362.14803,28.397082 571.72095,72.567393 657.13988,225.40224 C 743.02194,352.27263 750.89494,567.58393 612.24301,657.28531 C 561.23871,680.50094 502.62538,714.79047 589.29720,671.97028 C 743.29027,573.19795 750.32412,328.56382 628.97258,198.84585 C 521.42663,63.235432 299.13767,32.863293 182.61139,172.85067 C 71.111692,291.23262 62.442088,511.13913 197.09644,615.21946 C 218.01119,635.50916 239.83388,654.75580 260.58517,675.23154 z "
         id="path16023" />
      <path
         style="fill:#000000;fill-opacity:1.0000000;fill-rule:nonzero;stroke:none;stroke-width:1.0000000px;stroke-linecap:butt;stroke-linejoin:miter;stroke-opacity:1.0000000"
         d="M 274.92330,662.59840 C 277.58155,754.02651 261.47573,847.20871 282.50685,937.15190 C 296.01342,1015.8929 386.68917,1060.7131 447.95982,1020.0362 C 499.37138,987.88613 526.52099,922.80217 534.87457,859.70697 C 543.32351,796.59299 534.50233,731.95800 516.78735,671.76608 C 534.74000,686.68102 535.14261,713.99105 539.85498,736.28095 C 547.95655,809.29473 548.16484,888.12860 515.02096,954.03394 C 491.04664,1003.5643 445.36614,1043.3235 393.56525,1043.3988 C 355.17934,1044.7858 317.63652,1022.6000 296.28553,986.92073 C 268.52781,944.44179 261.40932,889.67446 264.89375,838.26191 C 264.97621,779.68275 263.65945,720.83407 270.40001,662.59840 C 271.90777,662.59840 273.41554,662.59840 274.92330,662.59840 z "
         id="path16048" />
    </g>
    <g
       id="g16267"
       transform="translate(-35.13454,-59.28482)">
      <path
         style="fill:#000000;fill-opacity:1.0000000;fill-rule:nonzero;stroke:none;stroke-width:1.0000000px;stroke-linecap:butt;stroke-linejoin:miter;stroke-opacity:1.0000000"
         d="M 262.93793,891.76593 C 290.88178,916.53336 329.46592,921.42435 365.02786,926.24075 C 421.90279,935.21703 480.65813,942.05420 537.57841,929.66759 C 533.00616,914.55493 560.82973,930.43481 542.75566,932.90709 C 507.70732,947.49928 469.03945,941.32587 432.24429,940.59578 C 385.45864,937.40840 338.78592,930.04093 293.69122,917.15317 C 281.41846,911.78875 265.41222,908.31483 260.14333,894.31257 C 259.77283,892.77671 261.45966,891.29464 262.93793,891.76593 z "
         id="path16087" />
      <path
         style="fill:#000000;fill-opacity:1.0000000;fill-rule:nonzero;stroke:none;stroke-width:1.0000000px;stroke-linecap:butt;stroke-linejoin:miter;stroke-opacity:1.0000000"
         d="M 266.28409,936.93884 C 341.27177,958.23060 419.41644,965.14954 496.99699,968.81822 C 509.17639,969.09040 521.36230,969.09286 533.54117,968.79072 C 531.94127,951.39129 561.91435,970.30900 542.72801,973.20590 C 519.53434,977.74948 495.83457,973.95632 472.42883,974.28984 C 415.35292,971.13685 358.77022,962.42271 302.50550,952.65208 C 289.57999,947.03727 272.16832,950.27153 262.86272,937.67845 C 262.91807,935.92721 265.40265,935.86376 266.28409,936.93884 z "
         id="path16089" />
      <path
         style="fill:#000000;fill-opacity:1.0000000;fill-rule:nonzero;stroke:none;stroke-width:1.0000000px;stroke-linecap:butt;stroke-linejoin:miter;stroke-opacity:1.0000000"
         d="M 264.36395,965.09680 C 343.27330,978.40654 423.41760,980.67641 503.14009,985.48647 C 514.38151,974.89855 512.58993,1004.9139 501.95710,992.72470 C 424.24715,986.78437 346.15194,984.39166 268.95071,973.04656 C 265.54373,972.27596 263.51281,968.37871 264.36395,965.09680 z "
         id="path16091" />
      <path
         style="fill:#000000;fill-opacity:1.0000000;fill-rule:nonzero;stroke:none;stroke-width:1.0000000px;stroke-linecap:butt;stroke-linejoin:miter;stroke-opacity:1.0000000"
         d="M 294.47925,991.86591 C 353.14591,1007.1081 414.16101,1006.8314 474.27439,1010.0805 C 489.27318,1009.0030 468.35253,1027.4254 464.65272,1015.4061 C 408.24819,1014.2135 351.51827,1011.3559 296.21714,999.43571 C 293.58599,997.86906 293.84937,994.39103 294.47925,991.86591 z "
         id="path16093" />
      <path
         style="fill:#000000;fill-opacity:1.0000000;fill-rule:nonzero;stroke:none;stroke-width:1.0000000px;stroke-linecap:butt;stroke-linejoin:miter;stroke-opacity:1.0000000"
         d="M 323.80176,1016.3660 C 375.26549,1032.7059 429.72229,1037.9463 483.52475,1036.1788 C 472.18804,1047.7087 454.94305,1042.8123 440.73342,1042.0989 C 400.16674,1041.0113 359.71565,1034.4425 321.00314,1022.2270 C 319.07179,1020.1345 321.31605,1016.6741 323.80176,1016.3660 z "
         id="path16095" />
    </g>
    <path
       style="fill:#000000;fill-opacity:1.0000000;fill-rule:nonzero;stroke:none;stroke-width:1.0000000px;stroke-linecap:butt;stroke-linejoin:miter;stroke-opacity:1.0000000"
       d="M 324.31028,833.17113 C 352.65686,778.72940 347.64804,715.27956 342.06111,656.24351 C 329.72594,551.20181 296.11012,450.41306 273.23501,347.49943 C 264.26468,310.56477 256.27036,273.38570 250.03978,235.88451 C 262.71927,236.82405 256.33119,264.67937 262.31929,275.52160 C 281.84467,375.48798 310.70500,473.30241 332.48342,572.74836 C 346.06404,639.74263 356.28762,708.73413 348.61262,777.10365 C 343.79016,795.08003 343.16077,824.92166 326.68068,833.17114 L 325.46738,833.17114 L 324.31028,833.17113 z "
       id="path17803" />
    <path
       style="fill:#000000;fill-opacity:1.0000000;fill-rule:nonzero;stroke:none;stroke-width:1.0000000px;stroke-linecap:butt;stroke-linejoin:miter;stroke-opacity:1.0000000"
       d="M 409.63896,851.55632 C 404.18138,777.72857 398.53687,703.71171 402.74285,629.64745 C 408.32148,495.22138 422.43011,361.35571 436.25553,227.58490 C 448.67395,234.72629 433.28779,264.10589 435.80214,279.23167 C 420.50728,421.71234 404.59755,564.63899 405.63920,708.13641 C 407.03565,756.06666 410.18124,804.05245 416.85853,851.55634 C 414.45201,851.55633 412.04548,851.55633 409.63896,851.55632 z "
       id="path17805" />
    <path
       style="fill:#000000;fill-opacity:1.0000000;fill-rule:nonzero;stroke:none;stroke-width:1.0000000px;stroke-linecap:butt;stroke-linejoin:miter;stroke-opacity:1.0000000"
       d="M 183.90507,282.73052 C 181.43450,266.01367 205.83073,254.86408 217.84309,265.36194 C 228.70545,277.66692 208.15225,291.93258 201.83287,275.90219 C 195.08690,260.35393 213.00967,249.66823 226.47555,249.52123 C 237.72695,244.71150 259.34889,262.85186 242.17222,268.90857 C 227.49040,269.29915 223.37675,246.16410 235.79924,239.22965 C 248.71130,230.45445 269.06471,236.69663 274.23215,251.64980 C 272.57852,269.51908 248.86820,249.89978 262.44942,240.09387 C 272.00419,224.75960 297.88420,224.46144 306.91827,240.42858 C 308.75514,257.03582 286.76677,244.41335 289.09484,233.62491 C 289.39896,220.12322 304.47911,215.66052 315.69938,216.52591 C 328.03887,216.71773 340.16253,224.23615 343.93806,236.30726 C 349.74030,251.59972 325.60983,254.51240 324.10608,239.35217 C 320.41066,222.89594 340.76471,214.55170 354.27458,215.77110 C 368.65848,215.12574 382.21629,226.74585 382.23245,241.44338 C 386.01186,257.02627 359.29925,257.79717 365.20020,241.79207 C 369.13566,230.21486 382.02184,223.95324 393.55717,222.83073 C 405.97828,221.78642 421.21068,228.44100 423.87687,241.63235 C 425.98925,258.43869 397.34875,256.76014 404.51040,240.49814 C 411.23794,229.70876 426.34223,224.55478 438.45718,227.94697 C 451.80561,230.30383 460.02074,251.23130 447.18091,259.13872 C 433.23011,268.33479 423.17677,245.68732 438.78828,240.42330 C 453.52388,231.27787 477.81333,235.41414 483.72083,253.28821 C 493.11393,264.52228 464.40183,276.09738 469.78710,260.99736 C 480.36220,255.23271 489.31946,266.60764 496.98314,272.23175 C 503.64031,276.79354 500.85238,282.39618 495.01052,275.62160 C 491.41987,269.88339 475.09790,260.23531 475.56248,264.38933 C 487.91465,258.24822 474.75079,240.24763 464.05304,240.11715 C 453.14024,237.37939 439.79581,240.46423 433.62180,250.53166 C 436.92222,267.07439 459.63205,249.41555 447.72998,238.74577 C 439.12696,225.94014 418.77961,229.06066 409.31959,238.86981 C 400.89183,248.31970 419.15503,257.34876 419.83488,243.80299 C 419.40297,230.27630 402.96898,224.28650 391.32088,226.44281 C 381.11684,228.09846 371.35158,234.69926 367.45821,244.49376 C 368.88220,257.34919 385.03151,245.56613 378.11648,237.07469 C 375.14552,220.53202 354.69886,215.92205 340.83194,220.94519 C 327.26667,221.77142 321.35610,244.03827 336.27697,246.41380 C 346.91518,241.34121 336.75611,227.67001 329.69879,223.87339 C 319.53135,218.32420 305.84926,218.29203 296.23185,224.91855 C 288.05786,230.25297 295.88751,248.44506 303.49524,243.59026 C 299.04803,229.66807 279.78315,228.73613 269.74880,237.05012 C 262.43552,239.80423 259.23052,258.81243 269.95481,254.49919 C 271.56403,245.02307 258.75921,238.77053 250.22426,238.69574 C 240.50502,237.81040 229.33792,246.21010 231.74001,256.61202 C 232.51808,265.83158 251.21973,268.61511 242.45887,257.17153 C 231.32703,248.85854 212.48368,253.13378 204.78262,263.97340 C 196.93738,275.62447 220.75437,287.30177 216.51456,270.50376 C 210.21336,260.50190 193.66245,264.22189 189.37905,274.08325 C 187.59956,276.45147 187.77004,283.33055 183.90507,282.73052 z "
       id="path17807" />
  </g>
</svg>
