<?xml version="1.0" encoding="UTF-8" standalone="no"?>
<!-- Created with Inkscape (http://www.inkscape.org/) -->
<svg
   xmlns:xml="http://www.w3.org/XML/1998/namespace"
   xmlns:dc="http://purl.org/dc/elements/1.1/"
   xmlns:cc="http://web.resource.org/cc/"
   xmlns:rdf="http://www.w3.org/1999/02/22-rdf-syntax-ns#"
   xmlns:svg="http://www.w3.org/2000/svg"
   xmlns="http://www.w3.org/2000/svg"
   xmlns:xlink="http://www.w3.org/1999/xlink"
   xmlns:sodipodi="http://inkscape.sourceforge.net/DTD/sodipodi-0.dtd"
   xmlns:inkscape="http://www.inkscape.org/namespaces/inkscape"
   inkscape:export-ydpi="90.000000"
   inkscape:export-xdpi="90.000000"
   inkscape:export-filename="C:\Documents and Settings\test\use_jabber.png"
   width="210mm"
   height="297mm"
   id="svg2"
   sodipodi:version="0.32"
   inkscape:version="0.40+cvs"
   sodipodi:docbase="C:\DOCUME~1\test"
   sodipodi:docname="USE_JA~1.SVG">
  <defs
     id="defs3">
    <linearGradient
       inkscape:collect="always"
       id="linearGradient18902">
      <stop
         style="stop-color:#d8cbc1;stop-opacity:1;"
         offset="0"
         id="stop18904" />
      <stop
         style="stop-color:#d8cbc1;stop-opacity:0;"
         offset="1"
         id="stop18906" />
    </linearGradient>
    <radialGradient
       inkscape:collect="always"
       xlink:href="#linearGradient18902"
       id="radialGradient18908"
       gradientTransform="scale(0.962465,1.038999)"
       cx="-243.87286"
       cy="468.36336"
       fx="-243.87286"
       fy="468.36336"
       r="519.01148"
       gradientUnits="userSpaceOnUse" />
  </defs>
  <sodipodi:namedview
     id="base"
     pagecolor="#ffffff"
     bordercolor="#666666"
     borderopacity="1.0"
     inkscape:pageopacity="0.0"
     inkscape:pageshadow="2"
     inkscape:zoom="0.34609717"
     inkscape:cx="313.47532"
     inkscape:cy="570.86908"
     inkscape:document-units="px"
     inkscape:current-layer="layer5"
     showguides="true"
     inkscape:guide-bbox="true"
     inkscape:window-width="1152"
     inkscape:window-height="808"
     inkscape:window-x="-4"
     inkscape:window-y="-4" />
  <metadata
     id="metadata4">
    <rdf:RDF
       id="RDF5">
      <cc:Work
         rdf:about=""
         id="Work6">
        <dc:format
           id="format7">image/svg+xml</dc:format>
        <dc:type
           id="type9"
           rdf:resource="http://purl.org/dc/dcmitype/StillImage" />
        <dc:title
           id="title1375">Uzywaj Jabbera</dc:title>
        <dc:date
           id="date1377">26 VI 2005</dc:date>
        <dc:creator
           id="creator1379">
          <cc:Agent
             id="Agent1381">
            <dc:title
               id="title1383">JID michalus@jabber.autocom.pl</dc:title>
          </cc:Agent>
        </dc:creator>
        <dc:description
           id="description1385"></dc:description>
        <dc:publisher
           id="publisher1387">
          <cc:Agent
             id="Agent1389">
            <dc:title
               id="title1391">www.tvknet.pl/michalus/jabber</dc:title>
          </cc:Agent>
        </dc:publisher>
      </cc:Work>
    </rdf:RDF>
  </metadata>
  <g
     inkscape:groupmode="layer"
     id="layer5"
     inkscape:label="5"
     style="display:inline">
    <g
       id="g2139"
       transform="translate(-69.81390,-84.25815)"
       style="fill-opacity:1.0000000;fill:#ff0000">
      <path
         style="stroke-opacity:1.0000000;stroke-linejoin:miter;stroke-linecap:butt;stroke-width:1.0000000px;stroke:none;fill-rule:nonzero;fill-opacity:1.0000000;fill:#ff0000"
         id="path2131"
         d="M 916.40392,-102.98597 C 951.56724,-45.827372 1007.9710,8.6877552 1057.5920,58.051486 C 1082.1196,82.662643 1108.1242,105.70305 1134.1351,128.71329 L 1111.4609,152.67358 C 1086.7414,127.65693 1062.1072,102.55078 1038.2193,76.733384 C 988.04853,22.512761 939.34691,-34.362643 879.92049,-78.663687 L 916.40392,-102.98597 z " />
      <path
         style="stroke-opacity:1.0000000;stroke-linejoin:miter;stroke-linecap:butt;stroke-width:1.0000000px;stroke:none;fill-rule:nonzero;fill-opacity:1.0000000;fill:#ff0000"
         id="path2133"
         d="M 1097.7106,-69.066030 C 1137.0442,-97.824174 1038.5488,4.6677771 1030.7464,15.096760 C 997.14574,61.627408 967.29973,110.78570 929.04265,153.76839 L 902.23528,127.78309 C 942.48419,88.921153 974.69583,43.074744 1007.5229,-2.0157970 C 1034.2266,-38.806366 1059.2427,-90.412599 1097.7106,-113.21666 L 1097.7106,-69.066030 z " />
      <path
         style="stroke-opacity:1.0000000;stroke-linejoin:miter;stroke-linecap:butt;stroke-width:1.0000000px;stroke:none;fill-rule:nonzero;fill-opacity:1.0000000;fill:#ff0000"
         id="path2135"
         d="M 1001.8529,-139.18336 C 1002.2485,-91.018272 1019.8985,-1.6956774 1031.1440,58.914967 C 1041.4298,109.00398 1049.3261,159.44391 1054.6194,210.29023 L 1020.3079,212.90109 C 1017.9273,162.75077 1011.3989,112.96897 1004.7064,63.238664 C 994.99167,-5.3649427 984.64565,-75.129139 957.75105,-139.18336 L 1001.8529,-139.18336 z " />
      <path
         style="stroke-opacity:1.0000000;stroke-linejoin:miter;stroke-linecap:butt;stroke-width:1.0000000px;stroke:none;fill-rule:nonzero;fill-opacity:1.0000000;fill:#ff0000"
         id="path2137"
         d="M 873.93019,-9.6995032 C 919.66765,7.9777012 970.78748,9.8261527 1019.9042,12.276301 C 1073.0733,15.128249 1126.3159,16.197788 1179.5563,16.147360 C 1199.6593,16.091409 1174.5359,16.164937 1193.6648,16.097966 L 1192.6427,53.950314 C 1173.3965,52.817841 1198.6671,54.319320 1178.4465,53.114992 C 1124.8937,49.858498 1071.3544,46.340859 1017.8718,42.077100 C 976.77076,38.524168 895.62777,31.156141 873.93019,34.451131 L 873.93019,-9.6995032 z " />
    </g>
    <path
       transform="matrix(1.076244,0.000000,0.000000,0.980843,691.9169,623.5273)"
       d="M -399.62439,-14.105320 C -378.38083,4.6034723 -414.36264,23.760838 -430.71963,21.202881 C -475.04606,14.270974 -485.62498,-41.271160 -470.24079,-76.295806 C -442.72208,-138.94668 -361.71879,-151.22093 -306.33866,-120.02992 C -225.06609,-74.255868 -210.84846,35.147350 -258.39159,110.27565 C -321.75909,210.40987 -460.43744,226.56039 -555.10061,162.43568 C -674.22454,81.741290 -692.29799,-86.579857 -611.47359,-200.67678 C -513.58443,-338.86344 -315.43152,-358.85509 -181.95769,-261.26272 C -24.663390,-146.25350 -2.7555989,81.841289 -117.15878,234.65663 C -249.24179,411.08798 -507.34839,434.91109 -679.48158,303.66849 C -875.07025,154.54230 -900.80841,-133.62331 -752.70640,-325.05775 C -586.55832,-539.81826 -268.30028,-567.47148 -57.576714,-402.49553 C 176.36639,-219.34095 205.93479,129.03403 24.074019,359.03760 C -176.07557,612.17146 -554.58603,643.65522 -803.86255,444.90129 C -1076.1935,227.76550 -1109.5928,-180.89480 -893.93920,-449.43873 C -663.67216,-736.18007 -233.98890,-775.98150 54.316469,-553.58805"
       sodipodi:t0="0.00000000"
       sodipodi:argument="-18.127518"
       sodipodi:radius="705.05597"
       sodipodi:revolution="3.7464132"
       sodipodi:expansion="1.0000000"
       sodipodi:cy="-14.105320"
       sodipodi:cx="-399.62439"
       id="path1455"
       style="fill:none;fill-opacity:1.0000000;fill-rule:nonzero;stroke:#ff0002;stroke-width:56.124931;stroke-linecap:butt;stroke-linejoin:miter;stroke-miterlimit:4.0000000;stroke-opacity:1.0000000"
       sodipodi:type="spiral" />
    <g
       id="g2903"
       transform="matrix(0.292246,0.000000,0.000000,0.254713,-752.3029,1280.100)"
       style="fill:#ff0000;fill-opacity:1.0000000;display:inline">
      <path
         style="fill-rule:nonzero;stroke:none;stroke-width:1.0000000px;stroke-linecap:butt;stroke-linejoin:miter;stroke-opacity:1.0000000"
         id="path2905"
         d="M 916.40392,-102.98597 C 951.56724,-45.827372 1007.9710,8.6877552 1057.5920,58.051486 C 1082.1196,82.662643 1108.1242,105.70305 1134.1351,128.71329 L 1111.4609,152.67358 C 1086.7414,127.65693 1062.1072,102.55078 1038.2193,76.733384 C 988.04853,22.512761 939.34691,-34.362643 879.92049,-78.663687 L 916.40392,-102.98597 z " />
      <path
         style="fill-rule:nonzero;stroke:none;stroke-width:1.0000000px;stroke-linecap:butt;stroke-linejoin:miter;stroke-opacity:1.0000000"
         id="path2907"
         d="M 1097.7106,-69.066030 C 1137.0442,-97.824174 1038.5488,4.6677771 1030.7464,15.096760 C 997.14574,61.627408 967.29973,110.78570 929.04265,153.76839 L 902.23528,127.78309 C 942.48419,88.921153 974.69583,43.074744 1007.5229,-2.0157970 C 1034.2266,-38.806366 1059.2427,-90.412599 1097.7106,-113.21666 L 1097.7106,-69.066030 z " />
      <path
         style="fill-rule:nonzero;stroke:none;stroke-width:1.0000000px;stroke-linecap:butt;stroke-linejoin:miter;stroke-opacity:1.0000000"
         id="path2909"
         d="M 1001.8529,-139.18336 C 1002.2485,-91.018272 1019.8985,-1.6956774 1031.1440,58.914967 C 1041.4298,109.00398 1049.3261,159.44391 1054.6194,210.29023 L 1020.3079,212.90109 C 1017.9273,162.75077 1011.3989,112.96897 1004.7064,63.238664 C 994.99167,-5.3649427 984.64565,-75.129139 957.75105,-139.18336 L 1001.8529,-139.18336 z " />
      <path
         style="fill-rule:nonzero;stroke:none;stroke-width:1.0000000px;stroke-linecap:butt;stroke-linejoin:miter;stroke-opacity:1.0000000"
         id="path2911"
         d="M 873.93019,-9.6995032 C 919.66765,7.9777012 970.78748,9.8261527 1019.9042,12.276301 C 1073.0733,15.128249 1126.3159,16.197788 1179.5563,16.147360 C 1199.6593,16.091409 1174.5359,16.164937 1193.6648,16.097966 L 1192.6427,53.950314 C 1173.3965,52.817841 1198.6671,54.319320 1178.4465,53.114992 C 1124.8937,49.858498 1071.3544,46.340859 1017.8718,42.077100 C 976.77076,38.524168 895.62777,31.156141 873.93019,34.451131 L 873.93019,-9.6995032 z " />
    </g>
    <text
       xml:space="preserve"
       style="font-size:116.80160;font-style:normal;font-weight:normal;fill:#000000;fill-opacity:1.0000000;stroke:none;stroke-width:1.0000000px;stroke-linecap:butt;stroke-linejoin:miter;stroke-opacity:1.0000000;font-family:Bitstream Vera Sans"
       x="-430.22974"
       y="1267.4926"
       id="text2937"
       transform="scale(0.928248,1.077299)"><tspan
         sodipodi:role="line"
         id="tspan2939"
         x="-430.22974"
         y="1267.4926">używaj Jabbera</tspan></text>
  </g>
  <g
     inkscape:label="Layer 1"
     inkscape:groupmode="layer"
     id="layer1"
     style="display:inline" />
  <g
     inkscape:groupmode="layer"
     id="layer2"
     inkscape:label="palce"
     style="display:inline">
    <path
       style="fill:none;fill-opacity:0.75000000;fill-rule:evenodd;stroke:#000000;stroke-width:1.0000000px;stroke-linecap:butt;stroke-linejoin:miter;stroke-opacity:1.0000000"
       d="M 414.92181,836.53592 C 414.92181,836.53592 414.92181,836.53592 414.92181,836.53592 z "
       id="path4464" />
    <path
       style="fill:#e8c400;fill-opacity:1.0000000;fill-rule:evenodd;stroke:#000000;stroke-width:1.0000000px;stroke-linecap:butt;stroke-linejoin:miter;stroke-opacity:1.0000000"
       d="M 281.50485,414.03843 C 262.74070,414.75308 244.06600,419.21439 226.62985,428.03843 C 132.68421,469.85836 94.269094,596.44633 144.34860,685.22593 C 166.99779,730.01896 209.73254,759.49202 254.00485,780.19468 C 313.73371,814.18156 367.82764,858.13551 411.00485,911.60093 C 472.54137,968.84300 534.21556,1027.2833 585.00485,1094.3822 L 829.28610,1014.0072 C 754.36700,914.58597 688.98162,806.88239 592.34860,726.60093 C 535.40723,649.33332 456.11571,586.32708 422.56735,493.69468 C 394.95710,443.64309 337.79730,411.89449 281.50485,414.03843 z "
       id="path4585" />
    <path
       style="fill:#000000;fill-opacity:1.0000000;fill-rule:nonzero;stroke:none;stroke-width:1.0000000px;stroke-linecap:butt;stroke-linejoin:miter;stroke-opacity:1.0000000"
       id="path8002"
       d="M 569.61503,699.30736 C 569.90184,696.60985 571.67675,694.40386 572.94305,692.08910 L 574.38632,692.94319 C 573.29760,694.97556 571.70296,696.96449 571.41996,699.30736 L 569.61503,699.30736 z " />
    <path
       style="fill:#000000;fill-opacity:1.0000000;fill-rule:nonzero;stroke:none;stroke-width:1.0000000px;stroke-linecap:butt;stroke-linejoin:miter;stroke-opacity:1.0000000"
       id="path8004"
       d="M 613.11490,781.28788 C 614.10662,779.06019 616.18878,777.37746 617.82750,775.60247 L 619.03063,776.76229 C 618.01987,777.89259 615.57090,780.66366 614.91982,781.28788 L 613.11490,781.28788 z " />
    <path
       style="fill:#000000;fill-opacity:1.0000000;fill-rule:nonzero;stroke:none;stroke-width:1.0000000px;stroke-linecap:butt;stroke-linejoin:miter;stroke-opacity:1.0000000"
       id="path8006"
       d="M 447.61164,896.83983 C 446.78563,900.80708 444.82111,904.52904 443.22734,908.24896 L 441.73445,907.61039 C 443.20498,904.09403 444.99112,900.56314 445.80871,896.83983 L 447.61164,896.83983 z " />
    <path
       style="fill:#000000;fill-opacity:1.0000000;fill-rule:nonzero;stroke:none;stroke-width:1.0000000px;stroke-linecap:butt;stroke-linejoin:miter;stroke-opacity:1.0000000"
       id="path8008"
       d="M 535.34632,962.91877 C 532.42306,964.71916 529.67882,967.10073 526.97991,969.28757 L 525.93247,968.02749 C 528.89200,965.58601 531.84035,962.64705 535.34632,961.11384 L 535.34632,962.91877 z " />
    <path
       style="fill:#000000;fill-opacity:1.0000000;fill-rule:nonzero;stroke:none;stroke-width:1.0000000px;stroke-linecap:butt;stroke-linejoin:miter;stroke-opacity:1.0000000"
       id="path8010"
       d="M 649.92248,972.01807 C 653.30562,968.59028 658.62415,966.55172 662.96704,964.26528 L 663.70600,965.64813 C 660.41105,967.42704 654.19231,971.17757 651.72740,972.01807 L 649.92248,972.01807 z " />
    <path
       style="fill:#000000;fill-opacity:1.0000000;fill-rule:nonzero;stroke:none;stroke-width:1.0000000px;stroke-linecap:butt;stroke-linejoin:miter;stroke-opacity:1.0000000"
       id="path8012"
       d="M 693.79895,854.19387 C 696.60765,851.57759 699.43990,848.98927 702.22707,846.34796 L 703.36997,847.54445 C 700.61125,850.19379 697.79028,852.77844 695.07065,855.46557 L 693.79895,854.19387 z " />
    <path
       style="fill:#000000;fill-opacity:1.0000000;fill-rule:nonzero;stroke:none;stroke-width:1.0000000px;stroke-linecap:butt;stroke-linejoin:miter;stroke-opacity:1.0000000"
       id="path8014"
       d="M 668.32627,786.30710 C 668.63710,784.44638 669.76548,782.75586 670.53116,781.06051 L 672.03281,781.76878 C 671.41593,783.24100 670.50760,784.74061 670.13119,786.30710 L 668.32627,786.30710 z " />
    <path
       style="fill:#000000;fill-opacity:1.0000000;fill-rule:nonzero;stroke:none;stroke-width:1.0000000px;stroke-linecap:butt;stroke-linejoin:miter;stroke-opacity:1.0000000"
       id="path8016"
       d="M 696.76849,818.09546 C 697.38442,815.57930 698.49885,813.11834 699.42962,810.69340 L 700.94708,811.25818 C 700.13452,813.50785 699.19209,815.79111 698.57342,818.09546 L 696.76849,818.09546 z " />
    <path
       style="fill:#000000;fill-opacity:1.0000000;fill-rule:nonzero;stroke:none;stroke-width:1.0000000px;stroke-linecap:butt;stroke-linejoin:miter;stroke-opacity:1.0000000"
       id="path8018"
       d="M 604.74954,734.44187 C 606.41819,730.02623 609.78212,726.40708 612.61385,722.68603 L 613.86556,723.65322 C 611.38374,726.98155 608.12587,730.91335 606.55446,734.44187 L 604.74954,734.44187 z " />
    <path
       style="fill:#000000;fill-opacity:1.0000000;fill-rule:nonzero;stroke:none;stroke-width:1.0000000px;stroke-linecap:butt;stroke-linejoin:miter;stroke-opacity:1.0000000"
       id="path8020"
       d="M 515.26946,911.05354 C 516.26355,911.04915 514.21237,913.35513 513.89519,914.04571 L 512.40723,913.17146 C 513.33361,911.90180 513.70031,909.85417 515.26946,909.24862 L 515.26946,911.05354 z " />
    <path
       style="fill:#000000;fill-opacity:1.0000000;fill-rule:nonzero;stroke:none;stroke-width:1.0000000px;stroke-linecap:butt;stroke-linejoin:miter;stroke-opacity:1.0000000"
       id="path8022"
       d="M 593.03804,890.03755 C 593.60121,887.85012 595.71342,886.31516 597.11276,884.63477 L 598.33935,885.75597 C 597.20003,887.10561 595.66052,888.47876 594.84296,890.03755 L 593.03804,890.03755 z " />
    <path
       style="fill:#000000;fill-opacity:1.0000000;fill-rule:nonzero;stroke:none;stroke-width:1.0000000px;stroke-linecap:butt;stroke-linejoin:miter;stroke-opacity:1.0000000"
       id="path8024"
       d="M 761.28435,905.90247 C 761.06461,905.68072 762.62660,904.55456 763.06451,904.11482 L 764.23331,905.41696 C 763.26577,906.16844 762.53971,907.43231 761.28435,907.70739 L 761.28435,905.90247 z " />
    <path
       style="fill:#000000;fill-opacity:1.0000000;fill-rule:nonzero;stroke:none;stroke-width:1.0000000px;stroke-linecap:butt;stroke-linejoin:miter;stroke-opacity:1.0000000"
       id="path8026"
       d="M 687.66919,941.03698 C 690.20814,937.46288 696.43841,931.12540 700.25760,926.94973 L 701.42178,928.00331 C 696.93210,932.95058 692.46948,938.36456 687.66919,942.84190 L 687.66919,941.03698 z " />
    <path
       style="fill:#000000;fill-opacity:1.0000000;fill-rule:nonzero;stroke:none;stroke-width:1.0000000px;stroke-linecap:butt;stroke-linejoin:miter;stroke-opacity:1.0000000"
       id="path8028"
       d="M 549.67002,1000.5336 C 550.03400,1006.3689 549.67592,1012.2370 549.46825,1018.0759 L 547.84071,1018.0082 C 548.03439,1012.1938 548.42105,1006.3344 547.86510,1000.5336 L 549.67002,1000.5336 z " />
    <path
       style="fill:#000000;fill-opacity:1.0000000;fill-rule:nonzero;stroke:none;stroke-width:1.0000000px;stroke-linecap:butt;stroke-linejoin:miter;stroke-opacity:1.0000000"
       id="path8030"
       d="M 424.92358,860.86138 C 421.55837,862.56543 418.20837,864.60613 414.91243,866.52108 L 414.08247,865.09731 C 417.62151,863.01457 421.15458,860.60424 424.92358,859.05646 L 424.92358,860.86138 z " />
    <path
       style="fill:#000000;fill-opacity:1.0000000;fill-rule:nonzero;stroke:none;stroke-width:1.0000000px;stroke-linecap:butt;stroke-linejoin:miter;stroke-opacity:1.0000000"
       id="path8032"
       d="M 469.23072,777.94174 C 470.30574,774.67616 471.84329,771.50170 473.20301,768.32974 L 474.68153,768.95657 C 473.46121,771.91859 472.13610,774.98060 471.03565,777.94174 L 469.23072,777.94174 z " />
    <path
       style="fill:#000000;fill-opacity:1.0000000;fill-rule:nonzero;stroke:none;stroke-width:1.0000000px;stroke-linecap:butt;stroke-linejoin:miter;stroke-opacity:1.0000000"
       id="path8034"
       d="M 511.05752,843.19154 C 511.75775,840.77361 513.23068,838.52129 514.38998,836.29673 L 515.82072,837.03227 C 514.86733,838.98186 513.64724,841.19337 512.86244,843.19154 L 511.05752,843.19154 z " />
    <path
       style="fill:#000000;fill-opacity:1.0000000;fill-rule:nonzero;stroke:none;stroke-width:1.0000000px;stroke-linecap:butt;stroke-linejoin:miter;stroke-opacity:1.0000000"
       id="path8036"
       d="M 371.45861,556.23046 C 383.05528,566.21583 397.75370,569.68302 412.56503,572.41837 C 419.92979,573.60934 416.25974,573.04907 423.57489,574.10099 L 423.35969,575.59165 C 416.00949,574.52638 419.69837,575.09231 412.29334,573.89201 C 397.87488,571.23815 382.33886,568.04892 371.45861,558.03538 L 371.45861,556.23046 z " />
    <path
       style="fill:#000000;fill-opacity:1.0000000;fill-rule:nonzero;stroke:none;stroke-width:1.0000000px;stroke-linecap:butt;stroke-linejoin:miter;stroke-opacity:1.0000000"
       id="path8038"
       d="M 329.63181,676.69163 C 336.95568,684.01996 342.38957,694.14133 348.16800,702.95869 C 354.32192,712.57669 360.34877,722.27605 366.27188,732.03745 L 364.93879,732.83481 C 359.04221,723.08296 353.04074,713.39315 346.86746,703.81332 C 341.40278,695.54160 335.25604,685.89398 329.63181,678.49655 L 329.63181,676.69163 z " />
    <path
       style="fill:#000000;fill-opacity:1.0000000;fill-rule:nonzero;stroke:none;stroke-width:1.0000000px;stroke-linecap:butt;stroke-linejoin:miter;stroke-opacity:1.0000000"
       id="path8040"
       d="M 234.26672,721.86457 C 233.73777,721.34470 236.81182,717.34898 237.53438,716.23702 L 238.94426,717.12604 C 237.56409,719.32515 236.32112,722.15789 234.26672,723.66949 L 234.26672,721.86457 z " />
    <path
       style="fill:#000000;fill-opacity:1.0000000;fill-rule:nonzero;stroke:none;stroke-width:1.0000000px;stroke-linecap:butt;stroke-linejoin:miter;stroke-opacity:1.0000000"
       id="path8042"
       d="M 425.73086,652.46135 C 431.26142,641.20266 437.94765,630.43078 444.16950,619.51265 L 445.37107,620.19502 C 439.32449,630.87917 433.00472,641.49182 427.53578,652.46135 L 425.73086,652.46135 z " />
    <path
       style="fill:#000000;fill-opacity:1.0000000;fill-rule:nonzero;stroke:none;stroke-width:1.0000000px;stroke-linecap:butt;stroke-linejoin:miter;stroke-opacity:1.0000000"
       id="path8044"
       d="M 330.36576,705.99965 C 338.46694,709.77146 345.39154,726.87951 350.63570,736.28039 C 353.12619,740.79554 355.72132,745.25055 358.33539,749.69471 L 357.01604,750.46975 C 354.40148,746.01319 351.80307,741.54733 349.30540,737.02371 C 343.98685,727.52121 335.17124,714.61749 332.17068,705.99965 L 330.36576,705.99965 z " />
  </g>
  <g
     inkscape:groupmode="layer"
     id="layer4"
     inkscape:label="zarowka"
     style="display:inline">
    <path
       sodipodi:type="arc"
       style="fill:url(#radialGradient18908);fill-opacity:1.0000000;fill-rule:evenodd;stroke:none;stroke-width:21.925800;stroke-linecap:round;stroke-linejoin:round;stroke-miterlimit:10.000000;stroke-dasharray:21.925800 43.851601 ;stroke-dashoffset:0.00000000;stroke-opacity:1.0000000"
       id="path11258"
       sodipodi:cx="-234.71915"
       sodipodi:cy="486.62888"
       sodipodi:rx="499.53049"
       sodipodi:ry="539.25220"
       d="M 264.81134 486.62888 A 499.53049 539.25220 0 1 1  -734.24963,486.62888 A 499.53049 539.25220 0 1 1  264.81134 486.62888 z"
       transform="matrix(1.000000,0.000000,0.000000,1.256696,649.9915,-359.6350)" />
    <g
       id="g7909"
       transform="matrix(0.864488,0.502654,-0.502654,0.864488,818.3127,-86.66063)">
      <g
         id="g7880"
         transform="matrix(0.997838,-6.571409e-2,6.571409e-2,0.997838,26.21476,-18.31478)">
        <path
           style="fill:#ffff00;fill-opacity:1.0000000;fill-rule:evenodd;stroke:#000000;stroke-width:1.2449059px;stroke-linecap:butt;stroke-linejoin:miter;stroke-opacity:1.0000000"
           d="M -363.84328,631.50150 C -422.30125,591.40180 -428.21482,577.39941 -422.76059,523.06868 C -416.08999,395.85915 -275.07505,271.98854 -154.91068,285.06070 C -22.016679,280.28975 79.237285,403.82134 47.456307,542.10307 C 31.139410,595.94746 -15.923854,644.91165 -69.056000,661.52341 C -128.84389,691.17724 -160.39815,775.10624 -130.00993,823.52585 C -120.07198,868.01013 -186.86967,918.37339 -221.25856,892.32338 C -260.53361,869.94624 -278.31417,818.81850 -265.34971,768.71725 C -263.73929,706.01444 -316.83720,657.22279 -363.84328,631.50150 z "
           id="path4666"
           sodipodi:nodetypes="ccccccccc" />
        <path
           style="fill:#000000;fill-opacity:1.0000000;fill-rule:nonzero;stroke:none;stroke-width:1.0000000px;stroke-linecap:butt;stroke-linejoin:miter;stroke-opacity:1.0000000"
           id="path7874"
           d="M -229.60640,799.69167 C -224.32429,780.06826 -223.25180,759.64354 -223.38288,739.38791 C -224.94650,696.40612 -233.67680,653.98777 -244.47393,612.46683 C -246.60615,603.89554 -249.07517,595.41557 -251.54710,586.93815 L -243.92500,584.72243 C -241.44138,593.29223 -238.97123,601.86592 -236.61341,610.47144 C -226.14460,652.73273 -217.51406,695.71740 -215.31319,739.29010 C -214.96021,759.30827 -216.06646,780.35059 -218.77686,799.69167 L -229.60640,799.69167 z " />
        <path
           style="fill:#000000;fill-opacity:1.0000000;fill-rule:nonzero;stroke:none;stroke-width:1.0000000px;stroke-linecap:butt;stroke-linejoin:miter;stroke-opacity:1.0000000"
           id="path7876"
           d="M -201.16417,801.36475 C -198.66467,774.51321 -194.54317,747.86389 -190.95837,721.14444 C -184.07093,667.99338 -177.35581,614.80904 -171.58205,561.52343 C -169.37712,539.93667 -166.97141,518.36950 -165.03904,496.75587 L -156.15145,497.62878 C -158.46577,519.25950 -161.18376,540.84195 -163.90585,562.42461 C -170.63196,615.61785 -177.50541,668.79331 -183.89978,722.02781 C -186.95594,748.33670 -191.01196,774.83164 -190.33463,801.36475 L -201.16417,801.36475 z " />
        <path
           style="fill:#000000;fill-opacity:1.0000000;fill-rule:nonzero;stroke:none;stroke-width:1.0000000px;stroke-linecap:butt;stroke-linejoin:miter;stroke-opacity:1.0000000"
           id="path7878"
           d="M -294.49730,610.80307 C -299.22654,603.71226 -295.52853,594.07133 -292.22310,586.27167 C -286.53115,576.26297 -278.98852,568.97585 -268.71589,576.50603 C -264.58799,583.99127 -263.41030,594.20572 -273.80331,590.92206 C -279.35958,583.60184 -279.46942,576.29019 -275.82493,568.18580 C -268.78736,558.68696 -258.58163,559.63148 -248.41712,562.76924 C -238.40374,567.72243 -234.65670,575.60776 -234.58467,586.17387 C -238.81480,596.28138 -246.10343,591.17211 -251.70530,585.04751 C -259.62676,573.73194 -257.49444,564.20380 -249.26368,553.94603 C -239.81026,543.23496 -227.86751,540.36516 -214.49390,544.57725 C -202.95737,549.40147 -199.55400,565.12926 -215.31372,561.70450 C -228.30644,552.38674 -225.20745,536.95078 -218.13369,524.80401 C -208.68697,513.82670 -199.26260,519.67891 -191.58060,529.04017 C -186.68213,537.87821 -186.32416,549.24321 -198.61811,547.48377 C -211.45112,535.72944 -200.43771,521.59224 -190.46634,512.02591 C -179.91647,502.94834 -163.86492,506.78062 -165.90124,521.70879 C -178.66664,528.80690 -180.58297,512.62666 -177.78279,503.37446 C -170.43858,486.78844 -156.82082,487.48237 -144.96660,498.96641 C -132.96894,511.07612 -144.25320,519.77516 -139.73161,503.41273 C -130.31083,481.62681 -110.85862,498.20044 -100.78994,510.36129 C -95.767602,518.36142 -92.029123,526.40079 -84.385219,531.86373 L -85.825154,534.89989 C -94.420180,529.57862 -97.895418,520.61027 -103.27460,512.26589 C -111.87146,501.81995 -127.99295,486.17545 -136.58271,504.56206 C -140.42545,518.63330 -141.16687,509.73742 -147.35321,501.20609 C -157.64300,491.10326 -167.85523,490.54794 -174.62931,504.49327 C -176.44149,511.52211 -177.83243,519.62707 -168.99092,520.11704 C -170.31382,509.42138 -179.19218,507.38393 -188.34474,514.46702 C -196.80206,522.50714 -206.62255,533.63702 -197.20067,544.34565 C -191.06279,542.00420 -189.88398,539.29816 -194.37571,530.92841 C -200.42514,523.47814 -207.56192,517.86029 -215.33841,526.63843 C -221.18064,537.52108 -224.90581,549.89819 -213.78983,558.68421 C -202.96043,559.79385 -208.93279,551.81403 -215.67344,547.68548 C -227.80341,543.75281 -238.08324,546.64555 -246.73074,556.11877 C -253.66591,565.36205 -256.22572,572.80519 -248.99344,583.00193 C -244.67798,587.75757 -242.03912,590.91180 -237.99344,585.55627 C -237.90915,576.65595 -241.39262,570.08075 -249.70058,565.88377 C -258.37994,563.14492 -266.62956,562.19972 -272.88141,569.95562 C -275.56337,576.66657 -275.94605,582.12719 -271.43944,588.34064 C -270.19312,585.37709 -268.94438,580.84726 -271.33384,578.69635 C -279.38948,573.37815 -284.75641,580.11791 -289.21435,587.75759 C -291.54790,593.23186 -292.99918,606.02028 -294.49730,607.19322 L -294.49730,610.80307 z " />
      </g>
      <g
         id="g7901">
        <path
           style="fill:#a99598;fill-opacity:1.0000000;fill-rule:evenodd;stroke:#000000;stroke-width:1.0000000px;stroke-linecap:butt;stroke-linejoin:miter;stroke-opacity:1.0000000"
           d="M -185.71097,838.20899 C -165.26066,838.22503 -133.04961,839.88206 -107.07660,839.88206 C -89.111215,839.88206 -71.116111,840.45652 -53.538299,841.55513 C -36.766728,842.60335 -39.518773,863.82902 -38.480652,878.36271 C -37.656184,889.90527 -38.480652,901.90104 -38.480652,913.49722 C -38.480652,923.53565 -38.480652,933.57408 -38.480652,943.61251 C -38.480652,958.92793 -46.439918,955.55141 -51.865227,963.68938 C -56.898051,971.23861 -96.501147,965.36245 -105.40353,965.36245 C -121.13584,965.36245 -135.23389,964.78527 -150.57646,963.68938 C -163.90896,962.73705 -170.07576,960.94502 -180.69176,958.67016 C -198.71821,954.80735 -194.07633,913.68285 -194.07633,900.11265 C -194.07633,889.51652 -194.07633,878.92040 -194.07633,868.32428 C -194.07633,851.52074 -190.83650,851.53535 -185.71097,838.20899 z "
           id="path7887" />
        <path
           style="fill:#000000;fill-opacity:1.0000000;fill-rule:nonzero;stroke:none;stroke-width:1.0000000px;stroke-linecap:butt;stroke-linejoin:miter;stroke-opacity:1.0000000"
           id="path7891"
           d="M -187.34738,836.40406 C -178.81343,841.30364 -170.67358,847.31693 -162.12261,852.39987 C -145.52427,862.52880 -127.32917,869.18546 -108.58772,874.02882 C -95.674011,877.71139 -82.624110,878.15076 -69.452590,876.19097 C -62.541285,874.68588 -55.679164,872.97098 -48.773679,871.43336 L -48.014773,874.76198 C -54.976714,876.29863 -61.889279,878.03874 -68.860933,879.52374 C -82.502697,881.47494 -96.013783,880.98172 -109.36595,877.13367 C -128.37923,872.15578 -146.82654,865.34592 -163.73931,855.17690 C -171.23707,850.76934 -181.58780,844.20301 -187.34738,840.01391 L -187.34738,836.40406 z " />
        <path
           style="fill:#000000;fill-opacity:1.0000000;fill-rule:nonzero;stroke:none;stroke-width:1.0000000px;stroke-linecap:butt;stroke-linejoin:miter;stroke-opacity:1.0000000"
           id="path7893"
           d="M -192.36660,874.88472 C -176.67773,885.14999 -159.73550,893.85234 -142.52625,901.52333 C -117.60721,913.36198 -91.493421,920.16606 -63.923977,918.28667 C -57.966702,917.74761 -52.171861,916.32192 -46.382661,914.90562 L -45.564870,918.06627 C -51.537196,919.48230 -57.515803,920.90652 -63.653934,921.42324 C -91.739671,923.16128 -118.30831,916.18699 -143.66942,904.09264 C -159.71600,896.96595 -179.36213,887.63648 -192.36660,878.49456 L -192.36660,874.88472 z " />
        <path
           style="fill:#000000;fill-opacity:1.0000000;fill-rule:nonzero;stroke:none;stroke-width:1.0000000px;stroke-linecap:butt;stroke-linejoin:miter;stroke-opacity:1.0000000"
           id="path7895"
           d="M -194.03967,908.34615 C -180.71889,913.69518 -168.01112,921.07294 -154.70176,926.76061 C -129.45085,937.54543 -102.64060,943.45303 -75.337989,945.35456 L -75.524762,948.45749 C -103.13493,946.31438 -130.23314,940.18923 -155.83056,929.42298 C -168.73375,923.99507 -181.19064,917.30321 -194.03967,911.95600 L -194.03967,908.34615 z " />
        <path
           style="fill:#000000;fill-opacity:1.0000000;fill-rule:nonzero;stroke:none;stroke-width:1.0000000px;stroke-linecap:butt;stroke-linejoin:miter;stroke-opacity:1.0000000"
           id="path7897"
           d="M -175.63588,943.48066 C -163.79927,947.55380 -151.49995,950.46440 -139.21654,953.06000 C -126.38046,955.97551 -113.32414,957.52377 -100.21526,958.46514 L -100.42780,961.67260 C -113.67749,960.63685 -126.87405,959.02071 -139.84947,956.05569 C -151.80576,953.52987 -164.17392,950.75553 -175.63588,947.09051 L -175.63588,943.48066 z " />
        <path
           style="fill:#000000;fill-opacity:1.0000000;fill-rule:nonzero;stroke:none;stroke-width:1.0000000px;stroke-linecap:butt;stroke-linejoin:miter;stroke-opacity:1.0000000"
           id="path7899"
           d="M -182.25484,821.35041 C -166.38405,828.48582 -149.91285,834.21354 -133.01147,838.54299 C -112.14160,843.66873 -90.764927,846.58088 -69.275482,846.60514 C -60.286305,846.82473 -52.117640,844.43605 -44.094283,840.76684 L -42.443370,843.78273 C -50.922739,847.81196 -59.749852,850.03801 -69.247516,849.85132 C -91.003278,849.67355 -112.63008,846.66055 -133.75646,841.45676 C -150.33736,837.22524 -166.58692,831.85242 -182.25484,824.95228 L -182.25484,821.35041 z " />
      </g>
    </g>
    <path
       style="fill:none;fill-opacity:0.75000000;fill-rule:evenodd;stroke:#000000;stroke-width:1.0000000px;stroke-linecap:butt;stroke-linejoin:miter;stroke-opacity:1.0000000"
       d="M -483.51776,473.47933 C -483.51776,472.92164 -482.40238,473.47933 -483.51776,473.47933 z "
       id="path7889" />
  </g>
  <g
     inkscape:groupmode="layer"
     id="layer3"
     inkscape:label="2"
     style="display:inline">
    <g
       id="g7977">
      <g
         id="g6352"
         style="fill:#f0d532;fill-opacity:1.0000000"
         transform="matrix(0.992035,-0.125962,0.125962,0.992035,0.464902,237.0548)">
        <path
           style="fill-rule:evenodd;stroke:#000000;stroke-width:1.0000000px;stroke-linecap:butt;stroke-linejoin:miter;stroke-opacity:1.0000000"
           d="M 6.6922870,398.19110 C 5.8019576,378.58805 29.499671,358.35538 47.569453,371.12294 C 85.183607,391.75243 125.82379,412.83246 149.17418,450.54719 C 164.92946,474.23961 148.46033,511.79439 120.79542,516.98603 C 93.950306,518.80060 73.582255,497.41623 55.216511,480.90260 C 35.220774,461.93968 15.647995,442.12708 0.56710877,418.91958 C -1.9038010,411.68743 0.13408460,402.60126 6.6922870,398.19110 z "
           id="path4629" />
        <path
           style="fill-rule:evenodd;stroke:#000000;stroke-width:1.0000000px;stroke-linecap:butt;stroke-linejoin:miter;stroke-opacity:1.0000000"
           d="M 40.153725,344.65280 C 36.550239,322.46178 54.264650,305.68806 64.536637,288.13834 C 81.349271,272.95407 106.40115,288.19729 114.60792,305.51100 C 123.24866,326.14591 139.22577,344.82455 161.23866,351.29400 C 178.59023,359.25012 189.54962,377.92665 190.13243,396.73833 C 200.15251,412.82171 192.43593,446.76954 168.51762,434.13766 C 146.22225,423.62631 128.39148,404.99131 104.49219,397.63211 C 79.281005,385.08873 60.499195,363.47270 40.153725,344.65280 z "
           id="path4657" />
        <path
           style="fill-rule:evenodd;stroke:#000000;stroke-width:1.0000000px;stroke-linecap:butt;stroke-linejoin:miter;stroke-opacity:1.0000000"
           d="M 97.038170,257.65305 C 84.467270,235.74572 116.33667,223.55402 133.32177,221.43455 C 172.26189,216.82424 206.11485,247.54350 221.18156,281.05783 C 231.97764,304.67545 241.20701,329.46112 258.20335,349.52842 C 271.37486,362.22660 286.30966,391.41795 260.95441,399.89004 C 235.10908,408.57323 211.69248,389.74136 193.75639,373.45441 C 180.55034,360.61547 165.47716,350.11016 150.37622,339.74538 C 132.97839,326.33349 121.29700,307.45114 110.20549,288.95999 C 103.19597,280.07670 94.688647,269.83097 97.038170,257.65305 z "
           id="path4659" />
        <path
           style="fill-rule:evenodd;stroke:#000000;stroke-width:1.0000000px;stroke-linecap:butt;stroke-linejoin:miter;stroke-opacity:1.0000000"
           d="M 180.69176,195.74940 C 164.46719,179.88921 176.62752,149.67365 197.77980,145.57128 C 220.23484,134.61376 245.71476,147.07417 262.38693,162.78423 C 292.47287,187.57452 299.24860,229.89750 294.80480,266.68088 C 291.29102,288.24569 301.73621,309.01285 299.56730,330.14383 C 296.05920,355.48896 263.59693,348.70428 254.78214,330.72702 C 238.47812,308.28640 223.31176,285.08314 210.12800,260.62415 C 201.68875,241.83419 184.22372,227.13039 181.51715,206.11307 C 181.06448,202.67518 180.83554,199.21234 180.69176,195.74940 z "
           id="path4661" />
      </g>
      <path
         style="fill:#000000;fill-opacity:1.0000000;fill-rule:nonzero;stroke:none;stroke-width:1.0000000px;stroke-linecap:butt;stroke-linejoin:miter;stroke-opacity:1.0000000"
         id="path7923"
         d="M 186.96587,661.52136 C 188.83024,662.13471 190.26339,663.66776 191.73326,664.93007 C 195.09268,667.82990 198.16475,671.02724 201.14792,674.30597 C 204.18287,677.37458 205.87944,681.02300 206.94928,685.12999 C 207.78600,689.28932 207.88266,693.53448 207.75681,697.75923 C 207.67713,701.54546 206.38592,704.93357 204.69163,708.24984 C 203.03761,711.27865 200.80869,713.89787 198.42834,716.36967 C 196.15632,718.41414 193.76878,720.31152 191.55177,722.41793 C 189.58934,724.66714 187.50340,726.48560 184.79819,727.72961 C 180.81911,729.10040 176.95205,728.48487 173.13132,726.97016 C 168.56687,724.80070 164.50950,721.73204 160.31213,718.94645 C 157.90924,717.32571 155.36192,715.95370 152.74999,714.70810 L 153.00481,714.15580 C 155.64209,715.41717 158.21443,716.80499 160.64145,718.44302 C 164.80778,721.20768 168.83929,724.24799 173.36671,726.40609 C 177.03722,727.85787 180.75021,728.46551 184.57311,727.14341 C 187.15518,725.86634 189.22862,724.19106 191.11130,721.96795 C 193.32832,719.86245 195.71367,717.96397 197.98760,715.92258 C 200.32730,713.49844 202.51650,710.92950 204.14191,707.95645 C 205.79269,704.72243 207.06171,701.42423 207.14061,697.73126 C 207.27054,693.56040 207.17202,689.37024 206.34659,685.26374 C 205.30827,681.25965 203.64799,677.70874 200.69258,674.71621 C 197.72255,671.45633 194.67420,668.26735 191.32312,665.39171 C 189.96427,664.23603 188.61994,662.86214 186.96587,662.18480 L 186.96587,661.52136 z " />
      <path
         style="fill:#000000;fill-opacity:1.0000000;fill-rule:nonzero;stroke:none;stroke-width:1.0000000px;stroke-linecap:butt;stroke-linejoin:miter;stroke-opacity:1.0000000"
         id="path7925"
         d="M 207.87501,575.42487 C 211.26721,578.15200 213.91690,582.04439 216.55834,585.55493 C 219.87797,589.96070 222.68100,594.68448 224.98293,599.68985 C 226.43807,602.98852 227.71739,606.35414 228.71922,609.81617 C 229.45951,613.26683 231.04892,616.39751 232.69303,619.48656 C 234.52925,622.55303 235.75413,625.81801 236.32751,629.32662 C 236.36771,633.30252 234.01643,636.11920 231.15470,638.57762 C 227.86942,640.69542 224.02512,641.26552 220.19693,641.41226 C 216.11065,641.35754 212.45995,639.64041 208.87186,637.86853 C 204.95919,635.73175 201.26090,633.23239 197.42613,630.96118 C 194.08691,629.05974 190.69069,627.26125 187.21495,625.62280 L 187.47289,625.06813 C 190.96494,626.71258 194.37394,628.52366 197.73100,630.42855 C 201.57075,632.67173 205.23387,635.20871 209.14970,637.32051 C 212.65185,639.04974 216.21529,640.73211 220.20314,640.79108 C 223.89139,640.65361 227.60382,640.11337 230.77431,638.08150 C 233.47373,635.77423 235.72938,633.12854 235.70382,629.38295 C 235.14792,625.95644 233.93131,622.77332 232.14520,619.77774 C 230.47778,616.64755 228.86839,613.47414 228.11375,609.97810 C 227.12444,606.54672 225.85527,603.21273 224.42253,599.94045 C 222.14977,594.96933 219.37544,590.27833 216.08852,585.90228 C 213.53437,582.50440 210.95788,578.99236 207.87501,576.08830 L 207.87501,575.42487 z " />
      <path
         style="fill:#000000;fill-opacity:1.0000000;fill-rule:nonzero;stroke:none;stroke-width:1.0000000px;stroke-linecap:butt;stroke-linejoin:miter;stroke-opacity:1.0000000"
         id="path7927"
         d="M 265.68266,526.84184 C 267.79382,528.81596 269.50727,531.52031 271.52401,533.72693 C 276.52807,538.71564 282.11670,543.05762 287.38106,547.75768 C 292.02138,552.14881 296.49097,556.71137 301.16544,561.06702 C 304.63064,564.41281 308.54359,567.23205 311.82999,570.75201 C 314.48567,574.12532 315.38952,578.09068 315.46806,582.28477 C 315.13812,586.57440 312.04134,589.10623 308.84482,591.55388 C 305.38248,593.97347 301.42206,595.24442 297.35281,596.17346 C 292.86284,597.01386 288.30130,597.17450 283.75385,596.87148 C 279.22228,596.64651 275.00033,595.29784 271.00082,593.22646 C 266.40033,590.66707 262.29950,587.34288 258.04567,584.26673 C 253.92328,581.29432 249.65634,578.53040 245.35641,575.82375 C 245.05423,575.63750 244.75205,575.45125 244.44987,575.26500 L 244.76818,574.74920 C 245.07156,574.93666 245.37493,575.12411 245.67831,575.31156 C 249.98780,578.02768 254.26829,580.79477 258.40073,583.77584 C 262.62897,586.84003 266.70685,590.14917 271.28647,592.68961 C 275.21328,594.71725 279.35635,596.03821 283.80246,596.26239 C 288.29352,596.56217 292.79845,596.40596 297.23189,595.56888 C 301.21647,594.65810 305.09740,593.42051 308.48931,591.05245 C 311.52814,588.72727 314.51415,586.33205 314.84979,582.25725 C 314.78333,578.22202 313.90699,574.40290 311.36032,571.15325 C 308.09788,567.64497 304.19760,564.84431 300.76026,561.50532 C 296.09268,557.14596 291.62964,552.57955 286.98531,548.19609 C 281.71220,543.48287 276.13013,539.11147 271.09695,534.13173 C 269.18591,532.06345 267.30040,529.67211 265.68266,527.50528 L 265.68266,526.84184 z " />
      <path
         style="fill:#000000;fill-opacity:1.0000000;fill-rule:nonzero;stroke:none;stroke-width:1.0000000px;stroke-linecap:butt;stroke-linejoin:miter;stroke-opacity:1.0000000"
         id="path7929"
         d="M 319.18548,471.49410 C 320.31956,473.46028 320.54415,476.24628 320.98147,478.56409 C 321.97117,482.96413 323.04935,487.35032 324.20269,491.71091 C 325.57280,496.13667 327.46013,500.37614 328.95214,504.76046 C 330.22285,508.61657 330.78475,512.63479 331.19600,516.65691 C 331.51108,520.21682 331.63052,523.79104 331.62885,527.36271 C 331.56501,530.71728 330.20956,533.27115 327.85645,535.53952 C 323.86394,538.22356 318.96283,537.92305 314.34659,537.83102 C 308.74216,537.76649 303.47278,536.75667 298.64559,533.88155 C 294.02346,530.81524 290.36216,526.65609 287.19310,522.15472 C 284.70196,518.53115 283.11465,514.41591 281.26975,510.45104 C 279.88072,507.45650 278.19285,504.62844 276.43319,501.84237 L 276.94898,501.50513 C 278.72467,504.31350 280.43156,507.16235 281.82893,510.18354 C 283.65557,514.12286 285.22726,518.21024 287.69306,521.81333 C 290.80737,526.25360 294.41389,530.35155 298.96688,533.37324 C 303.69533,536.19368 308.87456,537.16251 314.36348,537.23744 C 318.83011,537.32794 323.58861,537.62171 327.46349,535.04754 C 329.60423,532.83383 330.98453,530.56216 331.00373,527.34304 C 331.00959,523.79681 330.88679,520.24834 330.57845,516.71349 C 330.17385,512.73702 329.62101,508.76524 328.36961,504.95173 C 326.87712,500.55772 324.98955,496.30867 323.61294,491.87544 C 322.45400,487.49846 321.38232,483.09301 320.37395,478.67957 C 320.02181,476.83451 319.08860,473.28351 319.18548,472.15754 L 319.18548,471.49410 z " />
      <path
         style="fill:#000000;fill-opacity:1.0000000;fill-rule:nonzero;stroke:none;stroke-width:1.0000000px;stroke-linecap:butt;stroke-linejoin:miter;stroke-opacity:1.0000000"
         id="path7931"
         d="M 199.64589,385.48139 C 202.26608,381.44348 205.68773,378.01964 209.08737,374.64294 C 213.51576,370.30744 218.46122,366.62003 223.84743,363.57752 L 224.13763,364.10443 C 218.79007,367.10920 213.87973,370.75654 209.48904,375.05654 C 206.08953,378.43285 202.66160,381.86117 200.11479,385.95030 L 199.64589,385.48139 z " />
      <path
         style="fill:#000000;fill-opacity:1.0000000;fill-rule:nonzero;stroke:none;stroke-width:1.0000000px;stroke-linecap:butt;stroke-linejoin:miter;stroke-opacity:1.0000000"
         id="path7933"
         d="M 222.63441,374.94303 C 223.56108,373.36295 227.17584,370.75273 229.19977,369.27930 C 230.31606,368.47355 231.46803,367.71977 232.60837,366.94919 L 232.93519,367.43939 C 231.80059,368.20670 230.65367,368.95624 229.54444,369.76059 C 227.11451,371.53971 224.69897,373.47527 222.63441,375.60647 L 222.63441,374.94303 z " />
      <path
         style="fill:#000000;fill-opacity:1.0000000;fill-rule:nonzero;stroke:none;stroke-width:1.0000000px;stroke-linecap:butt;stroke-linejoin:miter;stroke-opacity:1.0000000"
         id="path7935"
         d="M 136.19272,479.19204 C 136.40429,472.74279 139.23407,466.95173 143.12151,461.92791 C 145.34459,459.17706 147.92157,456.75421 150.57589,454.42969 L 150.94294,454.84994 C 148.30909,457.14415 145.75179,459.53662 143.55081,462.26014 C 139.74857,467.17270 136.92740,472.86568 136.85616,479.19204 L 136.19272,479.19204 z " />
      <path
         style="fill:#000000;fill-opacity:1.0000000;fill-rule:nonzero;stroke:none;stroke-width:1.0000000px;stroke-linecap:butt;stroke-linejoin:miter;stroke-opacity:1.0000000"
         id="path7937"
         d="M 154.13774,466.65809 C 156.16132,461.41666 160.75489,457.43169 165.09349,453.87455 C 166.44154,452.78531 167.88516,451.82679 169.29883,450.82802 L 169.62401,451.30101 C 168.21914,452.28897 166.78404,453.23620 165.44538,454.31581 C 161.07461,457.89652 156.67409,461.71064 154.60665,467.12699 L 154.13774,466.65809 z " />
      <path
         style="fill:#000000;fill-opacity:1.0000000;fill-rule:nonzero;stroke:none;stroke-width:1.0000000px;stroke-linecap:butt;stroke-linejoin:miter;stroke-opacity:1.0000000"
         id="path7939"
         d="M 115.60182,518.28066 C 111.59200,522.24358 108.09573,527.50781 105.14073,532.51490 C 101.27065,539.01942 98.392481,546.00129 95.976127,553.15205 L 95.426485,552.96692 C 97.875781,545.78701 100.77853,538.77312 104.66602,532.23498 C 107.72744,527.03875 111.08916,521.61924 115.60182,517.61722 L 115.60182,518.28066 z " />
      <path
         style="fill:#000000;fill-opacity:1.0000000;fill-rule:nonzero;stroke:none;stroke-width:1.0000000px;stroke-linecap:butt;stroke-linejoin:miter;stroke-opacity:1.0000000"
         id="path7941"
         d="M 93.144475,567.74843 C 95.072827,561.41564 98.638852,555.65208 101.91103,549.92680 L 102.34957,550.17700 C 99.139114,555.81392 95.652000,561.50033 93.807915,567.74843 L 93.144475,567.74843 z " />
      <path
         style="fill:#000000;fill-opacity:1.0000000;fill-rule:nonzero;stroke:none;stroke-width:1.0000000px;stroke-linecap:butt;stroke-linejoin:miter;stroke-opacity:1.0000000"
         id="path7943"
         d="M 115.89855,527.16009 C 116.68195,525.64814 117.92540,524.38989 119.02560,523.09660 L 119.48333,523.48645 C 118.55069,524.59806 117.23918,526.15539 116.56199,527.16009 L 115.89855,527.16009 z " />
      <path
         style="fill:#000000;fill-opacity:1.0000000;fill-rule:nonzero;stroke:none;stroke-width:1.0000000px;stroke-linecap:butt;stroke-linejoin:miter;stroke-opacity:1.0000000"
         id="path7945"
         d="M 75.973274,602.22746 C 70.924101,609.30380 66.290363,616.69715 61.903012,624.21605 L 61.449193,623.95105 C 65.737380,616.61255 70.480610,608.88444 75.310567,602.22746 L 75.973274,602.22746 z " />
      <path
         style="fill:#000000;fill-opacity:1.0000000;fill-rule:nonzero;stroke:none;stroke-width:1.0000000px;stroke-linecap:butt;stroke-linejoin:miter;stroke-opacity:1.0000000"
         id="path7947"
         d="M 55.976198,652.29674 C 57.032125,649.28510 60.499077,644.54273 62.765621,641.37766 L 63.178821,641.67213 C 60.608255,645.29686 58.187830,649.21319 55.976198,652.96018 L 55.976198,652.29674 z " />
      <path
         style="fill:#000000;fill-opacity:1.0000000;fill-rule:nonzero;stroke:none;stroke-width:1.0000000px;stroke-linecap:butt;stroke-linejoin:miter;stroke-opacity:1.0000000"
         id="path7949"
         d="M 77.770101,613.25658 C 78.763814,611.09374 80.522721,609.30791 82.069760,607.51415 L 82.484857,607.86953 C 81.039456,609.57040 79.472544,611.28818 78.433540,613.25658 L 77.770101,613.25658 z " />
      <path
         style="fill:#000000;fill-opacity:1.0000000;fill-rule:nonzero;stroke:none;stroke-width:1.0000000px;stroke-linecap:butt;stroke-linejoin:miter;stroke-opacity:1.0000000"
         id="path7951"
         d="M 184.47901,623.44138 C 182.65775,620.52241 182.86686,616.85887 183.36190,613.48210 C 184.71231,606.44417 188.34216,600.41071 192.43956,594.66666 C 194.51681,591.83368 196.66012,589.04908 198.80068,586.26363 L 199.27614,586.62866 C 197.13410,589.40513 194.99143,592.18239 192.91479,595.00815 C 188.86477,600.67498 185.26603,606.62917 183.94643,613.58157 C 183.52447,616.52679 183.72717,620.61009 184.47901,622.77794 L 184.47901,623.44138 z " />
      <path
         style="fill:#000000;fill-opacity:1.0000000;fill-rule:nonzero;stroke:none;stroke-width:1.0000000px;stroke-linecap:butt;stroke-linejoin:miter;stroke-opacity:1.0000000"
         id="path7953"
         d="M 240.12349,571.43828 C 240.15357,565.95764 241.81626,560.73089 244.00623,555.75856 C 247.17291,549.00239 251.68631,542.99295 256.51404,537.34464 C 258.40297,535.10444 260.27983,532.85553 262.22602,530.66655 L 262.67262,531.09100 C 260.73134,533.27131 258.85777,535.51029 256.96696,537.73589 C 252.16155,543.32814 247.66357,549.27989 244.52025,555.98468 C 242.37084,560.87666 240.70480,566.04082 240.78693,571.43828 L 240.12349,571.43828 z " />
      <path
         style="fill:#000000;fill-opacity:1.0000000;fill-rule:nonzero;stroke:none;stroke-width:1.0000000px;stroke-linecap:butt;stroke-linejoin:miter;stroke-opacity:1.0000000"
         id="path7955"
         d="M 276.40701,496.41134 C 279.12008,493.87187 282.14548,491.54491 285.14726,489.31349 C 290.36965,485.51059 296.00178,482.31680 301.65835,479.21369 C 305.14878,477.20440 308.82521,475.60333 312.65297,474.37104 L 312.83422,474.95850 C 309.05796,476.21359 305.38933,477.71734 301.94182,479.73246 C 296.30452,482.81618 290.69612,485.99794 285.50137,489.79490 C 282.89689,491.73606 279.04611,495.02366 277.07045,496.41134 L 276.40701,496.41134 z " />
      <path
         style="fill:#000000;fill-opacity:1.0000000;fill-rule:nonzero;stroke:none;stroke-width:1.0000000px;stroke-linecap:butt;stroke-linejoin:miter;stroke-opacity:1.0000000"
         id="path7957"
         d="M 152.23097,709.64603 C 155.89586,703.72420 160.25150,698.24230 164.66134,692.86178 C 170.17109,686.19634 176.30669,680.09468 182.10647,673.68644 L 182.53080,674.06867 C 176.72674,680.46175 170.58939,686.55001 165.07856,693.20370 C 160.70057,698.54653 156.35198,703.99292 152.82356,709.94232 L 152.23097,709.64603 z " />
    </g>
    <path
       style="fill:#e8c400;fill-opacity:1.0000000;fill-rule:evenodd;stroke:#000000;stroke-width:1.0000000px;stroke-linecap:butt;stroke-linejoin:miter;stroke-opacity:1.0000000;display:inline"
       d="M 385.31250 420.59375 C 381.46922 420.35658 378.26842 420.33500 376.18750 420.68750 C 374.13860 423.43368 354.81960 437.12684 358.87500 443.93750 C 365.78450 455.54137 369.45463 469.19512 381.87500 475.40625 C 387.85829 478.39834 392.98181 480.69995 398.03125 482.56250 C 398.17952 496.17424 400.00140 511.13372 397.40625 523.06250 C 395.08903 533.71372 389.79825 546.21724 387.50000 556.78125 C 384.91147 568.67963 378.86456 582.91724 385.15625 594.43750 C 390.39584 604.03136 392.48960 620.03115 405.84375 624.93750 C 419.11406 629.81302 433.05871 634.65217 447.12500 638.78125 C 459.96770 642.55114 472.81356 646.32384 485.65625 650.09375 C 490.47722 651.50892 510.86147 660.61504 514.56250 658.59375 C 518.10354 656.65984 538.19829 669.20222 531.15625 649.50000 C 528.04814 640.80411 524.79267 629.08642 517.84375 617.68750 C 506.20702 598.59879 496.01243 580.90510 491.84375 557.75000 C 488.79938 540.83988 483.36372 520.34173 481.90625 502.53125 C 480.46358 484.90161 478.92241 457.64093 472.40625 445.68750 C 466.14234 441.54748 454.93299 427.56104 443.81250 430.31250 C 443.76946 430.32315 443.63883 430.33302 443.59375 430.34375 C 437.83514 427.98864 431.73459 426.08060 424.50000 425.25000 C 414.17683 424.06478 396.84233 421.30527 385.31250 420.59375 z "
       id="path8979" />
  </g>
</svg>
