<?xml version="1.0" encoding="UTF-8" standalone="no"?>
<!-- Created with Inkscape (http://www.inkscape.org/) -->
<svg
   xmlns:xml="http://www.w3.org/XML/1998/namespace"
   xmlns:dc="http://purl.org/dc/elements/1.1/"
   xmlns:cc="http://web.resource.org/cc/"
   xmlns:rdf="http://www.w3.org/1999/02/22-rdf-syntax-ns#"
   xmlns:svg="http://www.w3.org/2000/svg"
   xmlns="http://www.w3.org/2000/svg"
   xmlns:xlink="http://www.w3.org/1999/xlink"
   xmlns:sodipodi="http://inkscape.sourceforge.net/DTD/sodipodi-0.dtd"
   xmlns:inkscape="http://www.inkscape.org/namespaces/inkscape"
   inkscape:export-ydpi="90.000000"
   inkscape:export-xdpi="90.000000"
   inkscape:export-filename="C:\wkrec.png"
   sodipodi:docname="wkrec.svg"
   sodipodi:docbase="C:\Program Files\Inkscape"
   inkscape:version="0.40+cvs"
   sodipodi:version="0.32"
   id="svg2"
   height="297mm"
   width="210mm">
  <defs
     id="defs3">
    <linearGradient
       id="linearGradient4392">
      <stop
         id="stop4394"
         offset="0.00000000"
         style="stop-color:#c5b070;stop-opacity:1.0000000;" />
      <stop
         id="stop4396"
         offset="1.0000000"
         style="stop-color:#000000;stop-opacity:0.99137932;" />
    </linearGradient>
    <linearGradient
       id="linearGradient3618">
      <stop
         id="stop3620"
         offset="0.00000000"
         style="stop-color:#456985;stop-opacity:1.0000000;" />
      <stop
         id="stop3622"
         offset="1.0000000"
         style="stop-color:#58385c;stop-opacity:1.0000000;" />
    </linearGradient>
    <linearGradient
       id="linearGradient5160">
      <stop
         id="stop5162"
         offset="0.00000000"
         style="stop-color:#8299bf;stop-opacity:1.0000000;" />
      <stop
         id="stop5164"
         offset="1.0000000"
         style="stop-color:#585f6c;stop-opacity:1.0000000;" />
    </linearGradient>
    <linearGradient
       id="linearGradient4381"
       inkscape:collect="always">
      <stop
         id="stop4383"
         offset="0"
         style="stop-color:#b1b0b1;stop-opacity:1;" />
      <stop
         id="stop4385"
         offset="1"
         style="stop-color:#b1b0b1;stop-opacity:0;" />
    </linearGradient>
    <linearGradient
       id="linearGradient2094">
      <stop
         id="stop2096"
         offset="0.00000000"
         style="stop-color:#faec92;stop-opacity:1.0000000;" />
      <stop
         id="stop2098"
         offset="1.0000000"
         style="stop-color:#f3f2da;stop-opacity:1.0000000;" />
    </linearGradient>
    <radialGradient
       gradientUnits="userSpaceOnUse"
       r="68.243081"
       fy="998.83059"
       fx="-42.299429"
       cy="998.83059"
       cx="-42.299429"
       gradientTransform="scale(1.483240,0.674200)"
       id="radialGradient4387"
       xlink:href="#linearGradient4381"
       inkscape:collect="always" />
    <linearGradient
       gradientUnits="userSpaceOnUse"
       y2="774.05438"
       x2="376.73309"
       y1="774.05438"
       x1="242.97076"
       gradientTransform="matrix(1.096765,0.000000,0.000000,0.911773,77.13437,-46.84601)"
       id="linearGradient5168"
       xlink:href="#linearGradient5160"
       inkscape:collect="always" />
    <radialGradient
       r="361.84045"
       fy="196.82222"
       fx="510.24280"
       cy="196.82222"
       cx="510.24280"
       gradientTransform="matrix(0.861892,0.000000,0.000000,1.160238,76.96130,-46.84601)"
       gradientUnits="userSpaceOnUse"
       id="radialGradient5170"
       xlink:href="#linearGradient2094"
       inkscape:collect="always" />
    <linearGradient
       gradientUnits="userSpaceOnUse"
       y2="1103.9516"
       x2="277.43160"
       y1="1103.9516"
       x1="218.79176"
       gradientTransform="scale(1.582312,0.631987)"
       id="linearGradient3624"
       xlink:href="#linearGradient3618"
       inkscape:collect="always" />
    <linearGradient
       gradientUnits="userSpaceOnUse"
       y2="1176.6656"
       x2="270.80462"
       y1="1176.6656"
       x1="200.19599"
       gradientTransform="scale(1.727384,0.578910)"
       id="linearGradient3626"
       xlink:href="#linearGradient3618"
       inkscape:collect="always" />
    <linearGradient
       gradientUnits="userSpaceOnUse"
       y2="1115.0997"
       x2="285.26458"
       y1="1115.0997"
       x1="201.88051"
       gradientTransform="scale(1.704524,0.586674)"
       id="linearGradient3628"
       xlink:href="#linearGradient3618"
       inkscape:collect="always" />
    <linearGradient
       gradientUnits="userSpaceOnUse"
       y2="1250.0941"
       x2="244.26428"
       y1="1250.0941"
       x1="171.72087"
       gradientTransform="scale(2.002213,0.499447)"
       id="linearGradient3630"
       xlink:href="#linearGradient3618"
       inkscape:collect="always" />
    <linearGradient
       gradientUnits="userSpaceOnUse"
       y2="1145.8285"
       x2="263.09369"
       y1="1145.8285"
       x1="230.75449"
       gradientTransform="scale(1.866222,0.535842)"
       id="linearGradient3632"
       xlink:href="#linearGradient3618"
       inkscape:collect="always" />
    <radialGradient
       gradientUnits="userSpaceOnUse"
       r="432.65659"
       fy="624.93671"
       fx="-195.70474"
       cy="624.93671"
       cx="-195.70474"
       gradientTransform="scale(1.108871,0.901818)"
       id="radialGradient4398"
       xlink:href="#linearGradient4392"
       inkscape:collect="always" />
  </defs>
  <sodipodi:namedview
     inkscape:window-y="-4"
     inkscape:window-x="-4"
     inkscape:window-height="808"
     inkscape:window-width="1152"
     inkscape:current-layer="layer1"
     inkscape:document-units="px"
     inkscape:cy="526.18109"
     inkscape:cx="372.04726"
     inkscape:zoom="0.59770297"
     inkscape:pageshadow="2"
     inkscape:pageopacity="0.0"
     borderopacity="1.0"
     bordercolor="#666666"
     pagecolor="#ffffff"
     id="base" />
  <metadata
     id="metadata4">
    <rdf:RDF
       id="RDF5">
      <cc:Work
         id="Work6"
         rdf:about="">
        <dc:format
           id="format7">image/svg+xml</dc:format>
        <dc:type
           rdf:resource="http://purl.org/dc/dcmitype/StillImage"
           id="type9" />
        <dc:title
           id="title2852">Wkręć Jabbera</dc:title>
        <dc:date
           id="date2854">25 VI 2005</dc:date>
        <dc:creator
           id="creator2856">
          <cc:Agent
             id="Agent2858">
            <dc:title
               id="title2860">JID michalus@jabber.autocom.pl</dc:title>
          </cc:Agent>
        </dc:creator>
        <dc:publisher
           id="publisher2862">
          <cc:Agent
             id="Agent2864">
            <dc:title
               id="title2866">www.tvknet.pl/michalus/jabber</dc:title>
          </cc:Agent>
        </dc:publisher>
      </cc:Work>
    </rdf:RDF>
  </metadata>
  <g
     inkscape:label="cien"
     id="layer2"
     inkscape:groupmode="layer">
    <path
       transform="matrix(1.983472,0.000000,0.000000,2.381818,541.0380,-820.1094)"
       d="M 38.480656 673.41144 A 101.22085 46.009476 0 1 1  -163.96104,673.41144 A 101.22085 46.009476 0 1 1  38.480656 673.41144 z"
       sodipodi:ry="46.009476"
       sodipodi:rx="101.22085"
       sodipodi:cy="673.41144"
       sodipodi:cx="-62.740192"
       id="path3621"
       style="fill:url(#radialGradient4387);fill-opacity:1.0000000;fill-rule:nonzero;stroke:none;stroke-width:3.0000000;stroke-linecap:butt;stroke-linejoin:miter;stroke-miterlimit:4.0000000;stroke-dashoffset:0.00000000;stroke-opacity:1.0000000"
       sodipodi:type="arc" />
  </g>
  <g
     inkscape:label="prowadzenie"
     id="layer3"
     inkscape:groupmode="layer" />
  <g
     inkscape:label="wkret"
     id="layer4"
     inkscape:groupmode="layer">
    <g
       style="fill:url(#radialGradient4398);fill-opacity:1.0"
       transform="matrix(0.596368,0.000000,0.000000,0.522425,503.1131,293.0190)"
       id="g5988">
      <path
         d="M 105.37402,559.11936 C 89.312895,555.13477 73.013479,551.95081 56.728882,548.95790 C -7.1935978,539.25066 -72.219617,538.47983 -136.70130,541.52168 C -191.81158,544.84873 -247.95244,548.66109 -299.78347,569.12203 C -330.40333,581.89256 -356.88026,604.23145 -363.45104,637.89998 C -368.82054,675.46572 -348.61173,707.68184 -323.43487,733.43986 C -283.73958,770.74512 -237.47372,800.21585 -188.98813,824.67783 C -138.10337,850.07652 -83.695486,867.44431 -28.238904,879.56229 C 22.295689,890.29324 73.723884,895.61908 125.23118,898.67989 C 152.50782,900.71431 179.78621,899.43607 206.86749,895.94195 C 208.35959,895.72497 209.85168,895.50799 211.34378,895.29100 L 217.10016,942.24917 C 215.42254,942.42075 213.74491,942.59233 212.06729,942.76391 C 181.77879,945.61435 151.35941,945.04967 121.21144,940.71051 C 68.633243,933.84679 16.469329,923.97254 -35.532673,913.71812 C -94.261831,901.45780 -152.34501,885.59351 -205.46643,856.90413 C -257.08610,830.17219 -307.72941,800.73846 -349.92206,760.21286 C -386.41995,725.13879 -414.48687,681.72140 -405.82485,628.82478 C -395.06020,580.99468 -358.31229,548.45035 -313.39590,531.76881 C -256.87282,512.62314 -197.01487,510.03627 -137.78615,509.10294 C -71.803969,507.78487 -5.8185754,506.77836 60.169626,508.51054 C 75.214833,508.35368 90.800403,509.21897 105.37402,504.95433 L 105.37402,559.11936 z "
         id="path5970"
         style="stroke-opacity:1.0000000;stroke-linejoin:miter;stroke-linecap:butt;stroke-width:1.0000000px;stroke:none;fill-rule:nonzero;fill-opacity:1.0;fill:url(#radialGradient4398)" />
      <path
         d="M 76.047334,783.97060 C 75.336924,793.49642 111.97403,827.72620 129.21493,841.40605 C 168.00383,869.19419 209.39772,893.35733 251.65456,915.47138 L 240.34278,935.93692 C 198.54086,911.58107 156.31766,887.95540 114.77686,863.15241 C 91.206614,850.13429 57.063414,830.24192 37.780564,822.23737 L 76.047334,783.97060 z "
         id="path5984"
         style="stroke-opacity:1.0000000;stroke-linejoin:miter;stroke-linecap:butt;stroke-width:1.0000000px;stroke:none;fill-rule:nonzero;fill-opacity:1.0;fill:url(#radialGradient4398)" />
      <path
         d="M 35.164019,986.80964 C 3.9448793,997.49446 54.649799,980.64512 62.881919,977.70667 C 107.75707,960.53437 151.19394,939.76275 194.52801,919.05689 C 206.36422,913.62736 218.03683,907.85842 229.69886,902.06793 L 243.64476,933.31570 C 231.56506,938.12499 219.46598,942.89015 207.52173,948.03076 C 163.51028,966.49301 120.52339,987.50704 79.196119,1011.3959 C 63.779259,1021.1400 52.964759,1037.4558 35.164019,1040.9534 L 35.164019,986.80964 z "
         id="path5986"
         style="stroke-opacity:1.0000000;stroke-linejoin:miter;stroke-linecap:butt;stroke-width:1.0000000px;stroke:none;fill-rule:nonzero;fill-opacity:1.0;fill:url(#radialGradient4398)" />
    </g>
    <path
       sodipodi:nodetypes="cccc"
       id="path10579"
       d="M -620.70964,568.84441 C -604.96785,627.35023 -630.25465,618.97169 -583.91230,704.83488 C -502.85132,772.57789 -473.98147,796.76365 -350.82285,839.66460 C -258.96595,844.72242 -256.09298,829.76013 -187.38403,831.51671"
       style="fill:none;fill-opacity:0.75000000;fill-rule:evenodd;stroke:#000000;stroke-width:1.0000000px;stroke-linecap:butt;stroke-linejoin:miter;stroke-opacity:1.0000000" />
    <text
       transform="translate(699.3441,83.65366)"
       id="text10589"
       style="font-size:179.41814;font-style:normal;font-weight:normal;fill:#000000;fill-opacity:1.0000000;stroke:none;stroke-width:1.0000000px;stroke-linecap:butt;stroke-linejoin:miter;stroke-opacity:1.0000000;font-family:Bitstream Vera Sans"
       xml:space="preserve"><textPath
         id="textPath10593"
         xlink:href="#path10579"><tspan
   style="fill:#000000;fill-opacity:1.0000000"
   id="tspan10591">Jabber</tspan></textPath></text>
  </g>
  <g
     id="layer1"
     inkscape:groupmode="layer"
     inkscape:label="zarowka">
    <path
       id="path4392"
       d="M 488.82187,599.43524 C 484.75935,600.71053 480.47018,602.15289 475.72812,603.34149 C 473.07402,604.00674 470.30325,604.58445 467.44687,604.99774 C 464.59049,605.41103 461.65418,605.65400 458.60312,605.65399 C 441.87240,605.65399 425.14634,605.65401 408.41562,605.65399 C 402.72906,605.65399 396.32633,606.26007 389.94687,606.56024 C 386.75714,606.71033 383.56560,606.76655 380.47812,606.65399 C 377.39064,606.54143 374.40470,606.25434 371.60312,605.65399 C 366.38097,604.53496 362.19720,603.94891 358.07187,603.31024 C 354.04378,602.68662 350.01724,601.96941 345.13437,600.68524 C 344.98990,630.54765 345.66929,660.10523 348.35312,684.84149 C 408.47994,727.44319 425.57498,730.24767 483.25937,688.84149 C 487.64883,661.39693 488.71091,630.35071 488.82187,599.43524 z "
       style="fill:url(#linearGradient5168);fill-opacity:1.0000000;fill-rule:evenodd;stroke:#5d7194;stroke-width:3.0000000;stroke-linecap:butt;stroke-linejoin:miter;stroke-miterlimit:4.0000000;stroke-opacity:1.0000000" />
    <path
       id="path1291"
       d="M 444.02380,103.99774 C 418.97709,103.92195 394.66382,106.88296 373.02380,112.02899 C 293.77732,124.65216 225.72776,191.30776 208.96130,272.87274 C 200.13769,336.58813 194.12516,404.22269 254.30505,446.71649 C 305.47298,482.80920 339.94813,486.02498 347.02380,510.49774 C 346.16977,537.48122 345.11335,569.25554 344.96130,600.68524 C 349.84417,601.96941 353.87071,602.68662 357.89880,603.31024 C 362.02413,603.94891 366.20790,604.53496 371.43005,605.65399 C 374.23163,606.25434 377.21757,606.54143 380.30505,606.65399 C 383.39253,606.76655 386.58407,606.71033 389.77380,606.56024 C 396.15326,606.26007 402.55599,605.65399 408.24255,605.65399 C 424.97327,605.65401 441.69933,605.65399 458.43005,605.65399 C 461.48111,605.65400 464.41742,605.41103 467.27380,604.99774 C 470.13018,604.58445 472.90095,604.00674 475.55505,603.34149 C 480.29711,602.15289 484.58628,600.71053 488.64880,599.43524 C 488.74732,571.98636 488.11000,544.61167 488.24255,520.09149 C 505.86798,478.54006 536.27609,479.78813 591.21130,455.09149 C 651.47791,424.12360 668.63931,349.04835 654.24255,286.09149 C 642.57397,222.60047 621.36114,172.67078 566.21130,133.40399 C 529.53291,112.66353 485.76831,104.12405 444.02380,103.99774 z "
       style="fill:url(#radialGradient5170);fill-opacity:1.0000000;fill-rule:evenodd;stroke:#f0e4d9;stroke-width:3.0000000;stroke-linecap:butt;stroke-linejoin:miter;stroke-miterlimit:4.0000000;stroke-opacity:1.0000000" />
    <path
       id="path7509"
       d="M 343.84566,606.24047 C 349.64789,608.16395 354.49589,612.64265 360.74631,613.61646 C 378.61364,617.04394 395.42299,624.45656 413.34129,627.71206 C 430.40958,631.31822 447.56575,634.83836 465.04934,635.58877 C 472.80602,635.88500 480.60978,636.54419 488.35112,635.68852 C 488.59044,637.89871 488.82976,640.10889 489.06908,642.31908 C 473.84415,643.05127 458.62614,641.00502 443.51090,639.37666 C 426.48438,636.39561 409.24361,634.06261 392.78734,628.55481 C 380.94728,624.54525 368.64040,622.24734 356.54363,619.24410 C 352.53728,617.23760 343.29054,615.54311 343.84566,612.01082 C 343.84566,610.08737 343.84566,608.16392 343.84566,606.24047 z "
       style="stroke-opacity:1.0000000;stroke-linejoin:miter;stroke-linecap:butt;stroke-width:1.0000000px;stroke:none;fill-rule:nonzero;fill-opacity:1.0;fill:url(#linearGradient3630)" />
    <path
       id="path7511"
       d="M 344.35506,629.74047 C 350.31124,632.02049 355.26806,636.44627 361.21820,638.90273 C 390.73472,652.85963 421.60822,664.84267 454.07169,669.61164 C 464.72640,671.32567 475.46266,672.50950 486.22655,673.26816 C 486.35895,677.27723 485.60789,680.18187 480.70488,677.79815 C 451.05349,673.76517 421.42288,668.03694 393.52997,656.90166 C 376.94702,650.44102 360.29092,644.10592 344.11014,636.67608 C 344.65947,635.17421 344.20690,631.86386 344.35506,629.74047 z "
       style="stroke-opacity:1.0000000;stroke-linejoin:miter;stroke-linecap:butt;stroke-width:1.0000000px;stroke:none;fill-rule:nonzero;fill-opacity:1.0;fill:url(#linearGradient3628)" />
    <path
       id="path7513"
       d="M 352.44002,662.17119 C 351.22982,657.43188 360.22575,666.03065 363.11691,665.98914 C 390.57425,678.55173 419.56630,687.62754 449.11573,693.73430 C 455.28234,694.93481 461.52920,695.64950 467.78357,696.19934 C 467.25643,698.74332 468.16215,703.15844 464.08055,701.08289 C 447.76366,699.16626 432.03383,694.31584 416.46376,689.27625 C 398.73409,684.01666 381.13254,678.31320 364.04767,671.20388 C 358.58973,668.63676 352.29762,667.91367 347.21836,664.61964 C 343.05781,661.03216 349.25799,662.42703 351.51556,662.17120 C 351.82371,662.17120 352.13186,662.17119 352.44002,662.17119 z "
       style="stroke-opacity:1.0000000;stroke-linejoin:miter;stroke-linecap:butt;stroke-width:1.0000000px;stroke:none;fill-rule:nonzero;fill-opacity:1.0;fill:url(#linearGradient3626)" />
    <path
       id="path7515"
       d="M 349.28590,679.15282 C 359.02440,685.96670 370.58664,689.50870 381.44894,694.10663 C 400.11344,701.25369 419.12206,708.01003 438.98336,710.89903 C 438.32907,713.61925 438.72220,717.93580 434.62302,715.48740 C 404.01454,708.83115 375.63831,695.09662 346.19684,684.82384 C 347.22653,682.93350 348.25622,681.04316 349.28590,679.15282 z "
       style="stroke-opacity:1.0000000;stroke-linejoin:miter;stroke-linecap:butt;stroke-width:1.0000000px;stroke:none;fill-rule:nonzero;fill-opacity:1.0;fill:url(#linearGradient3624)" />
    <path
       id="path7519"
       d="M 437.14079,607.52483 C 433.49596,601.23159 439.28204,610.45924 442.64487,609.89629 C 453.89955,613.51641 465.74116,614.94670 477.42086,616.54355 C 481.33340,618.04077 489.60251,615.60787 490.85451,619.15420 C 491.98474,624.90930 485.84342,621.82699 482.30493,621.78919 C 469.51211,619.98190 456.80620,617.58245 444.10321,615.26475 C 439.74459,614.53860 429.76455,610.50020 430.70077,607.52486 C 432.84745,607.52485 434.99412,607.52484 437.14079,607.52483 z "
       style="stroke-opacity:1.0000000;stroke-linejoin:miter;stroke-linecap:butt;stroke-width:1.0000000px;stroke:none;fill-rule:nonzero;fill-opacity:1.0;fill:url(#linearGradient3632)" />
    <path
       d="M 389.90687,571.42481 C 393.24165,562.52916 395.26467,553.16850 396.91925,543.76897 C 402.63119,513.28093 398.01079,482.23138 392.30578,452.10675 C 385.28436,415.82944 373.94468,380.61463 361.76547,345.79322 C 356.43343,330.35026 350.84415,314.99800 345.26472,299.64323 L 350.82794,297.77243 C 355.65642,313.36962 360.69095,328.90314 365.95653,344.35846 C 377.73244,379.51398 389.15791,414.91884 396.53737,451.30007 C 402.42861,482.00321 407.77009,513.55276 404.69025,544.86726 C 403.89421,552.26151 401.92821,566.89110 402.04908,571.42481 L 389.90687,571.42481 z "
       id="path9800"
       style="fill:#c7ba7c;fill-opacity:1.0000000;fill-rule:nonzero;stroke:none;stroke-width:1.0000000px;stroke-linecap:butt;stroke-linejoin:miter;stroke-opacity:1.0000000" />
    <path
       d="M 417.24293,564.18880 C 423.04844,550.77250 425.34025,536.10281 427.25322,521.61740 C 430.74087,488.54165 434.41258,455.48505 437.93790,422.41260 C 441.25282,394.73018 444.06089,366.99238 445.91044,339.17254 C 447.09189,322.90955 447.17290,306.59152 448.51431,290.34069 C 448.78489,286.97007 449.19814,283.61417 449.59041,280.25644 L 459.31667,281.66935 C 458.78299,284.86648 458.21526,288.05959 457.83666,291.28024 C 455.90504,307.42855 455.42039,323.72139 453.32803,339.85695 C 450.05293,367.59280 446.51142,395.29470 443.03137,423.00503 C 438.87183,456.00212 435.31158,489.05032 433.00779,522.23517 C 432.03197,533.99492 429.99321,557.18164 429.38514,564.18880 L 417.24293,564.18880 z "
       id="path9802"
       style="fill:#c7ba7c;fill-opacity:1.0000000;fill-rule:nonzero;stroke:none;stroke-width:1.0000000px;stroke-linecap:butt;stroke-linejoin:miter;stroke-opacity:1.0000000" />
    <path
       d="M 297.76316,323.79227 C 298.18405,319.19634 300.32248,315.14163 302.69591,311.27275 C 307.31264,304.31101 314.26160,303.53876 320.96673,307.90680 C 326.07240,312.22897 326.57786,317.52035 323.03602,322.84490 C 315.48083,326.97582 315.00830,316.72582 315.62809,311.52022 C 317.18515,303.58480 322.69758,299.40963 330.41871,298.40826 C 336.83926,298.03808 341.70488,299.94084 343.09649,306.41824 C 343.61818,311.71153 338.30766,313.92687 337.36290,307.95655 C 339.10454,302.79034 343.21942,299.28038 348.22830,297.39832 C 354.78748,295.80140 359.68028,298.89755 362.78933,304.42970 C 365.08020,309.66927 361.84824,314.16289 357.68376,308.78065 C 354.14550,299.98287 360.66800,293.15684 367.98089,289.01066 C 378.65205,283.42828 390.56061,281.52525 398.85923,291.51069 C 404.18817,300.06205 398.10152,307.02423 390.71457,298.91006 C 385.19386,289.84392 390.71188,281.01685 399.01789,276.39549 C 408.53891,274.45420 413.16507,281.75869 413.59134,290.25480 C 413.71660,298.06149 406.78248,296.84864 408.57969,289.24562 C 411.87041,281.16957 418.99055,276.28945 427.28150,274.47645 C 436.80057,273.97193 444.36876,279.59812 447.32853,288.45778 C 448.65109,295.51107 443.90605,300.79837 437.08955,297.46412 C 431.88176,292.75563 432.73394,286.95773 436.57161,281.65313 C 441.32624,276.37419 447.84146,274.40507 454.36474,277.31398 C 459.16893,281.26829 458.99903,287.23207 457.48240,292.74854 C 450.63885,297.31156 454.60837,287.21686 456.80985,284.12477 C 462.62169,277.34964 470.32814,278.09707 477.85145,281.35927 C 483.40063,283.04134 489.61189,295.67706 481.21535,295.63678 C 479.72981,287.56619 487.58974,286.02858 494.01836,288.08231 C 503.98070,292.93896 501.93632,304.52445 513.44267,306.15843 C 516.84101,306.52874 520.25961,306.47347 523.67067,306.44417 L 523.69994,308.88374 C 520.17506,308.93783 516.64536,309.01235 513.12564,308.74527 C 500.45125,307.41406 502.44932,296.74605 492.93281,290.85208 C 488.39329,289.41789 485.33347,290.77582 483.44977,293.07827 C 483.16865,292.52096 480.01073,285.89149 476.55959,284.02352 C 470.28799,281.27119 464.22977,280.54082 459.29036,286.03343 C 457.00395,289.55668 457.35284,291.90306 454.41282,291.53664 C 455.56726,287.49182 456.05215,283.33073 452.86345,280.06770 C 447.60404,277.95423 442.91976,279.40738 439.01294,283.58774 C 436.43417,287.46362 435.22597,291.06828 438.79401,294.75524 C 443.17112,296.30560 444.82395,293.81459 444.37644,289.21144 C 442.11273,281.74815 435.61386,277.07794 427.74104,277.41296 C 420.50374,278.91234 414.51889,283.14997 411.61020,290.09724 C 411.11095,293.57713 409.34366,294.63463 410.47119,290.28178 C 410.07289,284.07044 407.67901,278.04414 400.24536,279.11221 C 393.61507,282.64278 388.71038,289.75536 393.08733,297.02133 C 398.09463,302.57800 398.93206,298.64743 396.45414,293.20805 C 389.40262,284.23893 378.50351,286.60148 369.35233,291.39957 C 363.70857,294.98984 357.90587,299.82988 360.44624,307.09103 C 360.24944,306.61896 359.93791,306.17964 359.85585,305.67482 C 357.62949,301.42918 354.05774,299.40642 349.18019,300.41510 C 345.41842,301.98725 342.21554,304.32940 340.65378,308.25466 C 340.62693,308.20138 338.44680,309.89228 339.86468,306.68918 C 338.80104,302.11380 335.27731,301.28991 330.69542,301.47373 C 324.39316,302.24215 319.94686,305.50042 318.65456,311.99050 C 318.28424,315.03110 317.82516,319.63485 320.57432,320.71962 C 323.05052,316.84401 322.70347,313.70777 319.13374,310.41044 C 313.82898,307.21097 308.96415,307.30766 305.26555,312.92193 C 303.22194,316.26260 301.27419,319.78839 301.23237,323.79227 L 297.76316,323.79227 z "
       id="path9804"
       style="fill:#c7ba7c;fill-opacity:1.0000000;fill-rule:nonzero;stroke:none;stroke-width:1.0000000px;stroke-linecap:butt;stroke-linejoin:miter;stroke-opacity:1.0000000" />
  </g>
</svg>
