<?xml version="1.0" encoding="UTF-8" standalone="no"?>
<!-- Created with Inkscape (http://www.inkscape.org/) -->
<svg
   xmlns:dc="http://purl.org/dc/elements/1.1/"
   xmlns:cc="http://web.resource.org/cc/"
   xmlns:rdf="http://www.w3.org/1999/02/22-rdf-syntax-ns#"
   xmlns:svg="http://www.w3.org/2000/svg"
   xmlns="http://www.w3.org/2000/svg"
   xmlns:xlink="http://www.w3.org/1999/xlink"
   xmlns:sodipodi="http://inkscape.sourceforge.net/DTD/sodipodi-0.dtd"
   xmlns:inkscape="http://www.inkscape.org/namespaces/inkscape"
   width="80.000000px"
   height="15.000000px"
   id="svg2"
   sodipodi:version="0.32"
   inkscape:version="0.40+cvs"
   sodipodi:docbase="C:\DOCUME~1\test\Desktop\JABBER~1\banner"
   sodipodi:docname="JABBER~1.SVG">
  <defs
     id="defs3">
    <linearGradient
       inkscape:collect="always"
       id="linearGradient2989">
      <stop
         style="stop-color:#ffff00;stop-opacity:1;"
         offset="0"
         id="stop2991" />
      <stop
         style="stop-color:#ffff00;stop-opacity:0;"
         offset="1"
         id="stop2993" />
    </linearGradient>
    <linearGradient
       inkscape:collect="always"
       id="linearGradient2137">
      <stop
         style="stop-color:#9bbcbf;stop-opacity:1;"
         offset="0"
         id="stop2139" />
      <stop
         style="stop-color:#9bbcbf;stop-opacity:0;"
         offset="1"
         id="stop2141" />
    </linearGradient>
    <radialGradient
       inkscape:collect="always"
       xlink:href="#linearGradient2137"
       id="radialGradient2147"
       gradientTransform="matrix(1.217997,-2.950615e-19,1.595319e-18,0.821020,-1.733033,-0.180420)"
       cx="18.830070"
       cy="8.9560337"
       fx="18.830070"
       fy="8.9560337"
       r="4.4033508"
       gradientUnits="userSpaceOnUse" />
    <radialGradient
       inkscape:collect="always"
       xlink:href="#linearGradient2989"
       id="radialGradient2995"
       gradientTransform="scale(1.116926,0.895314)"
       cx="37.366692"
       cy="12.370488"
       fx="37.366692"
       fy="12.370488"
       r="8.5139301"
       gradientUnits="userSpaceOnUse" />
    <radialGradient
       r="4.4033508"
       fy="8.9560337"
       fx="18.830070"
       cy="8.9560337"
       cx="18.830070"
       gradientTransform="matrix(1.217997,-2.599843e-19,1.954161e-18,0.821020,-1.733033,-0.180420)"
       gradientUnits="userSpaceOnUse"
       id="radialGradient1346"
       xlink:href="#linearGradient2137"
       inkscape:collect="always" />
    <radialGradient
       r="8.5139301"
       fy="12.370488"
       fx="37.366692"
       cy="12.370488"
       cx="37.366692"
       gradientTransform="scale(1.116926,0.895314)"
       gradientUnits="userSpaceOnUse"
       id="radialGradient1348"
       xlink:href="#linearGradient2989"
       inkscape:collect="always" />
  </defs>
  <sodipodi:namedview
     id="base"
     pagecolor="#ffffff"
     bordercolor="#666666"
     borderopacity="1.0"
     inkscape:pageopacity="0.0"
     inkscape:pageshadow="2"
     inkscape:zoom="13.250000"
     inkscape:cx="38.832242"
     inkscape:cy="7.5000000"
     inkscape:document-units="px"
     inkscape:current-layer="layer1"
     inkscape:window-width="1152"
     inkscape:window-height="808"
     inkscape:window-x="-4"
     inkscape:window-y="-4" />
  <metadata
     id="metadata4">
    <rdf:RDF
       id="RDF5">
      <cc:Work
         rdf:about=""
         id="Work6">
        <dc:format
           id="format7">image/svg+xml</dc:format>
        <dc:type
           id="type9"
           rdf:resource="http://purl.org/dc/dcmitype/StillImage" />
      </cc:Work>
    </rdf:RDF>
  </metadata>
  <g
     inkscape:label="Layer 1"
     inkscape:groupmode="layer"
     id="layer1">
    <g
       transform="matrix(1.146800,0.000000,0.000000,1.228700,0.144031,0.211440)"
       id="g1334">
      <g
         id="g1322">
        <path
           style="fill:#000000;fill-opacity:1.0000000;fill-rule:nonzero;stroke:none;stroke-width:1.0000000px;stroke-linecap:butt;stroke-linejoin:miter;stroke-opacity:1.0000000"
           id="path1329"
           d="M 24.077887,5.0492546 C 23.972881,5.0772859 23.671292,5.1360604 23.501376,5.1687259 C 23.079916,5.2549347 22.650687,5.2959238 22.222599,5.3408925 C 21.700892,5.4004050 21.176158,5.4297426 20.651581,5.4563735 C 20.116260,5.5001764 19.586104,5.4882882 19.055507,5.4154492 C 18.541224,5.3364844 18.078501,5.1249200 17.627962,4.8917541 C 17.162989,4.6419508 16.756596,4.3145785 16.359015,3.9819846 C 15.963628,3.6402123 15.572876,3.2938685 15.176822,2.9527356 C 14.770178,2.5958480 14.334518,2.2705679 13.886388,1.9605134 C 13.407269,1.6183088 12.860452,1.3970460 12.293293,1.2169382 C 11.632087,1.0119214 10.943086,0.90665973 10.254610,0.81888983 C 9.5407697,0.71709589 8.8197291,0.73430994 8.1073830,0.83088281 C 7.2708320,0.96180706 6.4749697,1.2340432 5.7078503,1.5637969 C 4.9283604,1.8968564 4.2693558,2.3997280 3.6821294,2.9736754 C 3.0551854,3.6242793 2.6514012,4.4145840 2.3064463,5.2188024 C 1.9837004,5.9667235 1.8325772,6.7552777 1.7680179,7.5549023 C 1.7228778,8.3070423 1.8384807,9.0489241 2.0521527,9.7720218 C 2.3012636,10.551505 2.6786480,11.285883 3.1588828,11.963353 C 3.6605897,12.658259 4.4301624,13.076085 5.2248215,13.426659 C 6.0887771,13.791426 7.0224348,13.954866 7.9543996,14.084379 C 9.0036173,14.226396 10.060442,14.302937 11.119646,14.249180 C 12.097148,14.183273 13.055977,13.989738 13.995833,13.738202 C 14.682422,13.572543 15.301777,13.288687 15.864925,12.893908 C 16.303981,12.563649 16.608904,12.126367 16.906434,11.687585 C 17.157819,11.255410 17.441805,10.852282 17.804541,10.495728 C 18.170097,10.163926 18.621759,9.9532090 19.083250,9.7636927 C 19.551802,9.5840707 20.043398,9.4744892 20.538840,9.3833155 C 21.078852,9.2895601 21.626158,9.2494911 22.174084,9.2267201 C 22.787393,9.2115276 23.401014,9.2041995 24.014488,9.2063651 L 24.003884,9.6384185 C 23.399663,9.6340625 22.795199,9.6403161 22.191174,9.6575214 C 21.665825,9.6804761 21.141170,9.7204699 20.623328,9.8099521 C 20.159824,9.8953199 19.700001,9.9979308 19.261457,10.165522 C 18.854101,10.332263 18.454138,10.515771 18.130380,10.807343 C 17.792495,11.136431 17.538792,11.517106 17.301143,11.914552 C 16.975580,12.394266 16.636984,12.870276 16.154937,13.229008 C 15.549240,13.665334 14.863463,13.958694 14.122680,14.142706 C 13.150988,14.399995 12.159870,14.595995 11.150198,14.663910 C 10.059780,14.720404 8.9718512,14.641188 7.8915844,14.495588 C 6.9161622,14.361828 5.9389517,14.193751 5.0358383,13.809327 C 4.1681661,13.424361 3.3324722,12.959931 2.7846741,12.200972 C 2.2797151,11.485249 1.8793168,10.711051 1.6156890,9.8888331 C 1.3870254,9.1189412 1.2649011,8.3287543 1.3146661,7.5277612 C 1.3828782,6.6849555 1.5454248,5.8539838 1.8862619,5.0661600 C 2.2540151,4.2142112 2.6859584,3.3779440 3.3494559,2.6875959 C 3.9767451,2.0748844 4.6809702,1.5379027 5.5136193,1.1827415 C 6.3198909,0.83676383 7.1559851,0.55108746 8.0346726,0.41223733 C 8.7911184,0.30808986 9.5571945,0.28661625 10.315543,0.39564716 C 11.032379,0.48807630 11.749959,0.59731413 12.438726,0.81032664 C 13.051040,1.0040102 13.641504,1.2428919 14.158584,1.6120378 C 14.621571,1.9318054 15.072243,2.2666054 15.492254,2.6349920 C 15.887090,2.9760781 16.278398,3.3206558 16.672680,3.6622729 C 17.045058,3.9736007 17.424920,4.2809698 17.859938,4.5154816 C 18.262797,4.7243536 18.675469,4.9154019 19.135412,4.9872825 C 19.631382,5.0572921 20.127120,5.0640242 20.627734,5.0245331 C 21.142609,4.9981897 21.657500,4.9683378 22.169462,4.9090425 C 22.583431,4.8646593 22.998564,4.8239234 23.405972,4.7395431 C 23.630503,4.6948984 23.853431,4.6398624 24.077887,4.5995356 L 24.077887,5.0492546 z " />
        <path
           style="fill:#000000;fill-opacity:1.0000000;fill-rule:nonzero;stroke:none;stroke-width:1.0000000px;stroke-linecap:butt;stroke-linejoin:miter;stroke-opacity:1.0000000"
           id="path1331"
           d="M 23.569156,5.4063897 C 23.558611,5.2688443 23.594762,5.1377947 23.620186,5.0041802 C 23.728652,4.6401947 23.961996,4.4043382 24.298809,4.2123261 C 24.732417,4.0224332 25.122173,4.0281154 25.541326,4.2271704 C 25.998249,4.5597156 26.075911,5.0655394 26.118004,5.5740218 C 26.167846,6.1750387 26.027448,6.7582014 25.857544,7.3327093 C 25.681377,7.8623739 25.453811,8.3753845 25.219451,8.8845492 C 25.097106,9.1423886 24.963858,9.3955550 24.831743,9.6491257 L 24.413118,9.4569631 C 24.543352,9.2093125 24.674822,8.9621150 24.795498,8.7102496 C 25.023581,8.2179555 25.242012,7.7209309 25.413711,7.2086812 C 25.570650,6.6834901 25.701388,6.1514101 25.657186,5.6014284 C 25.618848,5.2340746 25.596110,4.8624960 25.288548,4.5985096 C 25.009568,4.4989765 24.797047,4.4670392 24.506233,4.6057819 C 24.309279,4.7483555 24.141701,4.8663877 24.080532,5.1133350 C 24.069709,5.2103982 24.032495,5.3062937 24.052252,5.4063897 L 23.569156,5.4063897 z " />
        <path
           style="fill:#000000;fill-opacity:1.0000000;fill-rule:nonzero;stroke:none;stroke-width:1.0000000px;stroke-linecap:butt;stroke-linejoin:miter;stroke-opacity:1.0000000"
           id="path1343"
           d="M 26.049555,9.4319643 C 25.842126,9.5057605 26.214821,9.2685857 26.271696,9.2253400 C 26.512253,9.0164383 26.720108,8.7819111 26.908105,8.5320274 C 27.103503,8.2463009 27.182937,7.9213004 27.258950,7.5953778 C 27.345524,7.1632159 27.380034,6.7245152 27.412474,6.2865987 C 27.449078,5.8552731 27.421329,5.4270472 27.337760,5.0026504 C 27.264695,4.6165781 27.012383,4.4085224 26.680633,4.1980980 C 26.480202,4.0738534 26.254090,4.0026547 26.031229,3.9248170 L 26.171933,3.5081450 C 26.433637,3.5967600 26.694363,3.6879056 26.929727,3.8302705 C 27.362422,4.1068415 27.703602,4.4084274 27.795942,4.9132895 C 27.884483,5.3767045 27.918539,5.8439276 27.877389,6.3146263 C 27.843548,6.7700809 27.809094,7.2265324 27.718996,7.6760236 C 27.635349,8.0573465 27.533180,8.4336244 27.306116,8.7664104 C 27.094495,9.0461195 26.865205,9.3121659 26.595087,9.5463952 C 26.427748,9.6810645 26.271058,9.8392136 26.049555,9.8816833 L 26.049555,9.4319643 z " />
        <path
           style="fill:#000000;fill-opacity:1.0000000;fill-rule:nonzero;stroke:none;stroke-width:1.0000000px;stroke-linecap:butt;stroke-linejoin:miter;stroke-opacity:1.0000000"
           id="path1347"
           d="M 28.108083,3.3497696 C 28.380215,3.3985833 28.454353,3.5957548 28.569174,3.8107271 C 28.796104,4.3290679 28.916213,4.8818726 29.036343,5.4284709 C 29.206109,6.2234704 29.297381,7.0302970 29.341956,7.8390853 C 29.396492,8.6698242 29.217307,9.4643626 28.812685,10.201974 C 28.692211,10.416549 28.524400,10.599028 28.357277,10.782008 L 28.013538,10.495642 C 28.154851,10.335773 28.308178,10.184361 28.410319,9.9975429 C 28.782612,9.3307343 28.939040,8.6097979 28.889773,7.8567823 C 28.846667,7.0698527 28.755769,6.2851742 28.588490,5.5120647 C 28.472669,4.9981102 28.355568,4.4787116 28.140571,3.9914749 C 28.078276,3.8828663 27.960575,3.7056164 28.108083,3.7994887 L 28.108083,3.3497696 z " />
        <path
           style="fill:#000000;fill-opacity:1.0000000;fill-rule:nonzero;stroke:none;stroke-width:1.0000000px;stroke-linecap:butt;stroke-linejoin:miter;stroke-opacity:1.0000000"
           id="path1359"
           d="M 23.093373,6.3307404 C 22.672437,6.3522188 22.246690,6.3809312 21.824515,6.4075831 C 20.573171,6.4787951 19.322143,6.5551421 18.069813,6.6100589 C 16.750144,6.6708583 15.428002,6.6789317 14.107899,6.6278397 L 14.115199,6.4659606 C 15.430027,6.5178421 16.747157,6.5086142 18.061554,6.4484239 C 19.312600,6.3924832 20.562351,6.3156629 21.812170,6.2400978 C 22.239271,6.2112128 22.666492,6.1815444 23.093373,6.1508528 L 23.093373,6.3307404 z " />
        <path
           style="fill:#000000;fill-opacity:1.0000000;fill-rule:nonzero;stroke:none;stroke-width:1.0000000px;stroke-linecap:butt;stroke-linejoin:miter;stroke-opacity:1.0000000"
           id="path1361"
           d="M 23.361877,7.7471420 C 22.917382,7.7595963 22.473244,7.7821578 22.029674,7.8116918 C 20.773320,7.9180497 19.548388,8.2218681 18.345368,8.5638784 C 17.114737,8.9079910 15.911634,9.3299784 14.707556,9.7459922 L 14.646489,9.5924377 C 15.854478,9.1771618 17.060862,8.7544145 18.294688,8.4092512 C 19.510251,8.0643042 20.746953,7.7553876 22.015708,7.6436175 C 22.464046,7.6120051 22.912900,7.5890045 23.361877,7.5672543 L 23.361877,7.7471420 z " />
        <path
           style="fill:#000000;fill-opacity:1.0000000;fill-rule:nonzero;stroke:none;stroke-width:1.0000000px;stroke-linecap:butt;stroke-linejoin:miter;stroke-opacity:1.0000000"
           id="path1363"
           d="M 14.235395,4.5678159 C 14.392766,4.6692567 14.361522,4.8295887 14.375836,5.0069159 C 14.417256,5.2982212 14.327787,5.5120393 14.175874,5.7524137 C 14.108118,5.8117500 14.012203,5.6700595 13.930367,5.6288824 C 14.237617,5.5313585 14.432912,5.6397310 14.682354,5.7909274 C 14.931824,6.0556260 14.889831,6.2173865 14.644451,6.4561072 C 14.331880,6.6895581 14.002501,6.7270187 13.619424,6.7050549 C 13.266531,6.6401946 13.195609,6.5261036 13.172014,6.2472418 C 13.433914,6.0643391 13.520587,6.1751654 13.726935,6.3596169 C 13.901901,6.6432249 13.894607,6.9034240 13.834029,7.2062858 C 13.654115,7.4959919 13.411635,7.5355507 13.093445,7.5545250 C 12.938371,7.2211001 13.314369,7.2324645 13.657970,7.1814676 C 14.083010,7.1226059 14.370570,7.2461049 14.675485,7.5017324 C 14.938784,7.7822830 14.963138,8.0418317 14.898442,8.3826245 C 14.717524,8.6763191 14.504991,8.7152117 14.172556,8.6993852 C 13.855737,8.5570439 13.935181,8.4712831 14.057087,8.2446816 C 14.372087,8.2042328 14.437814,8.3804869 14.550535,8.6254462 C 14.573527,8.9777581 14.346458,9.1048491 14.039604,9.2505756 C 13.572466,9.3924894 13.596637,9.2354229 13.473957,9.0857453 C 13.802711,9.0889176 13.973588,9.2916340 14.161884,9.5206707 C 14.396995,9.8915471 14.363651,10.241610 14.231071,10.630923 C 14.071900,10.931261 13.829547,11.062977 13.516855,11.154676 C 13.410576,10.887405 13.528153,10.865960 13.852212,10.838963 C 14.128444,10.901461 14.249704,11.082853 14.400894,11.284757 L 14.234274,11.368331 C 14.115050,11.216726 14.034344,11.066821 13.822558,11.013923 C 13.694171,10.997305 13.612424,11.093253 13.552476,10.978964 C 13.731647,10.890501 13.960629,10.773790 14.061102,10.555714 C 14.177201,10.227690 14.199541,9.9287532 14.003012,9.6155734 C 13.874489,9.4666653 13.735219,9.2942851 13.549470,9.2504413 C 13.617084,9.2149103 13.626848,9.0176704 13.973087,9.0858801 C 14.195969,8.9732817 14.354339,8.9173394 14.365125,8.6647638 C 14.311126,8.5636503 14.295364,8.4325015 14.163256,8.3930896 C 14.174195,8.4181366 14.017173,8.5158758 14.222361,8.5284286 C 14.453280,8.5212425 14.589195,8.5305024 14.724117,8.3127382 C 14.763279,8.0423402 14.748190,7.8446502 14.535462,7.6196997 C 14.270219,7.4093491 14.046582,7.2996330 13.678569,7.3555184 C 13.504660,7.3815862 13.222352,7.4985381 13.147953,7.3838003 C 13.357689,7.3468033 13.531315,7.3421652 13.659185,7.1375970 C 13.696936,6.8936692 13.711468,6.6808972 13.564468,6.4514834 C 13.505011,6.4206737 13.441616,6.2476994 13.339024,6.3346613 C 13.401281,6.3799805 13.469475,6.5633417 13.649597,6.5314005 C 13.978740,6.5429261 14.256833,6.5255557 14.526429,6.3185693 C 14.646948,6.1225357 14.741627,6.1459711 14.552843,5.9199368 C 14.363522,5.8121837 14.238739,5.7229940 14.004679,5.7931068 C 14.009368,5.7675178 13.837215,5.6582771 14.033657,5.6349767 C 14.151224,5.4338727 14.224934,5.2593625 14.186060,5.0165378 C 14.179174,4.9358483 14.089719,4.6234540 14.235395,4.7477034 L 14.235395,4.5678159 z " />
        <rect
           style="fill:url(#radialGradient1346);fill-opacity:1.0000000;stroke:none;stroke-opacity:1.0000000"
           id="rect2135"
           width="10.188688"
           height="6.8679304"
           x="16.107605"
           y="3.7387011"
           rx="29.177496"
           ry="5.5896969"
           transform="matrix(0.999856,-1.699384e-2,1.699384e-2,0.999856,0.000000,0.000000)" />
      </g>
      <path
         sodipodi:type="arc"
         style="fill:url(#radialGradient1348);fill-opacity:1.0000000;stroke:none;stroke-opacity:1.0000000"
         id="path1365"
         sodipodi:cx="41.735847"
         sodipodi:cy="11.075472"
         sodipodi:rx="9.5094337"
         sodipodi:ry="7.6226416"
         d="M 51.245281 11.075472 A 9.5094337 7.6226416 0 1 1  32.226414,11.075472 A 9.5094337 7.6226416 0 1 1  51.245281 11.075472 z"
         transform="matrix(1.185891,0.000000,0.000000,1.103960,-39.19815,-4.736316)" />
    </g>
    <text
       transform="scale(0.939473,1.064427)"
       id="text1318"
       y="11.075114"
       x="38.719814"
       style="font-size:14.301967;font-style:normal;font-weight:normal;fill:#000000;fill-opacity:1.0000000;stroke:none;stroke-width:1.0000000px;stroke-linecap:butt;stroke-linejoin:miter;stroke-opacity:1.0000000;font-family:Bitstream Vera Sans"
       xml:space="preserve"><tspan
         y="11.075114"
         x="38.719814"
         id="tspan1320"
         sodipodi:role="line">Jabber</tspan></text>
  </g>
</svg>
