<?xml version="1.0" encoding="UTF-8" standalone="no"?>
<!-- Created with Inkscape (http://www.inkscape.org/) -->
<svg
   xmlns:xml="http://www.w3.org/XML/1998/namespace"
   xmlns:dc="http://purl.org/dc/elements/1.1/"
   xmlns:cc="http://web.resource.org/cc/"
   xmlns:rdf="http://www.w3.org/1999/02/22-rdf-syntax-ns#"
   xmlns:svg="http://www.w3.org/2000/svg"
   xmlns="http://www.w3.org/2000/svg"
   xmlns:xlink="http://www.w3.org/1999/xlink"
   xmlns:sodipodi="http://inkscape.sourceforge.net/DTD/sodipodi-0.dtd"
   xmlns:inkscape="http://www.inkscape.org/namespaces/inkscape"
   inkscape:export-ydpi="90.000000"
   inkscape:export-xdpi="90.000000"
   inkscape:export-filename="C:\Documents and Settings\test\Desktop\jabberbanner2_125x125.png"
   width="125.00000px"
   height="125.00000px"
   id="svg2"
   sodipodi:version="0.32"
   inkscape:version="0.40+cvs"
   sodipodi:docbase="C:\DOCUME~1\test\Desktop\JABBER~1\banner"
   sodipodi:docname="JABBER~3.SVG">
  <defs
     id="defs3">
    <linearGradient
       inkscape:collect="always"
       id="linearGradient2989">
      <stop
         style="stop-color:#ffff00;stop-opacity:1;"
         offset="0"
         id="stop2991" />
      <stop
         style="stop-color:#ffff00;stop-opacity:0;"
         offset="1"
         id="stop2993" />
    </linearGradient>
    <linearGradient
       inkscape:collect="always"
       id="linearGradient2137">
      <stop
         style="stop-color:#9bbcbf;stop-opacity:1;"
         offset="0"
         id="stop2139" />
      <stop
         style="stop-color:#9bbcbf;stop-opacity:0;"
         offset="1"
         id="stop2141" />
    </linearGradient>
    <radialGradient
       r="4.4033508"
       fy="8.9560337"
       fx="18.830070"
       cy="8.9560337"
       cx="18.830070"
       gradientTransform="matrix(9.550545,-5.056571e-16,-3.302053e-16,6.609305,-5.735988,-3.627789)"
       gradientUnits="userSpaceOnUse"
       id="radialGradient2122"
       xlink:href="#linearGradient2137"
       inkscape:collect="always" />
    <radialGradient
       r="8.5139301"
       fy="12.370488"
       fx="37.366692"
       cy="12.370488"
       cx="37.366692"
       gradientTransform="scale(1.116926,0.895314)"
       gradientUnits="userSpaceOnUse"
       id="radialGradient2901"
       xlink:href="#linearGradient2989"
       inkscape:collect="always" />
  </defs>
  <sodipodi:namedview
     id="base"
     pagecolor="#ffffff"
     bordercolor="#666666"
     borderopacity="1.0"
     inkscape:pageopacity="0.0"
     inkscape:pageshadow="2"
     inkscape:zoom="1.4142136"
     inkscape:cx="271.07839"
     inkscape:cy="-24.911379"
     inkscape:document-units="px"
     inkscape:current-layer="layer1"
     inkscape:window-width="1152"
     inkscape:window-height="808"
     inkscape:window-x="-4"
     inkscape:window-y="-4" />
  <metadata
     id="metadata4">
    <rdf:RDF
       id="RDF5">
      <cc:Work
         rdf:about=""
         id="Work6">
        <dc:format
           id="format7">image/svg+xml</dc:format>
        <dc:type
           id="type9"
           rdf:resource="http://purl.org/dc/dcmitype/StillImage" />
      </cc:Work>
    </rdf:RDF>
  </metadata>
  <g
     inkscape:label="Layer 1"
     inkscape:groupmode="layer"
     id="layer1">
    <text
       transform="scale(0.891068,1.122249)"
       id="text1348"
       y="85.164772"
       x="69.489578"
       style="font-size:11.280359;font-style:normal;font-weight:normal;fill:#000000;fill-opacity:1.0000000;stroke:none;stroke-width:1.0000000px;stroke-linecap:butt;stroke-linejoin:miter;stroke-opacity:1.0000000;font-family:Bitstream Vera Sans"
       xml:space="preserve"><tspan
         y="85.164772"
         x="69.489578"
         id="tspan1350"
         sodipodi:role="line">Czym jest ...</tspan></text>
    <g
       transform="matrix(-4.697312e-2,0.530861,-0.654330,-3.686728e-2,82.43520,7.824486)"
       id="g2890">
      <path
         style="fill:#000000;fill-opacity:1.0000000;fill-rule:nonzero;stroke:none;stroke-width:1.0000000px;stroke-linecap:butt;stroke-linejoin:miter;stroke-opacity:1.0000000"
         id="path1329"
         d="M 196.61357,38.335264 C 195.79020,38.560921 193.42541,39.034065 192.09307,39.297028 C 188.78835,39.991024 185.42272,40.320993 182.06602,40.682999 C 177.97525,41.162085 173.86075,41.398257 169.74748,41.612641 C 165.54996,41.965262 161.39294,41.869560 157.23246,41.283193 C 153.19990,40.647513 149.57163,38.944383 146.03890,37.067358 C 142.39299,35.056399 139.20641,32.420996 136.08893,29.743558 C 132.98865,26.992232 129.92472,24.204106 126.81921,21.457927 C 123.63066,18.584921 120.21460,15.966361 116.70075,13.470369 C 112.94392,10.715564 108.65626,8.9343602 104.20910,7.4844616 C 99.024496,5.8340413 93.621953,4.9866669 88.223527,4.2801042 C 82.626216,3.4606455 76.972446,3.5992216 71.386852,4.3766497 C 64.827351,5.4306123 58.586895,7.6221598 52.571816,10.276733 C 46.459738,12.957919 41.292400,17.006122 36.687885,21.626496 C 31.771939,26.863969 28.605816,33.226057 25.900982,39.700153 C 23.370291,45.721045 22.185315,52.069042 21.679097,58.506156 C 21.325148,64.561012 22.231605,70.533287 23.907034,76.354348 C 25.860344,82.629321 28.819462,88.541189 32.585043,93.994938 C 36.518989,99.589051 42.553305,102.95262 48.784326,105.77480 C 55.558710,108.71124 62.879637,110.02696 70.187290,111.06956 C 78.414337,112.21282 86.701031,112.82899 95.006382,112.39624 C 102.67110,111.86567 110.18940,110.30768 117.55892,108.28278 C 122.94255,106.94919 127.79899,104.66410 132.21471,101.48607 C 135.65740,98.827424 138.04834,95.307229 140.38131,91.774959 C 142.35245,88.295876 144.57922,85.050627 147.42348,82.180306 C 150.28985,79.509243 153.83139,77.812935 157.45000,76.287297 C 161.12397,74.841309 164.97864,73.959159 168.86346,73.225195 C 173.09776,72.470448 177.38926,72.147886 181.68561,71.964576 C 186.49464,71.842273 191.30612,71.783281 196.11645,71.800714 L 196.03330,75.278818 C 191.29553,75.243752 186.55585,75.294094 181.81962,75.432600 C 177.70029,75.617389 173.58640,75.939346 169.52594,76.659693 C 165.89155,77.346918 162.28602,78.172954 158.84734,79.522091 C 155.65321,80.864385 152.51705,82.341656 149.97842,84.688860 C 147.32903,87.338075 145.33971,90.402574 143.47627,93.602082 C 140.92349,97.463862 138.26852,101.29582 134.48873,104.18368 C 129.73938,107.69618 124.36212,110.05777 118.55355,111.53910 C 110.93439,113.61032 103.16291,115.18816 95.245944,115.73488 C 86.695840,116.18967 78.165255,115.55197 69.694748,114.37986 C 62.046340,113.30307 54.383911,111.95002 47.302486,108.85534 C 40.498959,105.75630 33.946179,102.01756 29.650826,95.907812 C 25.691379,90.146119 22.551806,83.913693 20.484667,77.294698 C 18.691688,71.096937 17.734096,64.735797 18.124309,58.287666 C 18.659169,51.502936 19.933717,44.813472 22.606263,38.471355 C 25.489862,31.613022 28.876784,24.880928 34.079350,19.323508 C 38.998003,14.391075 44.519920,10.068281 51.048826,7.2091723 C 57.370903,4.4239929 63.926822,2.1242493 70.816720,1.0064820 C 76.748106,0.16807706 82.755005,-0.0047891761 88.701310,0.87292829 C 94.322111,1.6169987 99.948745,2.4963819 105.34945,4.2111690 C 110.15068,5.7703548 114.78059,7.6933933 118.83507,10.665081 C 122.46541,13.239265 125.99919,15.934462 129.29255,18.900037 C 132.38851,21.645839 135.45680,24.419748 138.54842,27.169824 C 141.46828,29.676066 144.44682,32.150440 147.85785,34.038300 C 151.01672,35.719755 154.25253,37.257727 157.85901,37.836378 C 161.74797,38.399967 165.63511,38.454162 169.56049,38.136252 C 173.59769,37.924183 177.63501,37.683870 181.64937,37.206533 C 184.89535,36.849240 188.15046,36.521309 191.34500,35.842033 C 193.10558,35.482636 194.85358,35.039587 196.61357,34.714949 L 196.61357,38.335264 z " />
      <path
         style="fill:#000000;fill-opacity:1.0000000;fill-rule:nonzero;stroke:none;stroke-width:1.0000000px;stroke-linecap:butt;stroke-linejoin:miter;stroke-opacity:1.0000000"
         id="path1331"
         d="M 192.62455,41.210263 C 192.54186,40.102999 192.82533,39.048027 193.02468,37.972407 C 193.87517,35.042262 195.70485,33.143577 198.34585,31.597846 C 201.74582,30.069176 204.80195,30.114919 208.08858,31.717346 C 211.67137,34.394391 212.28033,38.466359 212.61038,42.559730 C 213.00120,47.398018 211.90032,52.092578 210.56808,56.717465 C 209.18674,60.981355 207.40236,65.111178 205.56472,69.210041 C 204.60539,71.285693 203.56058,73.323725 202.52465,75.365013 L 199.24216,73.818071 C 200.26334,71.824441 201.29421,69.834459 202.24045,67.806900 C 204.02887,63.843848 205.74162,59.842715 207.08793,55.719017 C 208.31851,51.491139 209.34364,47.207804 208.99705,42.780357 C 208.69644,39.823097 208.51815,36.831825 206.10651,34.706690 C 203.91900,33.905431 202.25259,33.648330 199.97228,34.765233 C 198.42794,35.912975 197.11394,36.863154 196.63431,38.851122 C 196.54944,39.632497 196.25765,40.404473 196.41256,41.210263 L 192.62455,41.210263 z " />
      <path
         style="fill:#000000;fill-opacity:1.0000000;fill-rule:nonzero;stroke:none;stroke-width:1.0000000px;stroke-linecap:butt;stroke-linejoin:miter;stroke-opacity:1.0000000"
         id="path1343"
         d="M 212.07366,73.616826 C 210.44719,74.210899 213.36954,72.301601 213.81550,71.953466 C 215.70174,70.271771 217.33155,68.383787 218.80566,66.372181 C 220.33780,64.072033 220.96065,61.455724 221.55668,58.831991 C 222.23552,55.353014 222.50612,51.821398 222.76048,48.296096 C 223.04750,44.823851 222.82992,41.376559 222.17464,37.960092 C 221.60173,34.852144 219.62332,33.177260 217.02203,31.483308 C 215.45042,30.483117 213.67745,29.909956 211.92997,29.283349 L 213.03325,25.929068 C 215.08530,26.642434 217.12969,27.376172 218.97520,28.522234 C 222.36802,30.748677 225.04325,33.176495 225.76730,37.240722 C 226.46156,40.971292 226.72860,44.732517 226.40594,48.521723 C 226.14059,52.188210 225.87043,55.862723 225.16396,59.481204 C 224.50807,62.550918 223.70695,65.580020 221.92652,68.259004 C 220.26717,70.510710 218.46928,72.652429 216.35125,74.538015 C 215.03912,75.622126 213.81050,76.895253 212.07366,77.237141 L 212.07366,73.616826 z " />
      <path
         style="fill:#000000;fill-opacity:1.0000000;fill-rule:nonzero;stroke:none;stroke-width:1.0000000px;stroke-linecap:butt;stroke-linejoin:miter;stroke-opacity:1.0000000"
         id="path1347"
         d="M 228.21484,24.654119 C 230.34866,25.047078 230.92999,26.634342 231.83031,28.364906 C 233.60970,32.537638 234.55149,36.987810 235.49344,41.388020 C 236.82460,47.787902 237.54027,54.282994 237.88979,60.793878 C 238.31742,67.481468 236.91240,73.877638 233.73971,79.815536 C 232.79506,81.542902 231.47923,83.011889 230.16880,84.484909 L 227.47350,82.179614 C 228.58155,80.892641 229.78381,79.673749 230.58471,78.169831 C 233.50391,72.801908 234.73048,66.998246 234.34417,60.936342 C 234.00617,54.601424 233.29343,48.284628 231.98177,42.060964 C 231.07360,37.923543 230.15540,33.742295 228.46958,29.819956 C 227.98112,28.945639 227.05821,27.518747 228.21484,28.274435 L 228.21484,24.654119 z " />
      <path
         style="fill:#000000;fill-opacity:1.0000000;fill-rule:nonzero;stroke:none;stroke-width:1.0000000px;stroke-linecap:butt;stroke-linejoin:miter;stroke-opacity:1.0000000"
         id="path1359"
         d="M 188.89387,48.651444 C 185.59326,48.824349 182.25493,49.055488 178.94460,49.270041 C 169.13265,49.843309 159.32319,50.457916 149.50351,50.900005 C 139.15582,51.389451 128.78874,51.454443 118.43765,51.043144 L 118.49489,49.739990 C 128.80462,50.157644 139.13240,50.083358 149.43875,49.598816 C 159.24836,49.148484 169.04781,48.530067 178.84780,47.921755 C 182.19675,47.689226 185.54665,47.450390 188.89387,47.203318 L 188.89387,48.651444 z " />
      <path
         sodipodi:type="arc"
         style="opacity:0.67889911;fill:url(#radialGradient2901);fill-opacity:1.0000000;stroke:none;stroke-opacity:1.0000000"
         id="path1365"
         sodipodi:cx="41.735847"
         sodipodi:cy="11.075472"
         sodipodi:rx="9.5094337"
         sodipodi:ry="7.6226416"
         d="M 51.245281 11.075472 A 9.5094337 7.6226416 0 1 1  32.226414,11.075472 A 9.5094337 7.6226416 0 1 1  51.245281 11.075472 z"
         transform="matrix(9.298720,0.000000,0.000000,8.887067,-299.5417,-40.44025)" />
      <path
         style="fill:#000000;fill-opacity:1.0000000;fill-rule:nonzero;stroke:none;stroke-width:1.0000000px;stroke-linecap:butt;stroke-linejoin:miter;stroke-opacity:1.0000000"
         id="path1361"
         d="M 190.99925,60.053719 C 187.51390,60.153978 184.03136,60.335602 180.55328,60.573356 C 170.70205,61.429555 161.09720,63.875345 151.66417,66.628587 C 142.01464,69.398752 132.58096,72.795823 123.13963,76.144805 L 122.66080,74.908665 C 132.13279,71.565623 141.59220,68.162435 151.26678,65.383811 C 160.79816,62.606929 170.49530,60.120097 180.44377,59.220329 C 183.95924,58.965844 187.47876,58.780685 190.99925,58.605592 L 190.99925,60.053719 z " />
      <path
         style="fill:#000000;fill-opacity:1.0000000;fill-rule:nonzero;stroke:none;stroke-width:1.0000000px;stroke-linecap:butt;stroke-linejoin:miter;stroke-opacity:1.0000000"
         id="path1363"
         d="M 119.43736,34.459600 C 120.67133,35.276216 120.42634,36.566916 120.53858,37.994430 C 120.86335,40.339488 120.16182,42.060760 118.97065,43.995815 C 118.43936,44.473482 117.68728,43.332850 117.04560,43.001367 C 119.45478,42.216283 120.98612,43.088700 122.94202,44.305857 C 124.89815,46.436726 124.56887,47.738925 122.64482,49.660668 C 120.19391,51.539988 117.61121,51.841552 114.60745,51.664740 C 111.84038,51.142603 111.28427,50.224151 111.09926,47.979266 C 113.15285,46.506868 113.83246,47.399038 115.45046,48.883905 C 116.82239,51.166997 116.76520,53.261645 116.29020,55.699734 C 114.87947,58.031918 112.97815,58.350373 110.48319,58.503119 C 109.26723,55.818992 112.21548,55.910477 114.90970,55.499943 C 118.24249,55.026096 120.49728,56.020285 122.88816,58.078130 C 124.95272,60.336610 125.14368,62.426021 124.63639,65.169462 C 123.21779,67.533753 121.55130,67.846845 118.94463,67.719439 C 116.46041,66.573568 117.08334,65.883179 118.03922,64.058998 C 120.50918,63.733378 121.02455,65.152254 121.90841,67.124218 C 122.08869,69.960389 120.30822,70.983493 117.90214,72.156616 C 114.23925,73.299047 114.42878,72.034635 113.46683,70.829704 C 116.04463,70.855242 117.38450,72.487144 118.86095,74.330928 C 120.70449,77.316547 120.44303,80.134613 119.40345,83.268649 C 118.15537,85.686421 116.25505,86.746758 113.80320,87.484950 C 112.96985,85.333373 113.89179,85.160737 116.43277,84.943407 C 118.59874,85.446526 119.54956,86.906763 120.73506,88.532125 L 119.42857,89.204910 C 118.49372,87.984463 117.86089,86.777702 116.20025,86.351865 C 115.19355,86.218087 114.55257,86.990485 114.08251,86.070439 C 115.48741,85.358296 117.28289,84.418753 118.07071,82.663204 C 118.98105,80.022554 119.15622,77.616062 117.61522,75.094911 C 116.60745,73.896175 115.51542,72.508485 114.05894,72.155535 C 114.58911,71.869505 114.66567,70.281690 117.38057,70.830789 C 119.12822,69.924353 120.37001,69.474008 120.45459,67.440731 C 120.03118,66.626750 119.90758,65.570980 118.87171,65.253707 C 118.95748,65.455340 117.72625,66.242157 119.33516,66.343210 C 121.14582,66.285360 122.21155,66.359904 123.26949,64.606865 C 123.57656,62.430115 123.45825,60.838677 121.79022,59.027787 C 119.71042,57.334428 117.95685,56.451195 115.07122,56.901082 C 113.70758,57.110932 111.49396,58.052415 110.91059,57.128756 C 112.55516,56.830924 113.91658,56.793586 114.91922,55.146777 C 115.21524,53.183117 115.32918,51.470266 114.17654,49.623446 C 113.71033,49.375422 113.21324,47.982950 112.40880,48.683008 C 112.89697,49.047835 113.43169,50.523924 114.84404,50.266792 C 117.42490,50.359575 119.60546,50.219740 121.71939,48.553464 C 122.66440,46.975360 123.40679,47.164019 121.92651,45.344405 C 120.44202,44.476974 119.46358,43.758981 117.62829,44.323401 C 117.66505,44.117406 116.31518,43.237999 117.85551,43.050427 C 118.77736,41.431505 119.35533,40.026668 119.05052,38.071888 C 118.99652,37.422324 118.29510,34.907496 119.43736,35.907725 L 119.43736,34.459600 z " />
      <rect
         style="fill:url(#radialGradient2122);fill-opacity:1.0000000;stroke:none;stroke-opacity:1.0000000"
         id="rect2135"
         width="79.891434"
         height="55.287628"
         x="134.15584"
         y="27.921587"
         rx="50.171967"
         ry="13.118676"
         transform="matrix(0.999848,-1.744672e-2,1.655268e-2,0.999863,0.000000,0.000000)" />
    </g>
    <text
       transform="scale(0.917205,1.090269)"
       id="text2111"
       y="107.87397"
       x="66.641411"
       style="font-size:21.140486;font-style:normal;font-weight:normal;fill:#000000;fill-opacity:1.0000000;stroke:none;stroke-width:1.0000000px;stroke-linecap:butt;stroke-linejoin:miter;stroke-opacity:1.0000000;font-family:Bitstream Vera Sans"
       xml:space="preserve"><tspan
         y="107.87397"
         x="66.641411"
         id="tspan2113"
         sodipodi:role="line">Jabber</tspan></text>
    <text
       transform="matrix(1.191319,8.967274e-3,2.159427e-2,0.839568,0.000000,0.000000)"
       id="text2117"
       y="143.52551"
       x="-13.596522"
       style="font-size:190.87968;font-style:normal;font-weight:normal;fill:#000000;fill-opacity:0.16509433;stroke:none;stroke-width:1.0000000px;stroke-linecap:butt;stroke-linejoin:miter;stroke-opacity:1.0000000;font-family:Bitstream Vera Sans"
       xml:space="preserve"><tspan
         y="143.52551"
         x="-13.596522"
         id="tspan2119"
         sodipodi:role="line">?</tspan></text>
  </g>
</svg>
